%TF.GenerationSoftware,KiCad,Pcbnew,9.0.4*%
%TF.CreationDate,2025-09-15T16:29:57+02:00*%
%TF.ProjectId,stm32-mcu,73746d33-322d-46d6-9375-2e6b69636164,rev?*%
%TF.SameCoordinates,Original*%
%TF.FileFunction,Copper,L6,Bot*%
%TF.FilePolarity,Positive*%
%FSLAX46Y46*%
G04 Gerber Fmt 4.6, Leading zero omitted, Abs format (unit mm)*
G04 Created by KiCad (PCBNEW 9.0.4) date 2025-09-15 16:29:57*
%MOMM*%
%LPD*%
G01*
G04 APERTURE LIST*
%TA.AperFunction,HeatsinkPad*%
%ADD10O,1.000000X2.100000*%
%TD*%
%TA.AperFunction,HeatsinkPad*%
%ADD11O,1.000000X1.800000*%
%TD*%
%TA.AperFunction,ComponentPad*%
%ADD12R,1.000000X1.000000*%
%TD*%
%TA.AperFunction,ComponentPad*%
%ADD13C,1.000000*%
%TD*%
%TA.AperFunction,HeatsinkPad*%
%ADD14C,0.500000*%
%TD*%
%TA.AperFunction,HeatsinkPad*%
%ADD15R,0.500000X1.600000*%
%TD*%
%TA.AperFunction,HeatsinkPad*%
%ADD16C,0.600000*%
%TD*%
%TA.AperFunction,HeatsinkPad*%
%ADD17R,1.880000X1.570000*%
%TD*%
%TA.AperFunction,ComponentPad*%
%ADD18R,1.308000X1.308000*%
%TD*%
%TA.AperFunction,ComponentPad*%
%ADD19C,1.308000*%
%TD*%
%TA.AperFunction,ViaPad*%
%ADD20C,0.600000*%
%TD*%
%TA.AperFunction,ViaPad*%
%ADD21C,0.800000*%
%TD*%
%TA.AperFunction,Conductor*%
%ADD22C,0.200000*%
%TD*%
G04 APERTURE END LIST*
D10*
%TO.P,J1,S1,SHIELD*%
%TO.N,GND*%
X135655387Y-115604149D03*
D11*
X135655387Y-119784149D03*
D10*
X144295387Y-115604149D03*
D11*
X144295387Y-119784149D03*
%TD*%
D12*
%TO.P,J2,1,Pin_1*%
%TO.N,/LITE_PWM*%
X154060387Y-85184149D03*
D13*
%TO.P,J2,2,Pin_2*%
%TO.N,/SPI1_MISO*%
X154060387Y-86454149D03*
%TO.P,J2,3,Pin_3*%
%TO.N,/SPI1_SCK*%
X154060387Y-87724149D03*
%TO.P,J2,4,Pin_4*%
%TO.N,/SPI1_MOSI*%
X154060387Y-88994149D03*
%TO.P,J2,5,Pin_5*%
%TO.N,/TFT_CS*%
X154060387Y-90264149D03*
%TO.P,J2,6,Pin_6*%
%TO.N,/CARD_CS*%
X154060387Y-91534149D03*
%TO.P,J2,7,Pin_7*%
%TO.N,/D{slash}C*%
X154060387Y-92804149D03*
%TO.P,J2,8,Pin_8*%
%TO.N,/BOOT*%
X154060387Y-94074149D03*
%TO.P,J2,9,Pin_9*%
%TO.N,/5vUSB*%
X154060387Y-95344149D03*
%TO.P,J2,10,Pin_10*%
%TO.N,GND*%
X154060387Y-96614149D03*
%TD*%
D14*
%TO.P,U2,7,EP*%
%TO.N,GND*%
X134757887Y-106176791D03*
D15*
X134757887Y-106726791D03*
D14*
X134757887Y-107276791D03*
%TD*%
D16*
%TO.P,U8,11,VSS*%
%TO.N,GND*%
X145414812Y-103110000D03*
X146694812Y-103110000D03*
D17*
X146054812Y-102625000D03*
D16*
X145414812Y-102140000D03*
X146694812Y-102140000D03*
%TD*%
D18*
%TO.P,J3,1,1*%
%TO.N,/VBAT*%
X153670000Y-101505000D03*
D19*
%TO.P,J3,2,2*%
%TO.N,GND*%
X153670000Y-103505000D03*
%TD*%
D20*
%TO.N,GND*%
X139608465Y-93614335D03*
X146054812Y-102625000D03*
X137790733Y-73950812D03*
X129794000Y-74168000D03*
X129794000Y-76911200D03*
X132486400Y-80010000D03*
X129997200Y-80010000D03*
X141020800Y-86715600D03*
X141020800Y-84632800D03*
X141376400Y-81991200D03*
X154686000Y-78181200D03*
X148691600Y-78181200D03*
X146456400Y-81991200D03*
X143916400Y-81991200D03*
X136956800Y-110388400D03*
X134518400Y-110337600D03*
X131165600Y-111201200D03*
X131978400Y-108000800D03*
X133908800Y-103378000D03*
X133959600Y-100330000D03*
X139700000Y-98044000D03*
X142494000Y-97536000D03*
X149301200Y-103479600D03*
X149047200Y-107746800D03*
X143154400Y-107696000D03*
X143510000Y-110388400D03*
X143175387Y-115029149D03*
%TO.N,/5vUSB*%
X138988800Y-113385600D03*
%TO.N,/ACCEL_INT*%
X136771465Y-91726935D03*
X135839200Y-78892400D03*
%TO.N,/IO_INT*%
X136965387Y-90264149D03*
X144018000Y-94691200D03*
%TO.N,/SPI1_MISO*%
X133286197Y-92191600D03*
X131470400Y-100380800D03*
%TO.N,/RGB_B*%
X145805387Y-73754149D03*
X133506379Y-85810018D03*
%TO.N,/RGB_R*%
X133719140Y-83301649D03*
X144755387Y-73754149D03*
%TO.N,/RGB_G*%
X143705387Y-73754149D03*
X132384800Y-83312000D03*
%TO.N,/MEM_nCE*%
X129507273Y-100380800D03*
X130098800Y-88696800D03*
%TO.N,/BOOT*%
X141798212Y-92367596D03*
X136906000Y-83261200D03*
X135015387Y-83261200D03*
%TO.N,/I2C_SCL*%
X142830457Y-89594149D03*
X135636000Y-85750400D03*
%TO.N,/I2C_SDA*%
X143380000Y-90175528D03*
X136265387Y-86411600D03*
%TO.N,/TFT_CS*%
X147472400Y-92675000D03*
%TO.N,/CARD_CS*%
X149255588Y-92175000D03*
X151034365Y-91969035D03*
%TO.N,/BOOT*%
X139007222Y-86704963D03*
%TO.N,/USB_DM*%
X134987742Y-91690699D03*
X139801600Y-113436400D03*
%TO.N,/USB_DP*%
X140861387Y-112560000D03*
X135832341Y-91651411D03*
%TO.N,/SPI1_SCK*%
X131015387Y-90264149D03*
X133694999Y-88394149D03*
D21*
%TO.N,/5vUSB*%
X141450000Y-95645335D03*
X138716600Y-96436600D03*
D20*
%TO.N,/3v3*%
X136966658Y-80055547D03*
X135382000Y-77622400D03*
X129323661Y-84836976D03*
X130157273Y-92893049D03*
X154705293Y-76290722D03*
X131953363Y-105942085D03*
X129286000Y-103174800D03*
X129295387Y-105990761D03*
X130016269Y-82117349D03*
X131876800Y-76860400D03*
X148742400Y-76250800D03*
X133757885Y-106026843D03*
X133197600Y-76860400D03*
X134366000Y-85750400D03*
X132435600Y-82092800D03*
X133858000Y-77571600D03*
X139842308Y-76871223D03*
X134811875Y-80096051D03*
X139865733Y-73950812D03*
X134349165Y-91208802D03*
X139842308Y-75790000D03*
X139121439Y-80047446D03*
D21*
%TO.N,/5vUSB*%
X135980015Y-103388956D03*
X144830800Y-105968800D03*
X151953865Y-95645335D03*
X136499600Y-106070400D03*
X142443200Y-113995200D03*
X137558812Y-114202170D03*
X142207111Y-105587933D03*
X136296400Y-108356400D03*
X134527221Y-112432500D03*
D20*
%TO.N,/VBAT*%
X144475200Y-100431600D03*
X142240000Y-99720400D03*
D21*
X149310000Y-101430000D03*
X148405000Y-97545000D03*
D20*
%TO.N,/VBAT_SNS*%
X142240000Y-101701600D03*
X139700000Y-100060000D03*
%TD*%
D22*
%TO.N,/RGB_B*%
X145651051Y-73754149D02*
X145805387Y-73754149D01*
X139664568Y-79740632D02*
X145651051Y-73754149D01*
X139722439Y-79798503D02*
X139664568Y-79740632D01*
X139722439Y-80296389D02*
X139722439Y-79798503D01*
X139370382Y-80648446D02*
X139722439Y-80296389D01*
X138872496Y-80648446D02*
X139370382Y-80648446D01*
X138814625Y-80590575D02*
X138872496Y-80648446D01*
X133506379Y-85760078D02*
X138618011Y-80648446D01*
X138618011Y-80648446D02*
X138756754Y-80648446D01*
X133506379Y-85810018D02*
X133506379Y-85760078D01*
X138756754Y-80648446D02*
X138814625Y-80590575D01*
%TO.N,/USB_DP*%
X135847411Y-91651411D02*
X141478000Y-97282000D01*
X135832341Y-91651411D02*
X135847411Y-91651411D01*
X141478000Y-97282000D02*
X141478000Y-111943387D01*
X141478000Y-111943387D02*
X140861387Y-112560000D01*
%TO.N,/USB_DM*%
X139801600Y-111654789D02*
X139801600Y-113436400D01*
X141077000Y-97744600D02*
X141077000Y-110379389D01*
X141077000Y-110379389D02*
X139801600Y-111654789D01*
X134987742Y-91690699D02*
X135023099Y-91690699D01*
X135023099Y-91690699D02*
X141077000Y-97744600D01*
%TO.N,/IO_INT*%
X141392438Y-94691200D02*
X136965387Y-90264149D01*
X144018000Y-94691200D02*
X141392438Y-94691200D01*
%TO.N,/RGB_G*%
X143705387Y-73858087D02*
X143705387Y-73754149D01*
X138264674Y-79298800D02*
X143705387Y-73858087D01*
X132860262Y-83312000D02*
X136873462Y-79298800D01*
X136873462Y-79298800D02*
X138264674Y-79298800D01*
X132384800Y-83312000D02*
X132860262Y-83312000D01*
%TO.N,/RGB_R*%
X144555330Y-73754149D02*
X144755387Y-73754149D01*
X137588279Y-80721200D02*
X144555330Y-73754149D01*
X136299589Y-80721200D02*
X137588279Y-80721200D01*
X133719140Y-83301649D02*
X136299589Y-80721200D01*
%TO.N,/CARD_CS*%
X151001400Y-91975000D02*
X150802400Y-92174000D01*
X150802400Y-92174000D02*
X149989600Y-92174000D01*
X149989600Y-92174000D02*
X149988600Y-92175000D01*
X151028400Y-91975000D02*
X151001400Y-91975000D01*
X151034365Y-91969035D02*
X151028400Y-91975000D01*
X149988600Y-92175000D02*
X149255588Y-92175000D01*
%TO.N,/TFT_CS*%
X154060387Y-90389213D02*
X154060387Y-90264149D01*
X151874600Y-92575000D02*
X154060387Y-90389213D01*
X150155700Y-92575000D02*
X151874600Y-92575000D01*
X149704531Y-92576000D02*
X150154700Y-92576000D01*
X148805645Y-92575000D02*
X149006645Y-92776000D01*
X147674000Y-92575000D02*
X148805645Y-92575000D01*
X147574000Y-92675000D02*
X147674000Y-92575000D01*
X149504531Y-92776000D02*
X149704531Y-92576000D01*
X149006645Y-92776000D02*
X149504531Y-92776000D01*
X147472400Y-92675000D02*
X147574000Y-92675000D01*
X150154700Y-92576000D02*
X150155700Y-92575000D01*
%TO.N,/BOOT*%
X141798212Y-89495952D02*
X141581130Y-89278870D01*
X139007222Y-86704963D02*
X141581130Y-89278870D01*
X141798212Y-92367596D02*
X141798212Y-89495952D01*
X146376408Y-94074149D02*
X154060387Y-94074149D01*
X141581130Y-89278870D02*
X146376408Y-94074149D01*
%TD*%
M02*
