%TF.GenerationSoftware,KiCad,Pcbnew,9.0.4*%
%TF.CreationDate,2025-09-15T16:29:57+02:00*%
%TF.ProjectId,stm32-mcu,73746d33-322d-46d6-9375-2e6b69636164,rev?*%
%TF.SameCoordinates,Original*%
%TF.FileFunction,Paste,Top*%
%TF.FilePolarity,Positive*%
%FSLAX46Y46*%
G04 Gerber Fmt 4.6, Leading zero omitted, Abs format (unit mm)*
G04 Created by KiCad (PCBNEW 9.0.4) date 2025-09-15 16:29:57*
%MOMM*%
%LPD*%
G01*
G04 APERTURE LIST*
G04 Aperture macros list*
%AMRoundRect*
0 Rectangle with rounded corners*
0 $1 Rounding radius*
0 $2 $3 $4 $5 $6 $7 $8 $9 X,Y pos of 4 corners*
0 Add a 4 corners polygon primitive as box body*
4,1,4,$2,$3,$4,$5,$6,$7,$8,$9,$2,$3,0*
0 Add four circle primitives for the rounded corners*
1,1,$1+$1,$2,$3*
1,1,$1+$1,$4,$5*
1,1,$1+$1,$6,$7*
1,1,$1+$1,$8,$9*
0 Add four rect primitives between the rounded corners*
20,1,$1+$1,$2,$3,$4,$5,0*
20,1,$1+$1,$4,$5,$6,$7,0*
20,1,$1+$1,$6,$7,$8,$9,0*
20,1,$1+$1,$8,$9,$2,$3,0*%
G04 Aperture macros list end*
%ADD10C,0.010000*%
%ADD11C,0.000000*%
%ADD12RoundRect,0.160000X-0.240000X0.565000X-0.240000X-0.565000X0.240000X-0.565000X0.240000X0.565000X0*%
%ADD13RoundRect,0.120000X-0.180000X0.605000X-0.180000X-0.605000X0.180000X-0.605000X0.180000X0.605000X0*%
%ADD14RoundRect,0.087500X0.087500X-0.187500X0.087500X0.187500X-0.087500X0.187500X-0.087500X-0.187500X0*%
%ADD15RoundRect,0.087500X0.187500X-0.087500X0.187500X0.087500X-0.187500X0.087500X-0.187500X-0.087500X0*%
%ADD16RoundRect,0.150000X-0.150000X-0.425000X0.150000X-0.425000X0.150000X0.425000X-0.150000X0.425000X0*%
%ADD17RoundRect,0.075000X-0.075000X-0.500000X0.075000X-0.500000X0.075000X0.500000X-0.075000X0.500000X0*%
%ADD18O,1.000000X2.100000*%
%ADD19O,1.000000X1.800000*%
%ADD20RoundRect,0.250000X-0.450000X0.350000X-0.450000X-0.350000X0.450000X-0.350000X0.450000X0.350000X0*%
%ADD21RoundRect,0.250000X-0.475000X0.337500X-0.475000X-0.337500X0.475000X-0.337500X0.475000X0.337500X0*%
%ADD22RoundRect,0.250000X-0.350000X-0.450000X0.350000X-0.450000X0.350000X0.450000X-0.350000X0.450000X0*%
%ADD23RoundRect,0.250000X0.475000X-0.337500X0.475000X0.337500X-0.475000X0.337500X-0.475000X-0.337500X0*%
%ADD24RoundRect,0.250000X0.450000X-0.350000X0.450000X0.350000X-0.450000X0.350000X-0.450000X-0.350000X0*%
%ADD25RoundRect,0.250000X0.337500X0.475000X-0.337500X0.475000X-0.337500X-0.475000X0.337500X-0.475000X0*%
%ADD26RoundRect,0.250000X0.325000X0.450000X-0.325000X0.450000X-0.325000X-0.450000X0.325000X-0.450000X0*%
%ADD27RoundRect,0.250000X-0.337500X-0.475000X0.337500X-0.475000X0.337500X0.475000X-0.337500X0.475000X0*%
%ADD28RoundRect,0.250000X0.350000X0.450000X-0.350000X0.450000X-0.350000X-0.450000X0.350000X-0.450000X0*%
%ADD29R,0.250000X0.500000*%
%ADD30R,0.450000X0.500000*%
%ADD31RoundRect,0.070200X-0.284800X-0.059800X0.284800X-0.059800X0.284800X0.059800X-0.284800X0.059800X0*%
%ADD32RoundRect,0.070200X-0.059800X-0.284800X0.059800X-0.284800X0.059800X0.284800X-0.059800X0.284800X0*%
%ADD33R,1.000000X0.700000*%
%ADD34R,0.508000X0.660400*%
%ADD35R,4.800600X5.994400*%
%ADD36RoundRect,0.172500X-0.262500X-0.172500X0.262500X-0.172500X0.262500X0.172500X-0.262500X0.172500X0*%
%ADD37RoundRect,0.093750X-0.093750X-0.106250X0.093750X-0.106250X0.093750X0.106250X-0.093750X0.106250X0*%
%ADD38RoundRect,0.157500X0.222500X-0.157500X0.222500X0.157500X-0.222500X0.157500X-0.222500X-0.157500X0*%
%ADD39RoundRect,0.075000X0.075000X-0.650000X0.075000X0.650000X-0.075000X0.650000X-0.075000X-0.650000X0*%
%ADD40RoundRect,0.100000X-0.100000X0.637500X-0.100000X-0.637500X0.100000X-0.637500X0.100000X0.637500X0*%
G04 APERTURE END LIST*
D10*
%TO.C,U7*%
X145600616Y-93165485D02*
X144639516Y-93165485D01*
X144639516Y-92205616D01*
X145600616Y-92205616D01*
X145600616Y-93165485D01*
G36*
X145600616Y-93165485D02*
G01*
X144639516Y-93165485D01*
X144639516Y-92205616D01*
X145600616Y-92205616D01*
X145600616Y-93165485D01*
G37*
X145600000Y-91944936D02*
X144640064Y-91944936D01*
X144640064Y-90985000D01*
X145600000Y-90985000D01*
X145600000Y-91944936D01*
G36*
X145600000Y-91944936D02*
G01*
X144640064Y-91944936D01*
X144640064Y-90985000D01*
X145600000Y-90985000D01*
X145600000Y-91944936D01*
G37*
X144380000Y-93165160D02*
X143419840Y-93165160D01*
X143419840Y-92205000D01*
X144380000Y-92205000D01*
X144380000Y-93165160D01*
G36*
X144380000Y-93165160D02*
G01*
X143419840Y-93165160D01*
X143419840Y-92205000D01*
X144380000Y-92205000D01*
X144380000Y-93165160D01*
G37*
X144379792Y-91945162D02*
X143419837Y-91945162D01*
X143419837Y-90984792D01*
X144379792Y-90984792D01*
X144379792Y-91945162D01*
G36*
X144379792Y-91945162D02*
G01*
X143419837Y-91945162D01*
X143419837Y-90984792D01*
X144379792Y-90984792D01*
X144379792Y-91945162D01*
G37*
D11*
%TO.C,U3*%
G36*
X131162173Y-95015549D02*
G01*
X129761973Y-95015549D01*
X129761973Y-93716949D01*
X131162173Y-93716949D01*
X131162173Y-95015549D01*
G37*
G36*
X131162173Y-96514149D02*
G01*
X129761973Y-96514149D01*
X129761973Y-95215549D01*
X131162173Y-95215549D01*
X131162173Y-96514149D01*
G37*
G36*
X131162173Y-98012749D02*
G01*
X129761973Y-98012749D01*
X129761973Y-96714149D01*
X131162173Y-96714149D01*
X131162173Y-98012749D01*
G37*
G36*
X131162173Y-99511349D02*
G01*
X129761973Y-99511349D01*
X129761973Y-98212749D01*
X131162173Y-98212749D01*
X131162173Y-99511349D01*
G37*
G36*
X132762373Y-95015549D02*
G01*
X131362173Y-95015549D01*
X131362173Y-93716949D01*
X132762373Y-93716949D01*
X132762373Y-95015549D01*
G37*
G36*
X132762373Y-96514149D02*
G01*
X131362173Y-96514149D01*
X131362173Y-95215549D01*
X132762373Y-95215549D01*
X132762373Y-96514149D01*
G37*
G36*
X132762373Y-98012749D02*
G01*
X131362173Y-98012749D01*
X131362173Y-96714149D01*
X132762373Y-96714149D01*
X132762373Y-98012749D01*
G37*
G36*
X132762373Y-99511349D02*
G01*
X131362173Y-99511349D01*
X131362173Y-98212749D01*
X132762373Y-98212749D01*
X132762373Y-99511349D01*
G37*
G36*
X134362573Y-95015549D02*
G01*
X132962373Y-95015549D01*
X132962373Y-93716949D01*
X134362573Y-93716949D01*
X134362573Y-95015549D01*
G37*
G36*
X134362573Y-96514149D02*
G01*
X132962373Y-96514149D01*
X132962373Y-95215549D01*
X134362573Y-95215549D01*
X134362573Y-96514149D01*
G37*
G36*
X134362573Y-98012749D02*
G01*
X132962373Y-98012749D01*
X132962373Y-96714149D01*
X134362573Y-96714149D01*
X134362573Y-98012749D01*
G37*
G36*
X134362573Y-99511349D02*
G01*
X132962373Y-99511349D01*
X132962373Y-98212749D01*
X134362573Y-98212749D01*
X134362573Y-99511349D01*
G37*
%TD*%
D12*
%TO.C,D2*%
X145805387Y-73754149D03*
D13*
X144755387Y-73754149D03*
D12*
X143705387Y-73754149D03*
X143705387Y-76804149D03*
D13*
X144755387Y-76804149D03*
D12*
X145805387Y-76804149D03*
%TD*%
D14*
%TO.C,U4*%
X133884752Y-76858842D03*
X134384752Y-76858842D03*
X134884752Y-76858842D03*
X135384752Y-76858842D03*
X135884752Y-76858842D03*
D15*
X136109752Y-76133842D03*
X136109752Y-75633842D03*
X136109752Y-75133842D03*
D14*
X135884752Y-74408842D03*
X135384752Y-74408842D03*
X134884752Y-74408842D03*
X134384752Y-74408842D03*
X133884752Y-74408842D03*
D15*
X133659752Y-75133842D03*
X133659752Y-75633842D03*
X133659752Y-76133842D03*
%TD*%
D16*
%TO.C,J1*%
X136775387Y-115029149D03*
X137575387Y-115029149D03*
D17*
X138725387Y-115029149D03*
X139725387Y-115029149D03*
X140225387Y-115029149D03*
X141225387Y-115029149D03*
D16*
X142375387Y-115029149D03*
X143175387Y-115029149D03*
X143175387Y-115029149D03*
X142375387Y-115029149D03*
D17*
X141725387Y-115029149D03*
X140725387Y-115029149D03*
X139225387Y-115029149D03*
X138225387Y-115029149D03*
D16*
X137575387Y-115029149D03*
X136775387Y-115029149D03*
D18*
X135655387Y-115604149D03*
D19*
X135655387Y-119784149D03*
D18*
X144295387Y-115604149D03*
D19*
X144295387Y-119784149D03*
%TD*%
D20*
%TO.C,R18*%
X143900387Y-80009149D03*
X143900387Y-82009149D03*
%TD*%
D21*
%TO.C,C14*%
X149310000Y-101430000D03*
X149310000Y-103505000D03*
%TD*%
D20*
%TO.C,R9*%
X136966658Y-80055547D03*
X136966658Y-82055547D03*
%TD*%
D22*
%TO.C,R1*%
X139007222Y-86704963D03*
X141007222Y-86704963D03*
%TD*%
D23*
%TO.C,C3*%
X134527221Y-112432500D03*
X134527221Y-110357500D03*
%TD*%
D24*
%TO.C,R14*%
X142240000Y-101720000D03*
X142240000Y-99720000D03*
%TD*%
D25*
%TO.C,C7*%
X131870358Y-76940286D03*
X129795358Y-76940286D03*
%TD*%
D26*
%TO.C,D1*%
X131170832Y-111219149D03*
X129120832Y-111219149D03*
%TD*%
D27*
%TO.C,C1*%
X138949242Y-84626249D03*
X141024242Y-84626249D03*
%TD*%
D28*
%TO.C,R13*%
X148405000Y-97545000D03*
X146405000Y-97545000D03*
%TD*%
D29*
%TO.C,U5*%
X138735387Y-112560000D03*
X139235387Y-112560000D03*
D30*
X139735387Y-112560000D03*
D29*
X140235387Y-112560000D03*
X140735387Y-112560000D03*
X140735387Y-111760000D03*
X140235387Y-111760000D03*
D30*
X139735387Y-111760000D03*
D29*
X139235387Y-111760000D03*
X138735387Y-111760000D03*
%TD*%
D31*
%TO.C,U7*%
X142605000Y-91075000D03*
X142605000Y-91575000D03*
X142605000Y-92075000D03*
X142605000Y-92575000D03*
X142605000Y-93075000D03*
D32*
X143510000Y-93980000D03*
X144010000Y-93980000D03*
X144510000Y-93980000D03*
X145010000Y-93980000D03*
X145510000Y-93980000D03*
D31*
X146415000Y-93075000D03*
X146415000Y-92575000D03*
X146415000Y-92075000D03*
X146415000Y-91575000D03*
X146415000Y-91075000D03*
D32*
X145510000Y-90170000D03*
X145010000Y-90170000D03*
X144510000Y-90170000D03*
X144010000Y-90170000D03*
X143510000Y-90170000D03*
%TD*%
D27*
%TO.C,C4*%
X133905015Y-103388956D03*
X135980015Y-103388956D03*
%TD*%
D24*
%TO.C,R3*%
X143510000Y-112395000D03*
X143510000Y-110395000D03*
%TD*%
D33*
%TO.C,RESET1*%
X148695387Y-78164012D03*
X154695387Y-78164012D03*
X148695387Y-81864012D03*
X154695387Y-81864012D03*
%TD*%
D20*
%TO.C,R10*%
X134811875Y-80096051D03*
X134811875Y-82096051D03*
%TD*%
D21*
%TO.C,C6*%
X130016269Y-80042349D03*
X130016269Y-82117349D03*
%TD*%
%TO.C,C12*%
X139700000Y-93577500D03*
X139700000Y-95652500D03*
%TD*%
D34*
%TO.C,U3*%
X130157273Y-100335249D03*
X131427273Y-100335249D03*
X132697273Y-100335249D03*
X133967273Y-100335249D03*
X133967273Y-92893049D03*
X132697273Y-92893049D03*
X131427273Y-92893049D03*
X130157273Y-92893049D03*
D35*
X132062273Y-96614149D03*
%TD*%
D28*
%TO.C,R6*%
X139842308Y-76871223D03*
X137842308Y-76871223D03*
%TD*%
D36*
%TO.C,U2*%
X134757887Y-106326791D03*
X134757887Y-107126791D03*
D37*
X133870387Y-106076791D03*
X133870387Y-106726791D03*
X133870387Y-107376791D03*
X135645387Y-107376791D03*
X135645387Y-106726791D03*
X135645387Y-106076791D03*
%TD*%
D23*
%TO.C,C2*%
X132454529Y-82113781D03*
X132454529Y-80038781D03*
%TD*%
D20*
%TO.C,R5*%
X129295387Y-105990761D03*
X129295387Y-107990761D03*
%TD*%
%TO.C,R2*%
X139121439Y-80047446D03*
X139121439Y-82047446D03*
%TD*%
D25*
%TO.C,C9*%
X131886559Y-74177952D03*
X129811559Y-74177952D03*
%TD*%
D23*
%TO.C,C13*%
X142240000Y-105580000D03*
X142240000Y-103505000D03*
%TD*%
D24*
%TO.C,R4*%
X136939757Y-112395000D03*
X136939757Y-110395000D03*
%TD*%
D28*
%TO.C,R16*%
X144510000Y-97545000D03*
X142510000Y-97545000D03*
%TD*%
D20*
%TO.C,R19*%
X146440387Y-80009149D03*
X146440387Y-82009149D03*
%TD*%
D33*
%TO.C,BOOT1*%
X148705293Y-72590722D03*
X154705293Y-72590722D03*
X148705293Y-76290722D03*
X154705293Y-76290722D03*
%TD*%
D20*
%TO.C,R17*%
X141360387Y-80009149D03*
X141360387Y-82009149D03*
%TD*%
%TO.C,R8*%
X129323661Y-84836976D03*
X129323661Y-86836976D03*
%TD*%
D22*
%TO.C,R12*%
X147040000Y-107705000D03*
X149040000Y-107705000D03*
%TD*%
D38*
%TO.C,U8*%
X145584812Y-103015000D03*
X146524812Y-103015000D03*
X145584812Y-102235000D03*
X146524812Y-102235000D03*
D39*
X145054812Y-104775000D03*
X145554812Y-104775000D03*
X146054812Y-104775000D03*
X146554812Y-104775000D03*
X147054812Y-104775000D03*
X147054812Y-100475000D03*
X146554812Y-100475000D03*
X146054812Y-100475000D03*
X145554812Y-100475000D03*
X145054812Y-100475000D03*
%TD*%
D20*
%TO.C,R15*%
X139700000Y-98060000D03*
X139700000Y-100060000D03*
%TD*%
D22*
%TO.C,R7*%
X129314782Y-103199641D03*
X131314782Y-103199641D03*
%TD*%
D25*
%TO.C,C8*%
X139865733Y-73950812D03*
X137790733Y-73950812D03*
%TD*%
D23*
%TO.C,C5*%
X131953363Y-108017085D03*
X131953363Y-105942085D03*
%TD*%
D28*
%TO.C,R11*%
X145145000Y-107705000D03*
X143145000Y-107705000D03*
%TD*%
D40*
%TO.C,U1*%
X136915387Y-84539149D03*
X136265387Y-84539149D03*
X135615387Y-84539149D03*
X134965387Y-84539149D03*
X134315387Y-84539149D03*
X133665387Y-84539149D03*
X133015387Y-84539149D03*
X132365387Y-84539149D03*
X131715387Y-84539149D03*
X131065387Y-84539149D03*
X131065387Y-90264149D03*
X131715387Y-90264149D03*
X132365387Y-90264149D03*
X133015387Y-90264149D03*
X133665387Y-90264149D03*
X134315387Y-90264149D03*
X134965387Y-90264149D03*
X135615387Y-90264149D03*
X136265387Y-90264149D03*
X136915387Y-90264149D03*
%TD*%
M02*
