%TF.GenerationSoftware,KiCad,Pcbnew,9.0.4*%
%TF.CreationDate,2025-09-15T16:29:57+02:00*%
%TF.ProjectId,stm32-mcu,73746d33-322d-46d6-9375-2e6b69636164,rev?*%
%TF.SameCoordinates,Original*%
%TF.FileFunction,Legend,Top*%
%TF.FilePolarity,Positive*%
%FSLAX46Y46*%
G04 Gerber Fmt 4.6, Leading zero omitted, Abs format (unit mm)*
G04 Created by KiCad (PCBNEW 9.0.4) date 2025-09-15 16:29:57*
%MOMM*%
%LPD*%
G01*
G04 APERTURE LIST*
%ADD10C,0.125000*%
%ADD11C,0.120000*%
%ADD12C,0.200000*%
%ADD13C,0.127000*%
%ADD14C,0.152400*%
G04 APERTURE END LIST*
D10*
X143051339Y-72433958D02*
X143051339Y-71933958D01*
X143051339Y-71933958D02*
X143170387Y-71933958D01*
X143170387Y-71933958D02*
X143241815Y-71957768D01*
X143241815Y-71957768D02*
X143289434Y-72005387D01*
X143289434Y-72005387D02*
X143313244Y-72053006D01*
X143313244Y-72053006D02*
X143337053Y-72148244D01*
X143337053Y-72148244D02*
X143337053Y-72219672D01*
X143337053Y-72219672D02*
X143313244Y-72314910D01*
X143313244Y-72314910D02*
X143289434Y-72362529D01*
X143289434Y-72362529D02*
X143241815Y-72410149D01*
X143241815Y-72410149D02*
X143170387Y-72433958D01*
X143170387Y-72433958D02*
X143051339Y-72433958D01*
X143527530Y-71981577D02*
X143551339Y-71957768D01*
X143551339Y-71957768D02*
X143598958Y-71933958D01*
X143598958Y-71933958D02*
X143718006Y-71933958D01*
X143718006Y-71933958D02*
X143765625Y-71957768D01*
X143765625Y-71957768D02*
X143789434Y-71981577D01*
X143789434Y-71981577D02*
X143813244Y-72029196D01*
X143813244Y-72029196D02*
X143813244Y-72076815D01*
X143813244Y-72076815D02*
X143789434Y-72148244D01*
X143789434Y-72148244D02*
X143503720Y-72433958D01*
X143503720Y-72433958D02*
X143813244Y-72433958D01*
X133273799Y-73202061D02*
X133273799Y-73606823D01*
X133273799Y-73606823D02*
X133297609Y-73654442D01*
X133297609Y-73654442D02*
X133321418Y-73678252D01*
X133321418Y-73678252D02*
X133369037Y-73702061D01*
X133369037Y-73702061D02*
X133464275Y-73702061D01*
X133464275Y-73702061D02*
X133511894Y-73678252D01*
X133511894Y-73678252D02*
X133535704Y-73654442D01*
X133535704Y-73654442D02*
X133559513Y-73606823D01*
X133559513Y-73606823D02*
X133559513Y-73202061D01*
X134011895Y-73368728D02*
X134011895Y-73702061D01*
X133892847Y-73178252D02*
X133773800Y-73535394D01*
X133773800Y-73535394D02*
X134083323Y-73535394D01*
X144775040Y-113296358D02*
X144775040Y-113653501D01*
X144775040Y-113653501D02*
X144751231Y-113724929D01*
X144751231Y-113724929D02*
X144703612Y-113772549D01*
X144703612Y-113772549D02*
X144632183Y-113796358D01*
X144632183Y-113796358D02*
X144584564Y-113796358D01*
X145275040Y-113796358D02*
X144989326Y-113796358D01*
X145132183Y-113796358D02*
X145132183Y-113296358D01*
X145132183Y-113296358D02*
X145084564Y-113367787D01*
X145084564Y-113367787D02*
X145036945Y-113415406D01*
X145036945Y-113415406D02*
X144989326Y-113439215D01*
X143298958Y-78888958D02*
X143132292Y-78650863D01*
X143013244Y-78888958D02*
X143013244Y-78388958D01*
X143013244Y-78388958D02*
X143203720Y-78388958D01*
X143203720Y-78388958D02*
X143251339Y-78412768D01*
X143251339Y-78412768D02*
X143275149Y-78436577D01*
X143275149Y-78436577D02*
X143298958Y-78484196D01*
X143298958Y-78484196D02*
X143298958Y-78555625D01*
X143298958Y-78555625D02*
X143275149Y-78603244D01*
X143275149Y-78603244D02*
X143251339Y-78627053D01*
X143251339Y-78627053D02*
X143203720Y-78650863D01*
X143203720Y-78650863D02*
X143013244Y-78650863D01*
X143775149Y-78888958D02*
X143489435Y-78888958D01*
X143632292Y-78888958D02*
X143632292Y-78388958D01*
X143632292Y-78388958D02*
X143584673Y-78460387D01*
X143584673Y-78460387D02*
X143537054Y-78508006D01*
X143537054Y-78508006D02*
X143489435Y-78531815D01*
X144060863Y-78603244D02*
X144013244Y-78579434D01*
X144013244Y-78579434D02*
X143989434Y-78555625D01*
X143989434Y-78555625D02*
X143965625Y-78508006D01*
X143965625Y-78508006D02*
X143965625Y-78484196D01*
X143965625Y-78484196D02*
X143989434Y-78436577D01*
X143989434Y-78436577D02*
X144013244Y-78412768D01*
X144013244Y-78412768D02*
X144060863Y-78388958D01*
X144060863Y-78388958D02*
X144156101Y-78388958D01*
X144156101Y-78388958D02*
X144203720Y-78412768D01*
X144203720Y-78412768D02*
X144227529Y-78436577D01*
X144227529Y-78436577D02*
X144251339Y-78484196D01*
X144251339Y-78484196D02*
X144251339Y-78508006D01*
X144251339Y-78508006D02*
X144227529Y-78555625D01*
X144227529Y-78555625D02*
X144203720Y-78579434D01*
X144203720Y-78579434D02*
X144156101Y-78603244D01*
X144156101Y-78603244D02*
X144060863Y-78603244D01*
X144060863Y-78603244D02*
X144013244Y-78627053D01*
X144013244Y-78627053D02*
X143989434Y-78650863D01*
X143989434Y-78650863D02*
X143965625Y-78698482D01*
X143965625Y-78698482D02*
X143965625Y-78793720D01*
X143965625Y-78793720D02*
X143989434Y-78841339D01*
X143989434Y-78841339D02*
X144013244Y-78865149D01*
X144013244Y-78865149D02*
X144060863Y-78888958D01*
X144060863Y-78888958D02*
X144156101Y-78888958D01*
X144156101Y-78888958D02*
X144203720Y-78865149D01*
X144203720Y-78865149D02*
X144227529Y-78841339D01*
X144227529Y-78841339D02*
X144251339Y-78793720D01*
X144251339Y-78793720D02*
X144251339Y-78698482D01*
X144251339Y-78698482D02*
X144227529Y-78650863D01*
X144227529Y-78650863D02*
X144203720Y-78627053D01*
X144203720Y-78627053D02*
X144156101Y-78603244D01*
X148622302Y-100360771D02*
X148598493Y-100384581D01*
X148598493Y-100384581D02*
X148527064Y-100408390D01*
X148527064Y-100408390D02*
X148479445Y-100408390D01*
X148479445Y-100408390D02*
X148408017Y-100384581D01*
X148408017Y-100384581D02*
X148360398Y-100336961D01*
X148360398Y-100336961D02*
X148336588Y-100289342D01*
X148336588Y-100289342D02*
X148312779Y-100194104D01*
X148312779Y-100194104D02*
X148312779Y-100122676D01*
X148312779Y-100122676D02*
X148336588Y-100027438D01*
X148336588Y-100027438D02*
X148360398Y-99979819D01*
X148360398Y-99979819D02*
X148408017Y-99932200D01*
X148408017Y-99932200D02*
X148479445Y-99908390D01*
X148479445Y-99908390D02*
X148527064Y-99908390D01*
X148527064Y-99908390D02*
X148598493Y-99932200D01*
X148598493Y-99932200D02*
X148622302Y-99956009D01*
X149098493Y-100408390D02*
X148812779Y-100408390D01*
X148955636Y-100408390D02*
X148955636Y-99908390D01*
X148955636Y-99908390D02*
X148908017Y-99979819D01*
X148908017Y-99979819D02*
X148860398Y-100027438D01*
X148860398Y-100027438D02*
X148812779Y-100051247D01*
X149527064Y-100075057D02*
X149527064Y-100408390D01*
X149408016Y-99884581D02*
X149288969Y-100241723D01*
X149288969Y-100241723D02*
X149598492Y-100241723D01*
X136323324Y-79005356D02*
X136156658Y-78767261D01*
X136037610Y-79005356D02*
X136037610Y-78505356D01*
X136037610Y-78505356D02*
X136228086Y-78505356D01*
X136228086Y-78505356D02*
X136275705Y-78529166D01*
X136275705Y-78529166D02*
X136299515Y-78552975D01*
X136299515Y-78552975D02*
X136323324Y-78600594D01*
X136323324Y-78600594D02*
X136323324Y-78672023D01*
X136323324Y-78672023D02*
X136299515Y-78719642D01*
X136299515Y-78719642D02*
X136275705Y-78743451D01*
X136275705Y-78743451D02*
X136228086Y-78767261D01*
X136228086Y-78767261D02*
X136037610Y-78767261D01*
X136561420Y-79005356D02*
X136656658Y-79005356D01*
X136656658Y-79005356D02*
X136704277Y-78981547D01*
X136704277Y-78981547D02*
X136728086Y-78957737D01*
X136728086Y-78957737D02*
X136775705Y-78886308D01*
X136775705Y-78886308D02*
X136799515Y-78791070D01*
X136799515Y-78791070D02*
X136799515Y-78600594D01*
X136799515Y-78600594D02*
X136775705Y-78552975D01*
X136775705Y-78552975D02*
X136751896Y-78529166D01*
X136751896Y-78529166D02*
X136704277Y-78505356D01*
X136704277Y-78505356D02*
X136609039Y-78505356D01*
X136609039Y-78505356D02*
X136561420Y-78529166D01*
X136561420Y-78529166D02*
X136537610Y-78552975D01*
X136537610Y-78552975D02*
X136513801Y-78600594D01*
X136513801Y-78600594D02*
X136513801Y-78719642D01*
X136513801Y-78719642D02*
X136537610Y-78767261D01*
X136537610Y-78767261D02*
X136561420Y-78791070D01*
X136561420Y-78791070D02*
X136609039Y-78814880D01*
X136609039Y-78814880D02*
X136704277Y-78814880D01*
X136704277Y-78814880D02*
X136751896Y-78791070D01*
X136751896Y-78791070D02*
X136775705Y-78767261D01*
X136775705Y-78767261D02*
X136799515Y-78719642D01*
X142524809Y-86283333D02*
X142286714Y-86449999D01*
X142524809Y-86569047D02*
X142024809Y-86569047D01*
X142024809Y-86569047D02*
X142024809Y-86378571D01*
X142024809Y-86378571D02*
X142048619Y-86330952D01*
X142048619Y-86330952D02*
X142072428Y-86307142D01*
X142072428Y-86307142D02*
X142120047Y-86283333D01*
X142120047Y-86283333D02*
X142191476Y-86283333D01*
X142191476Y-86283333D02*
X142239095Y-86307142D01*
X142239095Y-86307142D02*
X142262904Y-86330952D01*
X142262904Y-86330952D02*
X142286714Y-86378571D01*
X142286714Y-86378571D02*
X142286714Y-86569047D01*
X142524809Y-85807142D02*
X142524809Y-86092856D01*
X142524809Y-85949999D02*
X142024809Y-85949999D01*
X142024809Y-85949999D02*
X142096238Y-85997618D01*
X142096238Y-85997618D02*
X142143857Y-86045237D01*
X142143857Y-86045237D02*
X142167666Y-86092856D01*
X133837414Y-109329410D02*
X133813605Y-109353220D01*
X133813605Y-109353220D02*
X133742176Y-109377029D01*
X133742176Y-109377029D02*
X133694557Y-109377029D01*
X133694557Y-109377029D02*
X133623129Y-109353220D01*
X133623129Y-109353220D02*
X133575510Y-109305600D01*
X133575510Y-109305600D02*
X133551700Y-109257981D01*
X133551700Y-109257981D02*
X133527891Y-109162743D01*
X133527891Y-109162743D02*
X133527891Y-109091315D01*
X133527891Y-109091315D02*
X133551700Y-108996077D01*
X133551700Y-108996077D02*
X133575510Y-108948458D01*
X133575510Y-108948458D02*
X133623129Y-108900839D01*
X133623129Y-108900839D02*
X133694557Y-108877029D01*
X133694557Y-108877029D02*
X133742176Y-108877029D01*
X133742176Y-108877029D02*
X133813605Y-108900839D01*
X133813605Y-108900839D02*
X133837414Y-108924648D01*
X134004081Y-108877029D02*
X134313605Y-108877029D01*
X134313605Y-108877029D02*
X134146938Y-109067505D01*
X134146938Y-109067505D02*
X134218367Y-109067505D01*
X134218367Y-109067505D02*
X134265986Y-109091315D01*
X134265986Y-109091315D02*
X134289795Y-109115124D01*
X134289795Y-109115124D02*
X134313605Y-109162743D01*
X134313605Y-109162743D02*
X134313605Y-109281791D01*
X134313605Y-109281791D02*
X134289795Y-109329410D01*
X134289795Y-109329410D02*
X134265986Y-109353220D01*
X134265986Y-109353220D02*
X134218367Y-109377029D01*
X134218367Y-109377029D02*
X134075510Y-109377029D01*
X134075510Y-109377029D02*
X134027891Y-109353220D01*
X134027891Y-109353220D02*
X134004081Y-109329410D01*
X141114809Y-102158729D02*
X140876714Y-102325395D01*
X141114809Y-102444443D02*
X140614809Y-102444443D01*
X140614809Y-102444443D02*
X140614809Y-102253967D01*
X140614809Y-102253967D02*
X140638619Y-102206348D01*
X140638619Y-102206348D02*
X140662428Y-102182538D01*
X140662428Y-102182538D02*
X140710047Y-102158729D01*
X140710047Y-102158729D02*
X140781476Y-102158729D01*
X140781476Y-102158729D02*
X140829095Y-102182538D01*
X140829095Y-102182538D02*
X140852904Y-102206348D01*
X140852904Y-102206348D02*
X140876714Y-102253967D01*
X140876714Y-102253967D02*
X140876714Y-102444443D01*
X141114809Y-101682538D02*
X141114809Y-101968252D01*
X141114809Y-101825395D02*
X140614809Y-101825395D01*
X140614809Y-101825395D02*
X140686238Y-101873014D01*
X140686238Y-101873014D02*
X140733857Y-101920633D01*
X140733857Y-101920633D02*
X140757666Y-101968252D01*
X140781476Y-101253967D02*
X141114809Y-101253967D01*
X140591000Y-101373015D02*
X140948142Y-101492062D01*
X140948142Y-101492062D02*
X140948142Y-101182539D01*
X129284468Y-75768916D02*
X129260659Y-75792726D01*
X129260659Y-75792726D02*
X129189230Y-75816535D01*
X129189230Y-75816535D02*
X129141611Y-75816535D01*
X129141611Y-75816535D02*
X129070183Y-75792726D01*
X129070183Y-75792726D02*
X129022564Y-75745106D01*
X129022564Y-75745106D02*
X128998754Y-75697487D01*
X128998754Y-75697487D02*
X128974945Y-75602249D01*
X128974945Y-75602249D02*
X128974945Y-75530821D01*
X128974945Y-75530821D02*
X128998754Y-75435583D01*
X128998754Y-75435583D02*
X129022564Y-75387964D01*
X129022564Y-75387964D02*
X129070183Y-75340345D01*
X129070183Y-75340345D02*
X129141611Y-75316535D01*
X129141611Y-75316535D02*
X129189230Y-75316535D01*
X129189230Y-75316535D02*
X129260659Y-75340345D01*
X129260659Y-75340345D02*
X129284468Y-75364154D01*
X129451135Y-75316535D02*
X129784468Y-75316535D01*
X129784468Y-75316535D02*
X129570183Y-75816535D01*
X128351339Y-110088958D02*
X128351339Y-109588958D01*
X128351339Y-109588958D02*
X128470387Y-109588958D01*
X128470387Y-109588958D02*
X128541815Y-109612768D01*
X128541815Y-109612768D02*
X128589434Y-109660387D01*
X128589434Y-109660387D02*
X128613244Y-109708006D01*
X128613244Y-109708006D02*
X128637053Y-109803244D01*
X128637053Y-109803244D02*
X128637053Y-109874672D01*
X128637053Y-109874672D02*
X128613244Y-109969910D01*
X128613244Y-109969910D02*
X128589434Y-110017529D01*
X128589434Y-110017529D02*
X128541815Y-110065149D01*
X128541815Y-110065149D02*
X128470387Y-110088958D01*
X128470387Y-110088958D02*
X128351339Y-110088958D01*
X129113244Y-110088958D02*
X128827530Y-110088958D01*
X128970387Y-110088958D02*
X128970387Y-109588958D01*
X128970387Y-109588958D02*
X128922768Y-109660387D01*
X128922768Y-109660387D02*
X128875149Y-109708006D01*
X128875149Y-109708006D02*
X128827530Y-109731815D01*
X142477190Y-84083333D02*
X142501000Y-84107142D01*
X142501000Y-84107142D02*
X142524809Y-84178571D01*
X142524809Y-84178571D02*
X142524809Y-84226190D01*
X142524809Y-84226190D02*
X142501000Y-84297618D01*
X142501000Y-84297618D02*
X142453380Y-84345237D01*
X142453380Y-84345237D02*
X142405761Y-84369047D01*
X142405761Y-84369047D02*
X142310523Y-84392856D01*
X142310523Y-84392856D02*
X142239095Y-84392856D01*
X142239095Y-84392856D02*
X142143857Y-84369047D01*
X142143857Y-84369047D02*
X142096238Y-84345237D01*
X142096238Y-84345237D02*
X142048619Y-84297618D01*
X142048619Y-84297618D02*
X142024809Y-84226190D01*
X142024809Y-84226190D02*
X142024809Y-84178571D01*
X142024809Y-84178571D02*
X142048619Y-84107142D01*
X142048619Y-84107142D02*
X142072428Y-84083333D01*
X142524809Y-83607142D02*
X142524809Y-83892856D01*
X142524809Y-83749999D02*
X142024809Y-83749999D01*
X142024809Y-83749999D02*
X142096238Y-83797618D01*
X142096238Y-83797618D02*
X142143857Y-83845237D01*
X142143857Y-83845237D02*
X142167666Y-83892856D01*
X149924809Y-98021428D02*
X149686714Y-98188094D01*
X149924809Y-98307142D02*
X149424809Y-98307142D01*
X149424809Y-98307142D02*
X149424809Y-98116666D01*
X149424809Y-98116666D02*
X149448619Y-98069047D01*
X149448619Y-98069047D02*
X149472428Y-98045237D01*
X149472428Y-98045237D02*
X149520047Y-98021428D01*
X149520047Y-98021428D02*
X149591476Y-98021428D01*
X149591476Y-98021428D02*
X149639095Y-98045237D01*
X149639095Y-98045237D02*
X149662904Y-98069047D01*
X149662904Y-98069047D02*
X149686714Y-98116666D01*
X149686714Y-98116666D02*
X149686714Y-98307142D01*
X149924809Y-97545237D02*
X149924809Y-97830951D01*
X149924809Y-97688094D02*
X149424809Y-97688094D01*
X149424809Y-97688094D02*
X149496238Y-97735713D01*
X149496238Y-97735713D02*
X149543857Y-97783332D01*
X149543857Y-97783332D02*
X149567666Y-97830951D01*
X149424809Y-97378571D02*
X149424809Y-97069047D01*
X149424809Y-97069047D02*
X149615285Y-97235714D01*
X149615285Y-97235714D02*
X149615285Y-97164285D01*
X149615285Y-97164285D02*
X149639095Y-97116666D01*
X149639095Y-97116666D02*
X149662904Y-97092857D01*
X149662904Y-97092857D02*
X149710523Y-97069047D01*
X149710523Y-97069047D02*
X149829571Y-97069047D01*
X149829571Y-97069047D02*
X149877190Y-97092857D01*
X149877190Y-97092857D02*
X149901000Y-97116666D01*
X149901000Y-97116666D02*
X149924809Y-97164285D01*
X149924809Y-97164285D02*
X149924809Y-97307142D01*
X149924809Y-97307142D02*
X149901000Y-97354761D01*
X149901000Y-97354761D02*
X149877190Y-97378571D01*
X151853720Y-83988958D02*
X151853720Y-84346101D01*
X151853720Y-84346101D02*
X151829911Y-84417529D01*
X151829911Y-84417529D02*
X151782292Y-84465149D01*
X151782292Y-84465149D02*
X151710863Y-84488958D01*
X151710863Y-84488958D02*
X151663244Y-84488958D01*
X152068006Y-84036577D02*
X152091815Y-84012768D01*
X152091815Y-84012768D02*
X152139434Y-83988958D01*
X152139434Y-83988958D02*
X152258482Y-83988958D01*
X152258482Y-83988958D02*
X152306101Y-84012768D01*
X152306101Y-84012768D02*
X152329910Y-84036577D01*
X152329910Y-84036577D02*
X152353720Y-84084196D01*
X152353720Y-84084196D02*
X152353720Y-84131815D01*
X152353720Y-84131815D02*
X152329910Y-84203244D01*
X152329910Y-84203244D02*
X152044196Y-84488958D01*
X152044196Y-84488958D02*
X152353720Y-84488958D01*
X138169434Y-110210660D02*
X138169434Y-110615422D01*
X138169434Y-110615422D02*
X138193244Y-110663041D01*
X138193244Y-110663041D02*
X138217053Y-110686851D01*
X138217053Y-110686851D02*
X138264672Y-110710660D01*
X138264672Y-110710660D02*
X138359910Y-110710660D01*
X138359910Y-110710660D02*
X138407529Y-110686851D01*
X138407529Y-110686851D02*
X138431339Y-110663041D01*
X138431339Y-110663041D02*
X138455148Y-110615422D01*
X138455148Y-110615422D02*
X138455148Y-110210660D01*
X138931339Y-110210660D02*
X138693244Y-110210660D01*
X138693244Y-110210660D02*
X138669435Y-110448755D01*
X138669435Y-110448755D02*
X138693244Y-110424946D01*
X138693244Y-110424946D02*
X138740863Y-110401136D01*
X138740863Y-110401136D02*
X138859911Y-110401136D01*
X138859911Y-110401136D02*
X138907530Y-110424946D01*
X138907530Y-110424946D02*
X138931339Y-110448755D01*
X138931339Y-110448755D02*
X138955149Y-110496374D01*
X138955149Y-110496374D02*
X138955149Y-110615422D01*
X138955149Y-110615422D02*
X138931339Y-110663041D01*
X138931339Y-110663041D02*
X138907530Y-110686851D01*
X138907530Y-110686851D02*
X138859911Y-110710660D01*
X138859911Y-110710660D02*
X138740863Y-110710660D01*
X138740863Y-110710660D02*
X138693244Y-110686851D01*
X138693244Y-110686851D02*
X138669435Y-110663041D01*
X147324809Y-90207933D02*
X147729571Y-90207933D01*
X147729571Y-90207933D02*
X147777190Y-90184123D01*
X147777190Y-90184123D02*
X147801000Y-90160314D01*
X147801000Y-90160314D02*
X147824809Y-90112695D01*
X147824809Y-90112695D02*
X147824809Y-90017457D01*
X147824809Y-90017457D02*
X147801000Y-89969838D01*
X147801000Y-89969838D02*
X147777190Y-89946028D01*
X147777190Y-89946028D02*
X147729571Y-89922219D01*
X147729571Y-89922219D02*
X147324809Y-89922219D01*
X147324809Y-89731742D02*
X147324809Y-89398409D01*
X147324809Y-89398409D02*
X147824809Y-89612694D01*
X133338860Y-102086649D02*
X133315051Y-102110459D01*
X133315051Y-102110459D02*
X133243622Y-102134268D01*
X133243622Y-102134268D02*
X133196003Y-102134268D01*
X133196003Y-102134268D02*
X133124575Y-102110459D01*
X133124575Y-102110459D02*
X133076956Y-102062839D01*
X133076956Y-102062839D02*
X133053146Y-102015220D01*
X133053146Y-102015220D02*
X133029337Y-101919982D01*
X133029337Y-101919982D02*
X133029337Y-101848554D01*
X133029337Y-101848554D02*
X133053146Y-101753316D01*
X133053146Y-101753316D02*
X133076956Y-101705697D01*
X133076956Y-101705697D02*
X133124575Y-101658078D01*
X133124575Y-101658078D02*
X133196003Y-101634268D01*
X133196003Y-101634268D02*
X133243622Y-101634268D01*
X133243622Y-101634268D02*
X133315051Y-101658078D01*
X133315051Y-101658078D02*
X133338860Y-101681887D01*
X133767432Y-101800935D02*
X133767432Y-102134268D01*
X133648384Y-101610459D02*
X133529337Y-101967601D01*
X133529337Y-101967601D02*
X133838860Y-101967601D01*
X142894987Y-109383870D02*
X142728321Y-109145775D01*
X142609273Y-109383870D02*
X142609273Y-108883870D01*
X142609273Y-108883870D02*
X142799749Y-108883870D01*
X142799749Y-108883870D02*
X142847368Y-108907680D01*
X142847368Y-108907680D02*
X142871178Y-108931489D01*
X142871178Y-108931489D02*
X142894987Y-108979108D01*
X142894987Y-108979108D02*
X142894987Y-109050537D01*
X142894987Y-109050537D02*
X142871178Y-109098156D01*
X142871178Y-109098156D02*
X142847368Y-109121965D01*
X142847368Y-109121965D02*
X142799749Y-109145775D01*
X142799749Y-109145775D02*
X142609273Y-109145775D01*
X143061654Y-108883870D02*
X143371178Y-108883870D01*
X143371178Y-108883870D02*
X143204511Y-109074346D01*
X143204511Y-109074346D02*
X143275940Y-109074346D01*
X143275940Y-109074346D02*
X143323559Y-109098156D01*
X143323559Y-109098156D02*
X143347368Y-109121965D01*
X143347368Y-109121965D02*
X143371178Y-109169584D01*
X143371178Y-109169584D02*
X143371178Y-109288632D01*
X143371178Y-109288632D02*
X143347368Y-109336251D01*
X143347368Y-109336251D02*
X143323559Y-109360061D01*
X143323559Y-109360061D02*
X143275940Y-109383870D01*
X143275940Y-109383870D02*
X143133083Y-109383870D01*
X143133083Y-109383870D02*
X143085464Y-109360061D01*
X143085464Y-109360061D02*
X143061654Y-109336251D01*
X148235714Y-83424809D02*
X148069048Y-83186714D01*
X147950000Y-83424809D02*
X147950000Y-82924809D01*
X147950000Y-82924809D02*
X148140476Y-82924809D01*
X148140476Y-82924809D02*
X148188095Y-82948619D01*
X148188095Y-82948619D02*
X148211905Y-82972428D01*
X148211905Y-82972428D02*
X148235714Y-83020047D01*
X148235714Y-83020047D02*
X148235714Y-83091476D01*
X148235714Y-83091476D02*
X148211905Y-83139095D01*
X148211905Y-83139095D02*
X148188095Y-83162904D01*
X148188095Y-83162904D02*
X148140476Y-83186714D01*
X148140476Y-83186714D02*
X147950000Y-83186714D01*
X148450000Y-83162904D02*
X148616667Y-83162904D01*
X148688095Y-83424809D02*
X148450000Y-83424809D01*
X148450000Y-83424809D02*
X148450000Y-82924809D01*
X148450000Y-82924809D02*
X148688095Y-82924809D01*
X148878572Y-83401000D02*
X148950000Y-83424809D01*
X148950000Y-83424809D02*
X149069048Y-83424809D01*
X149069048Y-83424809D02*
X149116667Y-83401000D01*
X149116667Y-83401000D02*
X149140476Y-83377190D01*
X149140476Y-83377190D02*
X149164286Y-83329571D01*
X149164286Y-83329571D02*
X149164286Y-83281952D01*
X149164286Y-83281952D02*
X149140476Y-83234333D01*
X149140476Y-83234333D02*
X149116667Y-83210523D01*
X149116667Y-83210523D02*
X149069048Y-83186714D01*
X149069048Y-83186714D02*
X148973810Y-83162904D01*
X148973810Y-83162904D02*
X148926191Y-83139095D01*
X148926191Y-83139095D02*
X148902381Y-83115285D01*
X148902381Y-83115285D02*
X148878572Y-83067666D01*
X148878572Y-83067666D02*
X148878572Y-83020047D01*
X148878572Y-83020047D02*
X148902381Y-82972428D01*
X148902381Y-82972428D02*
X148926191Y-82948619D01*
X148926191Y-82948619D02*
X148973810Y-82924809D01*
X148973810Y-82924809D02*
X149092857Y-82924809D01*
X149092857Y-82924809D02*
X149164286Y-82948619D01*
X149378571Y-83162904D02*
X149545238Y-83162904D01*
X149616666Y-83424809D02*
X149378571Y-83424809D01*
X149378571Y-83424809D02*
X149378571Y-82924809D01*
X149378571Y-82924809D02*
X149616666Y-82924809D01*
X149759524Y-82924809D02*
X150045238Y-82924809D01*
X149902381Y-83424809D02*
X149902381Y-82924809D01*
X150473809Y-83424809D02*
X150188095Y-83424809D01*
X150330952Y-83424809D02*
X150330952Y-82924809D01*
X150330952Y-82924809D02*
X150283333Y-82996238D01*
X150283333Y-82996238D02*
X150235714Y-83043857D01*
X150235714Y-83043857D02*
X150188095Y-83067666D01*
X134152666Y-79027473D02*
X133986000Y-78789378D01*
X133866952Y-79027473D02*
X133866952Y-78527473D01*
X133866952Y-78527473D02*
X134057428Y-78527473D01*
X134057428Y-78527473D02*
X134105047Y-78551283D01*
X134105047Y-78551283D02*
X134128857Y-78575092D01*
X134128857Y-78575092D02*
X134152666Y-78622711D01*
X134152666Y-78622711D02*
X134152666Y-78694140D01*
X134152666Y-78694140D02*
X134128857Y-78741759D01*
X134128857Y-78741759D02*
X134105047Y-78765568D01*
X134105047Y-78765568D02*
X134057428Y-78789378D01*
X134057428Y-78789378D02*
X133866952Y-78789378D01*
X134628857Y-79027473D02*
X134343143Y-79027473D01*
X134486000Y-79027473D02*
X134486000Y-78527473D01*
X134486000Y-78527473D02*
X134438381Y-78598902D01*
X134438381Y-78598902D02*
X134390762Y-78646521D01*
X134390762Y-78646521D02*
X134343143Y-78670330D01*
X134938380Y-78527473D02*
X134985999Y-78527473D01*
X134985999Y-78527473D02*
X135033618Y-78551283D01*
X135033618Y-78551283D02*
X135057428Y-78575092D01*
X135057428Y-78575092D02*
X135081237Y-78622711D01*
X135081237Y-78622711D02*
X135105047Y-78717949D01*
X135105047Y-78717949D02*
X135105047Y-78836997D01*
X135105047Y-78836997D02*
X135081237Y-78932235D01*
X135081237Y-78932235D02*
X135057428Y-78979854D01*
X135057428Y-78979854D02*
X135033618Y-79003664D01*
X135033618Y-79003664D02*
X134985999Y-79027473D01*
X134985999Y-79027473D02*
X134938380Y-79027473D01*
X134938380Y-79027473D02*
X134890761Y-79003664D01*
X134890761Y-79003664D02*
X134866952Y-78979854D01*
X134866952Y-78979854D02*
X134843142Y-78932235D01*
X134843142Y-78932235D02*
X134819333Y-78836997D01*
X134819333Y-78836997D02*
X134819333Y-78717949D01*
X134819333Y-78717949D02*
X134843142Y-78622711D01*
X134843142Y-78622711D02*
X134866952Y-78575092D01*
X134866952Y-78575092D02*
X134890761Y-78551283D01*
X134890761Y-78551283D02*
X134938380Y-78527473D01*
X129301792Y-78985345D02*
X129277983Y-79009155D01*
X129277983Y-79009155D02*
X129206554Y-79032964D01*
X129206554Y-79032964D02*
X129158935Y-79032964D01*
X129158935Y-79032964D02*
X129087507Y-79009155D01*
X129087507Y-79009155D02*
X129039888Y-78961535D01*
X129039888Y-78961535D02*
X129016078Y-78913916D01*
X129016078Y-78913916D02*
X128992269Y-78818678D01*
X128992269Y-78818678D02*
X128992269Y-78747250D01*
X128992269Y-78747250D02*
X129016078Y-78652012D01*
X129016078Y-78652012D02*
X129039888Y-78604393D01*
X129039888Y-78604393D02*
X129087507Y-78556774D01*
X129087507Y-78556774D02*
X129158935Y-78532964D01*
X129158935Y-78532964D02*
X129206554Y-78532964D01*
X129206554Y-78532964D02*
X129277983Y-78556774D01*
X129277983Y-78556774D02*
X129301792Y-78580583D01*
X129730364Y-78532964D02*
X129635126Y-78532964D01*
X129635126Y-78532964D02*
X129587507Y-78556774D01*
X129587507Y-78556774D02*
X129563697Y-78580583D01*
X129563697Y-78580583D02*
X129516078Y-78652012D01*
X129516078Y-78652012D02*
X129492269Y-78747250D01*
X129492269Y-78747250D02*
X129492269Y-78937726D01*
X129492269Y-78937726D02*
X129516078Y-78985345D01*
X129516078Y-78985345D02*
X129539888Y-79009155D01*
X129539888Y-79009155D02*
X129587507Y-79032964D01*
X129587507Y-79032964D02*
X129682745Y-79032964D01*
X129682745Y-79032964D02*
X129730364Y-79009155D01*
X129730364Y-79009155D02*
X129754173Y-78985345D01*
X129754173Y-78985345D02*
X129777983Y-78937726D01*
X129777983Y-78937726D02*
X129777983Y-78818678D01*
X129777983Y-78818678D02*
X129754173Y-78771059D01*
X129754173Y-78771059D02*
X129730364Y-78747250D01*
X129730364Y-78747250D02*
X129682745Y-78723440D01*
X129682745Y-78723440D02*
X129587507Y-78723440D01*
X129587507Y-78723440D02*
X129539888Y-78747250D01*
X129539888Y-78747250D02*
X129516078Y-78771059D01*
X129516078Y-78771059D02*
X129492269Y-78818678D01*
X138477190Y-95821428D02*
X138501000Y-95845237D01*
X138501000Y-95845237D02*
X138524809Y-95916666D01*
X138524809Y-95916666D02*
X138524809Y-95964285D01*
X138524809Y-95964285D02*
X138501000Y-96035713D01*
X138501000Y-96035713D02*
X138453380Y-96083332D01*
X138453380Y-96083332D02*
X138405761Y-96107142D01*
X138405761Y-96107142D02*
X138310523Y-96130951D01*
X138310523Y-96130951D02*
X138239095Y-96130951D01*
X138239095Y-96130951D02*
X138143857Y-96107142D01*
X138143857Y-96107142D02*
X138096238Y-96083332D01*
X138096238Y-96083332D02*
X138048619Y-96035713D01*
X138048619Y-96035713D02*
X138024809Y-95964285D01*
X138024809Y-95964285D02*
X138024809Y-95916666D01*
X138024809Y-95916666D02*
X138048619Y-95845237D01*
X138048619Y-95845237D02*
X138072428Y-95821428D01*
X138524809Y-95345237D02*
X138524809Y-95630951D01*
X138524809Y-95488094D02*
X138024809Y-95488094D01*
X138024809Y-95488094D02*
X138096238Y-95535713D01*
X138096238Y-95535713D02*
X138143857Y-95583332D01*
X138143857Y-95583332D02*
X138167666Y-95630951D01*
X138072428Y-95154761D02*
X138048619Y-95130952D01*
X138048619Y-95130952D02*
X138024809Y-95083333D01*
X138024809Y-95083333D02*
X138024809Y-94964285D01*
X138024809Y-94964285D02*
X138048619Y-94916666D01*
X138048619Y-94916666D02*
X138072428Y-94892857D01*
X138072428Y-94892857D02*
X138120047Y-94869047D01*
X138120047Y-94869047D02*
X138167666Y-94869047D01*
X138167666Y-94869047D02*
X138239095Y-94892857D01*
X138239095Y-94892857D02*
X138524809Y-95178571D01*
X138524809Y-95178571D02*
X138524809Y-94869047D01*
X128686119Y-91241584D02*
X128686119Y-91646346D01*
X128686119Y-91646346D02*
X128709929Y-91693965D01*
X128709929Y-91693965D02*
X128733738Y-91717775D01*
X128733738Y-91717775D02*
X128781357Y-91741584D01*
X128781357Y-91741584D02*
X128876595Y-91741584D01*
X128876595Y-91741584D02*
X128924214Y-91717775D01*
X128924214Y-91717775D02*
X128948024Y-91693965D01*
X128948024Y-91693965D02*
X128971833Y-91646346D01*
X128971833Y-91646346D02*
X128971833Y-91241584D01*
X129162310Y-91241584D02*
X129471834Y-91241584D01*
X129471834Y-91241584D02*
X129305167Y-91432060D01*
X129305167Y-91432060D02*
X129376596Y-91432060D01*
X129376596Y-91432060D02*
X129424215Y-91455870D01*
X129424215Y-91455870D02*
X129448024Y-91479679D01*
X129448024Y-91479679D02*
X129471834Y-91527298D01*
X129471834Y-91527298D02*
X129471834Y-91646346D01*
X129471834Y-91646346D02*
X129448024Y-91693965D01*
X129448024Y-91693965D02*
X129424215Y-91717775D01*
X129424215Y-91717775D02*
X129376596Y-91741584D01*
X129376596Y-91741584D02*
X129233739Y-91741584D01*
X129233739Y-91741584D02*
X129186120Y-91717775D01*
X129186120Y-91717775D02*
X129162310Y-91693965D01*
X137283974Y-75666032D02*
X137117308Y-75427937D01*
X136998260Y-75666032D02*
X136998260Y-75166032D01*
X136998260Y-75166032D02*
X137188736Y-75166032D01*
X137188736Y-75166032D02*
X137236355Y-75189842D01*
X137236355Y-75189842D02*
X137260165Y-75213651D01*
X137260165Y-75213651D02*
X137283974Y-75261270D01*
X137283974Y-75261270D02*
X137283974Y-75332699D01*
X137283974Y-75332699D02*
X137260165Y-75380318D01*
X137260165Y-75380318D02*
X137236355Y-75404127D01*
X137236355Y-75404127D02*
X137188736Y-75427937D01*
X137188736Y-75427937D02*
X136998260Y-75427937D01*
X137712546Y-75166032D02*
X137617308Y-75166032D01*
X137617308Y-75166032D02*
X137569689Y-75189842D01*
X137569689Y-75189842D02*
X137545879Y-75213651D01*
X137545879Y-75213651D02*
X137498260Y-75285080D01*
X137498260Y-75285080D02*
X137474451Y-75380318D01*
X137474451Y-75380318D02*
X137474451Y-75570794D01*
X137474451Y-75570794D02*
X137498260Y-75618413D01*
X137498260Y-75618413D02*
X137522070Y-75642223D01*
X137522070Y-75642223D02*
X137569689Y-75666032D01*
X137569689Y-75666032D02*
X137664927Y-75666032D01*
X137664927Y-75666032D02*
X137712546Y-75642223D01*
X137712546Y-75642223D02*
X137736355Y-75618413D01*
X137736355Y-75618413D02*
X137760165Y-75570794D01*
X137760165Y-75570794D02*
X137760165Y-75451746D01*
X137760165Y-75451746D02*
X137736355Y-75404127D01*
X137736355Y-75404127D02*
X137712546Y-75380318D01*
X137712546Y-75380318D02*
X137664927Y-75356508D01*
X137664927Y-75356508D02*
X137569689Y-75356508D01*
X137569689Y-75356508D02*
X137522070Y-75380318D01*
X137522070Y-75380318D02*
X137498260Y-75404127D01*
X137498260Y-75404127D02*
X137474451Y-75451746D01*
X133505590Y-104703978D02*
X133505590Y-105108740D01*
X133505590Y-105108740D02*
X133529400Y-105156359D01*
X133529400Y-105156359D02*
X133553209Y-105180169D01*
X133553209Y-105180169D02*
X133600828Y-105203978D01*
X133600828Y-105203978D02*
X133696066Y-105203978D01*
X133696066Y-105203978D02*
X133743685Y-105180169D01*
X133743685Y-105180169D02*
X133767495Y-105156359D01*
X133767495Y-105156359D02*
X133791304Y-105108740D01*
X133791304Y-105108740D02*
X133791304Y-104703978D01*
X134005591Y-104751597D02*
X134029400Y-104727788D01*
X134029400Y-104727788D02*
X134077019Y-104703978D01*
X134077019Y-104703978D02*
X134196067Y-104703978D01*
X134196067Y-104703978D02*
X134243686Y-104727788D01*
X134243686Y-104727788D02*
X134267495Y-104751597D01*
X134267495Y-104751597D02*
X134291305Y-104799216D01*
X134291305Y-104799216D02*
X134291305Y-104846835D01*
X134291305Y-104846835D02*
X134267495Y-104918264D01*
X134267495Y-104918264D02*
X133981781Y-105203978D01*
X133981781Y-105203978D02*
X134291305Y-105203978D01*
X131735887Y-78962057D02*
X131712078Y-78985867D01*
X131712078Y-78985867D02*
X131640649Y-79009676D01*
X131640649Y-79009676D02*
X131593030Y-79009676D01*
X131593030Y-79009676D02*
X131521602Y-78985867D01*
X131521602Y-78985867D02*
X131473983Y-78938247D01*
X131473983Y-78938247D02*
X131450173Y-78890628D01*
X131450173Y-78890628D02*
X131426364Y-78795390D01*
X131426364Y-78795390D02*
X131426364Y-78723962D01*
X131426364Y-78723962D02*
X131450173Y-78628724D01*
X131450173Y-78628724D02*
X131473983Y-78581105D01*
X131473983Y-78581105D02*
X131521602Y-78533486D01*
X131521602Y-78533486D02*
X131593030Y-78509676D01*
X131593030Y-78509676D02*
X131640649Y-78509676D01*
X131640649Y-78509676D02*
X131712078Y-78533486D01*
X131712078Y-78533486D02*
X131735887Y-78557295D01*
X131926364Y-78557295D02*
X131950173Y-78533486D01*
X131950173Y-78533486D02*
X131997792Y-78509676D01*
X131997792Y-78509676D02*
X132116840Y-78509676D01*
X132116840Y-78509676D02*
X132164459Y-78533486D01*
X132164459Y-78533486D02*
X132188268Y-78557295D01*
X132188268Y-78557295D02*
X132212078Y-78604914D01*
X132212078Y-78604914D02*
X132212078Y-78652533D01*
X132212078Y-78652533D02*
X132188268Y-78723962D01*
X132188268Y-78723962D02*
X131902554Y-79009676D01*
X131902554Y-79009676D02*
X132212078Y-79009676D01*
X128719625Y-104988958D02*
X128552959Y-104750863D01*
X128433911Y-104988958D02*
X128433911Y-104488958D01*
X128433911Y-104488958D02*
X128624387Y-104488958D01*
X128624387Y-104488958D02*
X128672006Y-104512768D01*
X128672006Y-104512768D02*
X128695816Y-104536577D01*
X128695816Y-104536577D02*
X128719625Y-104584196D01*
X128719625Y-104584196D02*
X128719625Y-104655625D01*
X128719625Y-104655625D02*
X128695816Y-104703244D01*
X128695816Y-104703244D02*
X128672006Y-104727053D01*
X128672006Y-104727053D02*
X128624387Y-104750863D01*
X128624387Y-104750863D02*
X128433911Y-104750863D01*
X129172006Y-104488958D02*
X128933911Y-104488958D01*
X128933911Y-104488958D02*
X128910102Y-104727053D01*
X128910102Y-104727053D02*
X128933911Y-104703244D01*
X128933911Y-104703244D02*
X128981530Y-104679434D01*
X128981530Y-104679434D02*
X129100578Y-104679434D01*
X129100578Y-104679434D02*
X129148197Y-104703244D01*
X129148197Y-104703244D02*
X129172006Y-104727053D01*
X129172006Y-104727053D02*
X129195816Y-104774672D01*
X129195816Y-104774672D02*
X129195816Y-104893720D01*
X129195816Y-104893720D02*
X129172006Y-104941339D01*
X129172006Y-104941339D02*
X129148197Y-104965149D01*
X129148197Y-104965149D02*
X129100578Y-104988958D01*
X129100578Y-104988958D02*
X128981530Y-104988958D01*
X128981530Y-104988958D02*
X128933911Y-104965149D01*
X128933911Y-104965149D02*
X128910102Y-104941339D01*
X138521195Y-79065734D02*
X138354529Y-78827639D01*
X138235481Y-79065734D02*
X138235481Y-78565734D01*
X138235481Y-78565734D02*
X138425957Y-78565734D01*
X138425957Y-78565734D02*
X138473576Y-78589544D01*
X138473576Y-78589544D02*
X138497386Y-78613353D01*
X138497386Y-78613353D02*
X138521195Y-78660972D01*
X138521195Y-78660972D02*
X138521195Y-78732401D01*
X138521195Y-78732401D02*
X138497386Y-78780020D01*
X138497386Y-78780020D02*
X138473576Y-78803829D01*
X138473576Y-78803829D02*
X138425957Y-78827639D01*
X138425957Y-78827639D02*
X138235481Y-78827639D01*
X138711672Y-78613353D02*
X138735481Y-78589544D01*
X138735481Y-78589544D02*
X138783100Y-78565734D01*
X138783100Y-78565734D02*
X138902148Y-78565734D01*
X138902148Y-78565734D02*
X138949767Y-78589544D01*
X138949767Y-78589544D02*
X138973576Y-78613353D01*
X138973576Y-78613353D02*
X138997386Y-78660972D01*
X138997386Y-78660972D02*
X138997386Y-78708591D01*
X138997386Y-78708591D02*
X138973576Y-78780020D01*
X138973576Y-78780020D02*
X138687862Y-79065734D01*
X138687862Y-79065734D02*
X138997386Y-79065734D01*
X129188974Y-72908002D02*
X129165165Y-72931812D01*
X129165165Y-72931812D02*
X129093736Y-72955621D01*
X129093736Y-72955621D02*
X129046117Y-72955621D01*
X129046117Y-72955621D02*
X128974689Y-72931812D01*
X128974689Y-72931812D02*
X128927070Y-72884192D01*
X128927070Y-72884192D02*
X128903260Y-72836573D01*
X128903260Y-72836573D02*
X128879451Y-72741335D01*
X128879451Y-72741335D02*
X128879451Y-72669907D01*
X128879451Y-72669907D02*
X128903260Y-72574669D01*
X128903260Y-72574669D02*
X128927070Y-72527050D01*
X128927070Y-72527050D02*
X128974689Y-72479431D01*
X128974689Y-72479431D02*
X129046117Y-72455621D01*
X129046117Y-72455621D02*
X129093736Y-72455621D01*
X129093736Y-72455621D02*
X129165165Y-72479431D01*
X129165165Y-72479431D02*
X129188974Y-72503240D01*
X129427070Y-72955621D02*
X129522308Y-72955621D01*
X129522308Y-72955621D02*
X129569927Y-72931812D01*
X129569927Y-72931812D02*
X129593736Y-72908002D01*
X129593736Y-72908002D02*
X129641355Y-72836573D01*
X129641355Y-72836573D02*
X129665165Y-72741335D01*
X129665165Y-72741335D02*
X129665165Y-72550859D01*
X129665165Y-72550859D02*
X129641355Y-72503240D01*
X129641355Y-72503240D02*
X129617546Y-72479431D01*
X129617546Y-72479431D02*
X129569927Y-72455621D01*
X129569927Y-72455621D02*
X129474689Y-72455621D01*
X129474689Y-72455621D02*
X129427070Y-72479431D01*
X129427070Y-72479431D02*
X129403260Y-72503240D01*
X129403260Y-72503240D02*
X129379451Y-72550859D01*
X129379451Y-72550859D02*
X129379451Y-72669907D01*
X129379451Y-72669907D02*
X129403260Y-72717526D01*
X129403260Y-72717526D02*
X129427070Y-72741335D01*
X129427070Y-72741335D02*
X129474689Y-72765145D01*
X129474689Y-72765145D02*
X129569927Y-72765145D01*
X129569927Y-72765145D02*
X129617546Y-72741335D01*
X129617546Y-72741335D02*
X129641355Y-72717526D01*
X129641355Y-72717526D02*
X129665165Y-72669907D01*
X141037190Y-106083928D02*
X141061000Y-106107737D01*
X141061000Y-106107737D02*
X141084809Y-106179166D01*
X141084809Y-106179166D02*
X141084809Y-106226785D01*
X141084809Y-106226785D02*
X141061000Y-106298213D01*
X141061000Y-106298213D02*
X141013380Y-106345832D01*
X141013380Y-106345832D02*
X140965761Y-106369642D01*
X140965761Y-106369642D02*
X140870523Y-106393451D01*
X140870523Y-106393451D02*
X140799095Y-106393451D01*
X140799095Y-106393451D02*
X140703857Y-106369642D01*
X140703857Y-106369642D02*
X140656238Y-106345832D01*
X140656238Y-106345832D02*
X140608619Y-106298213D01*
X140608619Y-106298213D02*
X140584809Y-106226785D01*
X140584809Y-106226785D02*
X140584809Y-106179166D01*
X140584809Y-106179166D02*
X140608619Y-106107737D01*
X140608619Y-106107737D02*
X140632428Y-106083928D01*
X141084809Y-105607737D02*
X141084809Y-105893451D01*
X141084809Y-105750594D02*
X140584809Y-105750594D01*
X140584809Y-105750594D02*
X140656238Y-105798213D01*
X140656238Y-105798213D02*
X140703857Y-105845832D01*
X140703857Y-105845832D02*
X140727666Y-105893451D01*
X140584809Y-105441071D02*
X140584809Y-105131547D01*
X140584809Y-105131547D02*
X140775285Y-105298214D01*
X140775285Y-105298214D02*
X140775285Y-105226785D01*
X140775285Y-105226785D02*
X140799095Y-105179166D01*
X140799095Y-105179166D02*
X140822904Y-105155357D01*
X140822904Y-105155357D02*
X140870523Y-105131547D01*
X140870523Y-105131547D02*
X140989571Y-105131547D01*
X140989571Y-105131547D02*
X141037190Y-105155357D01*
X141037190Y-105155357D02*
X141061000Y-105179166D01*
X141061000Y-105179166D02*
X141084809Y-105226785D01*
X141084809Y-105226785D02*
X141084809Y-105369642D01*
X141084809Y-105369642D02*
X141061000Y-105417261D01*
X141061000Y-105417261D02*
X141037190Y-105441071D01*
X136341244Y-109356506D02*
X136174578Y-109118411D01*
X136055530Y-109356506D02*
X136055530Y-108856506D01*
X136055530Y-108856506D02*
X136246006Y-108856506D01*
X136246006Y-108856506D02*
X136293625Y-108880316D01*
X136293625Y-108880316D02*
X136317435Y-108904125D01*
X136317435Y-108904125D02*
X136341244Y-108951744D01*
X136341244Y-108951744D02*
X136341244Y-109023173D01*
X136341244Y-109023173D02*
X136317435Y-109070792D01*
X136317435Y-109070792D02*
X136293625Y-109094601D01*
X136293625Y-109094601D02*
X136246006Y-109118411D01*
X136246006Y-109118411D02*
X136055530Y-109118411D01*
X136769816Y-109023173D02*
X136769816Y-109356506D01*
X136650768Y-108832697D02*
X136531721Y-109189839D01*
X136531721Y-109189839D02*
X136841244Y-109189839D01*
X141484809Y-98101428D02*
X141246714Y-98268094D01*
X141484809Y-98387142D02*
X140984809Y-98387142D01*
X140984809Y-98387142D02*
X140984809Y-98196666D01*
X140984809Y-98196666D02*
X141008619Y-98149047D01*
X141008619Y-98149047D02*
X141032428Y-98125237D01*
X141032428Y-98125237D02*
X141080047Y-98101428D01*
X141080047Y-98101428D02*
X141151476Y-98101428D01*
X141151476Y-98101428D02*
X141199095Y-98125237D01*
X141199095Y-98125237D02*
X141222904Y-98149047D01*
X141222904Y-98149047D02*
X141246714Y-98196666D01*
X141246714Y-98196666D02*
X141246714Y-98387142D01*
X141484809Y-97625237D02*
X141484809Y-97910951D01*
X141484809Y-97768094D02*
X140984809Y-97768094D01*
X140984809Y-97768094D02*
X141056238Y-97815713D01*
X141056238Y-97815713D02*
X141103857Y-97863332D01*
X141103857Y-97863332D02*
X141127666Y-97910951D01*
X140984809Y-97196666D02*
X140984809Y-97291904D01*
X140984809Y-97291904D02*
X141008619Y-97339523D01*
X141008619Y-97339523D02*
X141032428Y-97363333D01*
X141032428Y-97363333D02*
X141103857Y-97410952D01*
X141103857Y-97410952D02*
X141199095Y-97434761D01*
X141199095Y-97434761D02*
X141389571Y-97434761D01*
X141389571Y-97434761D02*
X141437190Y-97410952D01*
X141437190Y-97410952D02*
X141461000Y-97387142D01*
X141461000Y-97387142D02*
X141484809Y-97339523D01*
X141484809Y-97339523D02*
X141484809Y-97244285D01*
X141484809Y-97244285D02*
X141461000Y-97196666D01*
X141461000Y-97196666D02*
X141437190Y-97172857D01*
X141437190Y-97172857D02*
X141389571Y-97149047D01*
X141389571Y-97149047D02*
X141270523Y-97149047D01*
X141270523Y-97149047D02*
X141222904Y-97172857D01*
X141222904Y-97172857D02*
X141199095Y-97196666D01*
X141199095Y-97196666D02*
X141175285Y-97244285D01*
X141175285Y-97244285D02*
X141175285Y-97339523D01*
X141175285Y-97339523D02*
X141199095Y-97387142D01*
X141199095Y-97387142D02*
X141222904Y-97410952D01*
X141222904Y-97410952D02*
X141270523Y-97434761D01*
X145698958Y-78788958D02*
X145532292Y-78550863D01*
X145413244Y-78788958D02*
X145413244Y-78288958D01*
X145413244Y-78288958D02*
X145603720Y-78288958D01*
X145603720Y-78288958D02*
X145651339Y-78312768D01*
X145651339Y-78312768D02*
X145675149Y-78336577D01*
X145675149Y-78336577D02*
X145698958Y-78384196D01*
X145698958Y-78384196D02*
X145698958Y-78455625D01*
X145698958Y-78455625D02*
X145675149Y-78503244D01*
X145675149Y-78503244D02*
X145651339Y-78527053D01*
X145651339Y-78527053D02*
X145603720Y-78550863D01*
X145603720Y-78550863D02*
X145413244Y-78550863D01*
X146175149Y-78788958D02*
X145889435Y-78788958D01*
X146032292Y-78788958D02*
X146032292Y-78288958D01*
X146032292Y-78288958D02*
X145984673Y-78360387D01*
X145984673Y-78360387D02*
X145937054Y-78408006D01*
X145937054Y-78408006D02*
X145889435Y-78431815D01*
X146413244Y-78788958D02*
X146508482Y-78788958D01*
X146508482Y-78788958D02*
X146556101Y-78765149D01*
X146556101Y-78765149D02*
X146579910Y-78741339D01*
X146579910Y-78741339D02*
X146627529Y-78669910D01*
X146627529Y-78669910D02*
X146651339Y-78574672D01*
X146651339Y-78574672D02*
X146651339Y-78384196D01*
X146651339Y-78384196D02*
X146627529Y-78336577D01*
X146627529Y-78336577D02*
X146603720Y-78312768D01*
X146603720Y-78312768D02*
X146556101Y-78288958D01*
X146556101Y-78288958D02*
X146460863Y-78288958D01*
X146460863Y-78288958D02*
X146413244Y-78312768D01*
X146413244Y-78312768D02*
X146389434Y-78336577D01*
X146389434Y-78336577D02*
X146365625Y-78384196D01*
X146365625Y-78384196D02*
X146365625Y-78503244D01*
X146365625Y-78503244D02*
X146389434Y-78550863D01*
X146389434Y-78550863D02*
X146413244Y-78574672D01*
X146413244Y-78574672D02*
X146460863Y-78598482D01*
X146460863Y-78598482D02*
X146556101Y-78598482D01*
X146556101Y-78598482D02*
X146603720Y-78574672D01*
X146603720Y-78574672D02*
X146627529Y-78550863D01*
X146627529Y-78550863D02*
X146651339Y-78503244D01*
X148183333Y-71362904D02*
X148254761Y-71386714D01*
X148254761Y-71386714D02*
X148278571Y-71410523D01*
X148278571Y-71410523D02*
X148302380Y-71458142D01*
X148302380Y-71458142D02*
X148302380Y-71529571D01*
X148302380Y-71529571D02*
X148278571Y-71577190D01*
X148278571Y-71577190D02*
X148254761Y-71601000D01*
X148254761Y-71601000D02*
X148207142Y-71624809D01*
X148207142Y-71624809D02*
X148016666Y-71624809D01*
X148016666Y-71624809D02*
X148016666Y-71124809D01*
X148016666Y-71124809D02*
X148183333Y-71124809D01*
X148183333Y-71124809D02*
X148230952Y-71148619D01*
X148230952Y-71148619D02*
X148254761Y-71172428D01*
X148254761Y-71172428D02*
X148278571Y-71220047D01*
X148278571Y-71220047D02*
X148278571Y-71267666D01*
X148278571Y-71267666D02*
X148254761Y-71315285D01*
X148254761Y-71315285D02*
X148230952Y-71339095D01*
X148230952Y-71339095D02*
X148183333Y-71362904D01*
X148183333Y-71362904D02*
X148016666Y-71362904D01*
X148611904Y-71124809D02*
X148707142Y-71124809D01*
X148707142Y-71124809D02*
X148754761Y-71148619D01*
X148754761Y-71148619D02*
X148802380Y-71196238D01*
X148802380Y-71196238D02*
X148826190Y-71291476D01*
X148826190Y-71291476D02*
X148826190Y-71458142D01*
X148826190Y-71458142D02*
X148802380Y-71553380D01*
X148802380Y-71553380D02*
X148754761Y-71601000D01*
X148754761Y-71601000D02*
X148707142Y-71624809D01*
X148707142Y-71624809D02*
X148611904Y-71624809D01*
X148611904Y-71624809D02*
X148564285Y-71601000D01*
X148564285Y-71601000D02*
X148516666Y-71553380D01*
X148516666Y-71553380D02*
X148492857Y-71458142D01*
X148492857Y-71458142D02*
X148492857Y-71291476D01*
X148492857Y-71291476D02*
X148516666Y-71196238D01*
X148516666Y-71196238D02*
X148564285Y-71148619D01*
X148564285Y-71148619D02*
X148611904Y-71124809D01*
X149135714Y-71124809D02*
X149230952Y-71124809D01*
X149230952Y-71124809D02*
X149278571Y-71148619D01*
X149278571Y-71148619D02*
X149326190Y-71196238D01*
X149326190Y-71196238D02*
X149350000Y-71291476D01*
X149350000Y-71291476D02*
X149350000Y-71458142D01*
X149350000Y-71458142D02*
X149326190Y-71553380D01*
X149326190Y-71553380D02*
X149278571Y-71601000D01*
X149278571Y-71601000D02*
X149230952Y-71624809D01*
X149230952Y-71624809D02*
X149135714Y-71624809D01*
X149135714Y-71624809D02*
X149088095Y-71601000D01*
X149088095Y-71601000D02*
X149040476Y-71553380D01*
X149040476Y-71553380D02*
X149016667Y-71458142D01*
X149016667Y-71458142D02*
X149016667Y-71291476D01*
X149016667Y-71291476D02*
X149040476Y-71196238D01*
X149040476Y-71196238D02*
X149088095Y-71148619D01*
X149088095Y-71148619D02*
X149135714Y-71124809D01*
X149492858Y-71124809D02*
X149778572Y-71124809D01*
X149635715Y-71624809D02*
X149635715Y-71124809D01*
X150207143Y-71624809D02*
X149921429Y-71624809D01*
X150064286Y-71624809D02*
X150064286Y-71124809D01*
X150064286Y-71124809D02*
X150016667Y-71196238D01*
X150016667Y-71196238D02*
X149969048Y-71243857D01*
X149969048Y-71243857D02*
X149921429Y-71267666D01*
X140798958Y-78888958D02*
X140632292Y-78650863D01*
X140513244Y-78888958D02*
X140513244Y-78388958D01*
X140513244Y-78388958D02*
X140703720Y-78388958D01*
X140703720Y-78388958D02*
X140751339Y-78412768D01*
X140751339Y-78412768D02*
X140775149Y-78436577D01*
X140775149Y-78436577D02*
X140798958Y-78484196D01*
X140798958Y-78484196D02*
X140798958Y-78555625D01*
X140798958Y-78555625D02*
X140775149Y-78603244D01*
X140775149Y-78603244D02*
X140751339Y-78627053D01*
X140751339Y-78627053D02*
X140703720Y-78650863D01*
X140703720Y-78650863D02*
X140513244Y-78650863D01*
X141275149Y-78888958D02*
X140989435Y-78888958D01*
X141132292Y-78888958D02*
X141132292Y-78388958D01*
X141132292Y-78388958D02*
X141084673Y-78460387D01*
X141084673Y-78460387D02*
X141037054Y-78508006D01*
X141037054Y-78508006D02*
X140989435Y-78531815D01*
X141441815Y-78388958D02*
X141775148Y-78388958D01*
X141775148Y-78388958D02*
X141560863Y-78888958D01*
X128695327Y-83731785D02*
X128528661Y-83493690D01*
X128409613Y-83731785D02*
X128409613Y-83231785D01*
X128409613Y-83231785D02*
X128600089Y-83231785D01*
X128600089Y-83231785D02*
X128647708Y-83255595D01*
X128647708Y-83255595D02*
X128671518Y-83279404D01*
X128671518Y-83279404D02*
X128695327Y-83327023D01*
X128695327Y-83327023D02*
X128695327Y-83398452D01*
X128695327Y-83398452D02*
X128671518Y-83446071D01*
X128671518Y-83446071D02*
X128647708Y-83469880D01*
X128647708Y-83469880D02*
X128600089Y-83493690D01*
X128600089Y-83493690D02*
X128409613Y-83493690D01*
X128981042Y-83446071D02*
X128933423Y-83422261D01*
X128933423Y-83422261D02*
X128909613Y-83398452D01*
X128909613Y-83398452D02*
X128885804Y-83350833D01*
X128885804Y-83350833D02*
X128885804Y-83327023D01*
X128885804Y-83327023D02*
X128909613Y-83279404D01*
X128909613Y-83279404D02*
X128933423Y-83255595D01*
X128933423Y-83255595D02*
X128981042Y-83231785D01*
X128981042Y-83231785D02*
X129076280Y-83231785D01*
X129076280Y-83231785D02*
X129123899Y-83255595D01*
X129123899Y-83255595D02*
X129147708Y-83279404D01*
X129147708Y-83279404D02*
X129171518Y-83327023D01*
X129171518Y-83327023D02*
X129171518Y-83350833D01*
X129171518Y-83350833D02*
X129147708Y-83398452D01*
X129147708Y-83398452D02*
X129123899Y-83422261D01*
X129123899Y-83422261D02*
X129076280Y-83446071D01*
X129076280Y-83446071D02*
X128981042Y-83446071D01*
X128981042Y-83446071D02*
X128933423Y-83469880D01*
X128933423Y-83469880D02*
X128909613Y-83493690D01*
X128909613Y-83493690D02*
X128885804Y-83541309D01*
X128885804Y-83541309D02*
X128885804Y-83636547D01*
X128885804Y-83636547D02*
X128909613Y-83684166D01*
X128909613Y-83684166D02*
X128933423Y-83707976D01*
X128933423Y-83707976D02*
X128981042Y-83731785D01*
X128981042Y-83731785D02*
X129076280Y-83731785D01*
X129076280Y-83731785D02*
X129123899Y-83707976D01*
X129123899Y-83707976D02*
X129147708Y-83684166D01*
X129147708Y-83684166D02*
X129171518Y-83636547D01*
X129171518Y-83636547D02*
X129171518Y-83541309D01*
X129171518Y-83541309D02*
X129147708Y-83493690D01*
X129147708Y-83493690D02*
X129123899Y-83469880D01*
X129123899Y-83469880D02*
X129076280Y-83446071D01*
X150557277Y-108290143D02*
X150319182Y-108456809D01*
X150557277Y-108575857D02*
X150057277Y-108575857D01*
X150057277Y-108575857D02*
X150057277Y-108385381D01*
X150057277Y-108385381D02*
X150081087Y-108337762D01*
X150081087Y-108337762D02*
X150104896Y-108313952D01*
X150104896Y-108313952D02*
X150152515Y-108290143D01*
X150152515Y-108290143D02*
X150223944Y-108290143D01*
X150223944Y-108290143D02*
X150271563Y-108313952D01*
X150271563Y-108313952D02*
X150295372Y-108337762D01*
X150295372Y-108337762D02*
X150319182Y-108385381D01*
X150319182Y-108385381D02*
X150319182Y-108575857D01*
X150557277Y-107813952D02*
X150557277Y-108099666D01*
X150557277Y-107956809D02*
X150057277Y-107956809D01*
X150057277Y-107956809D02*
X150128706Y-108004428D01*
X150128706Y-108004428D02*
X150176325Y-108052047D01*
X150176325Y-108052047D02*
X150200134Y-108099666D01*
X150104896Y-107623476D02*
X150081087Y-107599667D01*
X150081087Y-107599667D02*
X150057277Y-107552048D01*
X150057277Y-107552048D02*
X150057277Y-107433000D01*
X150057277Y-107433000D02*
X150081087Y-107385381D01*
X150081087Y-107385381D02*
X150104896Y-107361572D01*
X150104896Y-107361572D02*
X150152515Y-107337762D01*
X150152515Y-107337762D02*
X150200134Y-107337762D01*
X150200134Y-107337762D02*
X150271563Y-107361572D01*
X150271563Y-107361572D02*
X150557277Y-107647286D01*
X150557277Y-107647286D02*
X150557277Y-107337762D01*
X143494621Y-105245952D02*
X143899383Y-105245952D01*
X143899383Y-105245952D02*
X143947002Y-105222142D01*
X143947002Y-105222142D02*
X143970812Y-105198333D01*
X143970812Y-105198333D02*
X143994621Y-105150714D01*
X143994621Y-105150714D02*
X143994621Y-105055476D01*
X143994621Y-105055476D02*
X143970812Y-105007857D01*
X143970812Y-105007857D02*
X143947002Y-104984047D01*
X143947002Y-104984047D02*
X143899383Y-104960238D01*
X143899383Y-104960238D02*
X143494621Y-104960238D01*
X143708907Y-104650713D02*
X143685097Y-104698332D01*
X143685097Y-104698332D02*
X143661288Y-104722142D01*
X143661288Y-104722142D02*
X143613669Y-104745951D01*
X143613669Y-104745951D02*
X143589859Y-104745951D01*
X143589859Y-104745951D02*
X143542240Y-104722142D01*
X143542240Y-104722142D02*
X143518431Y-104698332D01*
X143518431Y-104698332D02*
X143494621Y-104650713D01*
X143494621Y-104650713D02*
X143494621Y-104555475D01*
X143494621Y-104555475D02*
X143518431Y-104507856D01*
X143518431Y-104507856D02*
X143542240Y-104484047D01*
X143542240Y-104484047D02*
X143589859Y-104460237D01*
X143589859Y-104460237D02*
X143613669Y-104460237D01*
X143613669Y-104460237D02*
X143661288Y-104484047D01*
X143661288Y-104484047D02*
X143685097Y-104507856D01*
X143685097Y-104507856D02*
X143708907Y-104555475D01*
X143708907Y-104555475D02*
X143708907Y-104650713D01*
X143708907Y-104650713D02*
X143732716Y-104698332D01*
X143732716Y-104698332D02*
X143756526Y-104722142D01*
X143756526Y-104722142D02*
X143804145Y-104745951D01*
X143804145Y-104745951D02*
X143899383Y-104745951D01*
X143899383Y-104745951D02*
X143947002Y-104722142D01*
X143947002Y-104722142D02*
X143970812Y-104698332D01*
X143970812Y-104698332D02*
X143994621Y-104650713D01*
X143994621Y-104650713D02*
X143994621Y-104555475D01*
X143994621Y-104555475D02*
X143970812Y-104507856D01*
X143970812Y-104507856D02*
X143947002Y-104484047D01*
X143947002Y-104484047D02*
X143899383Y-104460237D01*
X143899383Y-104460237D02*
X143804145Y-104460237D01*
X143804145Y-104460237D02*
X143756526Y-104484047D01*
X143756526Y-104484047D02*
X143732716Y-104507856D01*
X143732716Y-104507856D02*
X143708907Y-104555475D01*
X138592251Y-100566578D02*
X138354156Y-100733244D01*
X138592251Y-100852292D02*
X138092251Y-100852292D01*
X138092251Y-100852292D02*
X138092251Y-100661816D01*
X138092251Y-100661816D02*
X138116061Y-100614197D01*
X138116061Y-100614197D02*
X138139870Y-100590387D01*
X138139870Y-100590387D02*
X138187489Y-100566578D01*
X138187489Y-100566578D02*
X138258918Y-100566578D01*
X138258918Y-100566578D02*
X138306537Y-100590387D01*
X138306537Y-100590387D02*
X138330346Y-100614197D01*
X138330346Y-100614197D02*
X138354156Y-100661816D01*
X138354156Y-100661816D02*
X138354156Y-100852292D01*
X138592251Y-100090387D02*
X138592251Y-100376101D01*
X138592251Y-100233244D02*
X138092251Y-100233244D01*
X138092251Y-100233244D02*
X138163680Y-100280863D01*
X138163680Y-100280863D02*
X138211299Y-100328482D01*
X138211299Y-100328482D02*
X138235108Y-100376101D01*
X138092251Y-99638007D02*
X138092251Y-99876102D01*
X138092251Y-99876102D02*
X138330346Y-99899911D01*
X138330346Y-99899911D02*
X138306537Y-99876102D01*
X138306537Y-99876102D02*
X138282727Y-99828483D01*
X138282727Y-99828483D02*
X138282727Y-99709435D01*
X138282727Y-99709435D02*
X138306537Y-99661816D01*
X138306537Y-99661816D02*
X138330346Y-99638007D01*
X138330346Y-99638007D02*
X138377965Y-99614197D01*
X138377965Y-99614197D02*
X138497013Y-99614197D01*
X138497013Y-99614197D02*
X138544632Y-99638007D01*
X138544632Y-99638007D02*
X138568442Y-99661816D01*
X138568442Y-99661816D02*
X138592251Y-99709435D01*
X138592251Y-99709435D02*
X138592251Y-99828483D01*
X138592251Y-99828483D02*
X138568442Y-99876102D01*
X138568442Y-99876102D02*
X138544632Y-99899911D01*
X128851996Y-101992734D02*
X128685330Y-101754639D01*
X128566282Y-101992734D02*
X128566282Y-101492734D01*
X128566282Y-101492734D02*
X128756758Y-101492734D01*
X128756758Y-101492734D02*
X128804377Y-101516544D01*
X128804377Y-101516544D02*
X128828187Y-101540353D01*
X128828187Y-101540353D02*
X128851996Y-101587972D01*
X128851996Y-101587972D02*
X128851996Y-101659401D01*
X128851996Y-101659401D02*
X128828187Y-101707020D01*
X128828187Y-101707020D02*
X128804377Y-101730829D01*
X128804377Y-101730829D02*
X128756758Y-101754639D01*
X128756758Y-101754639D02*
X128566282Y-101754639D01*
X129018663Y-101492734D02*
X129351996Y-101492734D01*
X129351996Y-101492734D02*
X129137711Y-101992734D01*
X137216666Y-72677190D02*
X137192857Y-72701000D01*
X137192857Y-72701000D02*
X137121428Y-72724809D01*
X137121428Y-72724809D02*
X137073809Y-72724809D01*
X137073809Y-72724809D02*
X137002381Y-72701000D01*
X137002381Y-72701000D02*
X136954762Y-72653380D01*
X136954762Y-72653380D02*
X136930952Y-72605761D01*
X136930952Y-72605761D02*
X136907143Y-72510523D01*
X136907143Y-72510523D02*
X136907143Y-72439095D01*
X136907143Y-72439095D02*
X136930952Y-72343857D01*
X136930952Y-72343857D02*
X136954762Y-72296238D01*
X136954762Y-72296238D02*
X137002381Y-72248619D01*
X137002381Y-72248619D02*
X137073809Y-72224809D01*
X137073809Y-72224809D02*
X137121428Y-72224809D01*
X137121428Y-72224809D02*
X137192857Y-72248619D01*
X137192857Y-72248619D02*
X137216666Y-72272428D01*
X137502381Y-72439095D02*
X137454762Y-72415285D01*
X137454762Y-72415285D02*
X137430952Y-72391476D01*
X137430952Y-72391476D02*
X137407143Y-72343857D01*
X137407143Y-72343857D02*
X137407143Y-72320047D01*
X137407143Y-72320047D02*
X137430952Y-72272428D01*
X137430952Y-72272428D02*
X137454762Y-72248619D01*
X137454762Y-72248619D02*
X137502381Y-72224809D01*
X137502381Y-72224809D02*
X137597619Y-72224809D01*
X137597619Y-72224809D02*
X137645238Y-72248619D01*
X137645238Y-72248619D02*
X137669047Y-72272428D01*
X137669047Y-72272428D02*
X137692857Y-72320047D01*
X137692857Y-72320047D02*
X137692857Y-72343857D01*
X137692857Y-72343857D02*
X137669047Y-72391476D01*
X137669047Y-72391476D02*
X137645238Y-72415285D01*
X137645238Y-72415285D02*
X137597619Y-72439095D01*
X137597619Y-72439095D02*
X137502381Y-72439095D01*
X137502381Y-72439095D02*
X137454762Y-72462904D01*
X137454762Y-72462904D02*
X137430952Y-72486714D01*
X137430952Y-72486714D02*
X137407143Y-72534333D01*
X137407143Y-72534333D02*
X137407143Y-72629571D01*
X137407143Y-72629571D02*
X137430952Y-72677190D01*
X137430952Y-72677190D02*
X137454762Y-72701000D01*
X137454762Y-72701000D02*
X137502381Y-72724809D01*
X137502381Y-72724809D02*
X137597619Y-72724809D01*
X137597619Y-72724809D02*
X137645238Y-72701000D01*
X137645238Y-72701000D02*
X137669047Y-72677190D01*
X137669047Y-72677190D02*
X137692857Y-72629571D01*
X137692857Y-72629571D02*
X137692857Y-72534333D01*
X137692857Y-72534333D02*
X137669047Y-72486714D01*
X137669047Y-72486714D02*
X137645238Y-72462904D01*
X137645238Y-72462904D02*
X137597619Y-72439095D01*
X131337053Y-104846775D02*
X131313244Y-104870585D01*
X131313244Y-104870585D02*
X131241815Y-104894394D01*
X131241815Y-104894394D02*
X131194196Y-104894394D01*
X131194196Y-104894394D02*
X131122768Y-104870585D01*
X131122768Y-104870585D02*
X131075149Y-104822965D01*
X131075149Y-104822965D02*
X131051339Y-104775346D01*
X131051339Y-104775346D02*
X131027530Y-104680108D01*
X131027530Y-104680108D02*
X131027530Y-104608680D01*
X131027530Y-104608680D02*
X131051339Y-104513442D01*
X131051339Y-104513442D02*
X131075149Y-104465823D01*
X131075149Y-104465823D02*
X131122768Y-104418204D01*
X131122768Y-104418204D02*
X131194196Y-104394394D01*
X131194196Y-104394394D02*
X131241815Y-104394394D01*
X131241815Y-104394394D02*
X131313244Y-104418204D01*
X131313244Y-104418204D02*
X131337053Y-104442013D01*
X131789434Y-104394394D02*
X131551339Y-104394394D01*
X131551339Y-104394394D02*
X131527530Y-104632489D01*
X131527530Y-104632489D02*
X131551339Y-104608680D01*
X131551339Y-104608680D02*
X131598958Y-104584870D01*
X131598958Y-104584870D02*
X131718006Y-104584870D01*
X131718006Y-104584870D02*
X131765625Y-104608680D01*
X131765625Y-104608680D02*
X131789434Y-104632489D01*
X131789434Y-104632489D02*
X131813244Y-104680108D01*
X131813244Y-104680108D02*
X131813244Y-104799156D01*
X131813244Y-104799156D02*
X131789434Y-104846775D01*
X131789434Y-104846775D02*
X131765625Y-104870585D01*
X131765625Y-104870585D02*
X131718006Y-104894394D01*
X131718006Y-104894394D02*
X131598958Y-104894394D01*
X131598958Y-104894394D02*
X131551339Y-104870585D01*
X131551339Y-104870585D02*
X131527530Y-104846775D01*
X142084809Y-108271428D02*
X141846714Y-108438094D01*
X142084809Y-108557142D02*
X141584809Y-108557142D01*
X141584809Y-108557142D02*
X141584809Y-108366666D01*
X141584809Y-108366666D02*
X141608619Y-108319047D01*
X141608619Y-108319047D02*
X141632428Y-108295237D01*
X141632428Y-108295237D02*
X141680047Y-108271428D01*
X141680047Y-108271428D02*
X141751476Y-108271428D01*
X141751476Y-108271428D02*
X141799095Y-108295237D01*
X141799095Y-108295237D02*
X141822904Y-108319047D01*
X141822904Y-108319047D02*
X141846714Y-108366666D01*
X141846714Y-108366666D02*
X141846714Y-108557142D01*
X142084809Y-107795237D02*
X142084809Y-108080951D01*
X142084809Y-107938094D02*
X141584809Y-107938094D01*
X141584809Y-107938094D02*
X141656238Y-107985713D01*
X141656238Y-107985713D02*
X141703857Y-108033332D01*
X141703857Y-108033332D02*
X141727666Y-108080951D01*
X142084809Y-107319047D02*
X142084809Y-107604761D01*
X142084809Y-107461904D02*
X141584809Y-107461904D01*
X141584809Y-107461904D02*
X141656238Y-107509523D01*
X141656238Y-107509523D02*
X141703857Y-107557142D01*
X141703857Y-107557142D02*
X141727666Y-107604761D01*
X137624809Y-91080952D02*
X138029571Y-91080952D01*
X138029571Y-91080952D02*
X138077190Y-91057142D01*
X138077190Y-91057142D02*
X138101000Y-91033333D01*
X138101000Y-91033333D02*
X138124809Y-90985714D01*
X138124809Y-90985714D02*
X138124809Y-90890476D01*
X138124809Y-90890476D02*
X138101000Y-90842857D01*
X138101000Y-90842857D02*
X138077190Y-90819047D01*
X138077190Y-90819047D02*
X138029571Y-90795238D01*
X138029571Y-90795238D02*
X137624809Y-90795238D01*
X138124809Y-90295237D02*
X138124809Y-90580951D01*
X138124809Y-90438094D02*
X137624809Y-90438094D01*
X137624809Y-90438094D02*
X137696238Y-90485713D01*
X137696238Y-90485713D02*
X137743857Y-90533332D01*
X137743857Y-90533332D02*
X137767666Y-90580951D01*
X149982025Y-105398954D02*
X150339168Y-105398954D01*
X150339168Y-105398954D02*
X150410596Y-105422763D01*
X150410596Y-105422763D02*
X150458216Y-105470382D01*
X150458216Y-105470382D02*
X150482025Y-105541811D01*
X150482025Y-105541811D02*
X150482025Y-105589430D01*
X149982025Y-105208478D02*
X149982025Y-104898954D01*
X149982025Y-104898954D02*
X150172501Y-105065621D01*
X150172501Y-105065621D02*
X150172501Y-104994192D01*
X150172501Y-104994192D02*
X150196311Y-104946573D01*
X150196311Y-104946573D02*
X150220120Y-104922764D01*
X150220120Y-104922764D02*
X150267739Y-104898954D01*
X150267739Y-104898954D02*
X150386787Y-104898954D01*
X150386787Y-104898954D02*
X150434406Y-104922764D01*
X150434406Y-104922764D02*
X150458216Y-104946573D01*
X150458216Y-104946573D02*
X150482025Y-104994192D01*
X150482025Y-104994192D02*
X150482025Y-105137049D01*
X150482025Y-105137049D02*
X150458216Y-105184668D01*
X150458216Y-105184668D02*
X150434406Y-105208478D01*
D11*
%TO.C,D2*%
X143105387Y-73754149D02*
X143105387Y-76804149D01*
X146405387Y-73754149D02*
X146405387Y-76804149D01*
X146735387Y-73569149D02*
X146405387Y-73329149D01*
X146735387Y-73089149D01*
X146735387Y-73569149D01*
G36*
X146735387Y-73569149D02*
G01*
X146405387Y-73329149D01*
X146735387Y-73089149D01*
X146735387Y-73569149D01*
G37*
%TO.C,U4*%
X133274752Y-74023842D02*
X133449752Y-74023842D01*
X133274752Y-74698842D02*
X133274752Y-74023842D01*
X133274752Y-76568842D02*
X133274752Y-76943842D01*
X136494752Y-74023842D02*
X136319752Y-74023842D01*
X136494752Y-74698842D02*
X136494752Y-74023842D01*
X136494752Y-76568842D02*
X136494752Y-77243842D01*
X136494752Y-77243842D02*
X136319752Y-77243842D01*
X133274752Y-77243842D02*
X133084752Y-77383842D01*
X133084752Y-77103842D01*
X133274752Y-77243842D01*
G36*
X133274752Y-77243842D02*
G01*
X133084752Y-77383842D01*
X133084752Y-77103842D01*
X133274752Y-77243842D01*
G37*
%TO.C,J1*%
X135305387Y-118609149D02*
X135305387Y-116909149D01*
X144645387Y-118609149D02*
X144645387Y-116909149D01*
%TO.C,R18*%
X143165387Y-80782085D02*
X143165387Y-81236213D01*
X144635387Y-80782085D02*
X144635387Y-81236213D01*
%TO.C,C14*%
X148575000Y-102206248D02*
X148575000Y-102728752D01*
X150045000Y-102206248D02*
X150045000Y-102728752D01*
%TO.C,R9*%
X136231658Y-80828483D02*
X136231658Y-81282611D01*
X137701658Y-80828483D02*
X137701658Y-81282611D01*
%TO.C,R1*%
X139780158Y-87439963D02*
X140234286Y-87439963D01*
X139780158Y-85969963D02*
X140234286Y-85969963D01*
%TO.C,C3*%
X133792221Y-111656252D02*
X133792221Y-111133748D01*
X135262221Y-111656252D02*
X135262221Y-111133748D01*
%TO.C,R14*%
X141505000Y-100947064D02*
X141505000Y-100492936D01*
X142975000Y-100947064D02*
X142975000Y-100492936D01*
%TO.C,C7*%
X131094110Y-76205286D02*
X130571606Y-76205286D01*
X131094110Y-77675286D02*
X130571606Y-77675286D01*
%TO.C,D1*%
X129145832Y-112179149D02*
X132005832Y-112179149D01*
X132005832Y-110259149D02*
X129145832Y-110259149D01*
X132005832Y-112179149D02*
X132005832Y-110259149D01*
%TO.C,C1*%
X139725490Y-85361249D02*
X140247994Y-85361249D01*
X139725490Y-83891249D02*
X140247994Y-83891249D01*
%TO.C,R13*%
X147632064Y-96810000D02*
X147177936Y-96810000D01*
X147632064Y-98280000D02*
X147177936Y-98280000D01*
%TO.C,J2*%
X152900387Y-84374149D02*
X154060387Y-84374149D01*
X152900387Y-85184149D02*
X152900387Y-84374149D01*
X152900387Y-85994149D02*
X152900387Y-97359149D01*
X152900387Y-85994149D02*
X153393679Y-85994149D01*
X152900387Y-97359149D02*
X153742464Y-97359149D01*
X154378310Y-97359149D02*
X155220387Y-97359149D01*
X154727095Y-85994149D02*
X155220387Y-85994149D01*
X155220387Y-85994149D02*
X155220387Y-97359149D01*
D12*
%TO.C,U5*%
X138835387Y-113410000D02*
G75*
G02*
X138635387Y-113410000I-100000J0D01*
G01*
X138635387Y-113410000D02*
G75*
G02*
X138835387Y-113410000I100000J0D01*
G01*
%TO.C,U7*%
X146510000Y-94075000D02*
X146510000Y-93599000D01*
X146510000Y-90551000D02*
X146510000Y-90075000D01*
X146034000Y-94075000D02*
X146510000Y-94075000D01*
X146034000Y-90075000D02*
X146510000Y-90075000D01*
X142510000Y-94075000D02*
X142986000Y-94075000D01*
X142510000Y-94075000D02*
X142510000Y-93599000D01*
X142510000Y-90551000D02*
X142510000Y-90075000D01*
X142510000Y-90075000D02*
X142986000Y-90075000D01*
X142070000Y-90678000D02*
G75*
G02*
X141870000Y-90678000I-100000J0D01*
G01*
X141870000Y-90678000D02*
G75*
G02*
X142070000Y-90678000I100000J0D01*
G01*
D11*
%TO.C,C4*%
X134681263Y-102653956D02*
X135203767Y-102653956D01*
X134681263Y-104123956D02*
X135203767Y-104123956D01*
%TO.C,R3*%
X142775000Y-111622064D02*
X142775000Y-111167936D01*
X144245000Y-111622064D02*
X144245000Y-111167936D01*
D13*
%TO.C,RESET1*%
X149295387Y-79014012D02*
X149295387Y-81014012D01*
X149595387Y-81814012D02*
X150195387Y-82414012D01*
X150195387Y-77614012D02*
X149595387Y-78214012D01*
X150195387Y-82414012D02*
X153195387Y-82414012D01*
X153195387Y-77614012D02*
X150195387Y-77614012D01*
X153195387Y-77614012D02*
X153795387Y-78214012D01*
X153195387Y-82414012D02*
X153795387Y-81814012D01*
X154095387Y-79014012D02*
X154095387Y-81014012D01*
D12*
X147395387Y-78114012D02*
G75*
G02*
X147195387Y-78114012I-100000J0D01*
G01*
X147195387Y-78114012D02*
G75*
G02*
X147395387Y-78114012I100000J0D01*
G01*
D11*
%TO.C,R10*%
X134076875Y-80868987D02*
X134076875Y-81323115D01*
X135546875Y-80868987D02*
X135546875Y-81323115D01*
%TO.C,C6*%
X129281269Y-80818597D02*
X129281269Y-81341101D01*
X130751269Y-80818597D02*
X130751269Y-81341101D01*
%TO.C,C12*%
X138965000Y-94353748D02*
X138965000Y-94876252D01*
X140435000Y-94353748D02*
X140435000Y-94876252D01*
D14*
%TO.C,U3*%
X128887273Y-92435849D02*
X128887273Y-100792449D01*
X128887273Y-100792449D02*
X129595723Y-100792449D01*
X129595723Y-92435849D02*
X128887273Y-92435849D01*
X134528823Y-100792449D02*
X135237273Y-100792449D01*
X135237273Y-92435849D02*
X134528823Y-92435849D01*
X135237273Y-100792449D02*
X135237273Y-92435849D01*
D11*
%TO.C,R6*%
X139069372Y-76136223D02*
X138615244Y-76136223D01*
X139069372Y-77606223D02*
X138615244Y-77606223D01*
%TO.C,U2*%
X133757887Y-105616791D02*
X135757887Y-105616791D01*
X133757887Y-107836791D02*
X135757887Y-107836791D01*
X133517887Y-105716791D02*
X133237887Y-105716791D01*
X133517887Y-105436791D01*
X133517887Y-105716791D01*
G36*
X133517887Y-105716791D02*
G01*
X133237887Y-105716791D01*
X133517887Y-105436791D01*
X133517887Y-105716791D01*
G37*
%TO.C,C2*%
X131719529Y-81337533D02*
X131719529Y-80815029D01*
X133189529Y-81337533D02*
X133189529Y-80815029D01*
%TO.C,R5*%
X128560387Y-106763697D02*
X128560387Y-107217825D01*
X130030387Y-106763697D02*
X130030387Y-107217825D01*
%TO.C,R2*%
X138386439Y-80820382D02*
X138386439Y-81274510D01*
X139856439Y-80820382D02*
X139856439Y-81274510D01*
%TO.C,C9*%
X131110311Y-73442952D02*
X130587807Y-73442952D01*
X131110311Y-74912952D02*
X130587807Y-74912952D01*
%TO.C,C13*%
X141505000Y-104803752D02*
X141505000Y-104281248D01*
X142975000Y-104803752D02*
X142975000Y-104281248D01*
%TO.C,R4*%
X136204757Y-111622064D02*
X136204757Y-111167936D01*
X137674757Y-111622064D02*
X137674757Y-111167936D01*
%TO.C,R16*%
X143737064Y-96810000D02*
X143282936Y-96810000D01*
X143737064Y-98280000D02*
X143282936Y-98280000D01*
%TO.C,R19*%
X145705387Y-80782085D02*
X145705387Y-81236213D01*
X147175387Y-80782085D02*
X147175387Y-81236213D01*
D13*
%TO.C,BOOT1*%
X149305293Y-73440722D02*
X149305293Y-75440722D01*
X149605293Y-76240722D02*
X150205293Y-76840722D01*
X150205293Y-72040722D02*
X149605293Y-72640722D01*
X150205293Y-76840722D02*
X153205293Y-76840722D01*
X153205293Y-72040722D02*
X150205293Y-72040722D01*
X153205293Y-72040722D02*
X153805293Y-72640722D01*
X153205293Y-76840722D02*
X153805293Y-76240722D01*
X154105293Y-73440722D02*
X154105293Y-75440722D01*
D12*
X147405293Y-72540722D02*
G75*
G02*
X147205293Y-72540722I-100000J0D01*
G01*
X147205293Y-72540722D02*
G75*
G02*
X147405293Y-72540722I100000J0D01*
G01*
D11*
%TO.C,R17*%
X140625387Y-80782085D02*
X140625387Y-81236213D01*
X142095387Y-80782085D02*
X142095387Y-81236213D01*
%TO.C,R8*%
X128588661Y-85609912D02*
X128588661Y-86064040D01*
X130058661Y-85609912D02*
X130058661Y-86064040D01*
%TO.C,R12*%
X147812936Y-106970000D02*
X148267064Y-106970000D01*
X147812936Y-108440000D02*
X148267064Y-108440000D01*
%TO.C,U8*%
X144444812Y-102625000D02*
X144444812Y-101125000D01*
X144444812Y-102625000D02*
X144444812Y-104125000D01*
X147664812Y-102625000D02*
X147664812Y-101125000D01*
X147664812Y-102625000D02*
X147664812Y-104125000D01*
X144644812Y-104812500D02*
X144314812Y-105052500D01*
X144314812Y-104572500D01*
X144644812Y-104812500D01*
G36*
X144644812Y-104812500D02*
G01*
X144314812Y-105052500D01*
X144314812Y-104572500D01*
X144644812Y-104812500D01*
G37*
%TO.C,R15*%
X138965000Y-98832936D02*
X138965000Y-99287064D01*
X140435000Y-98832936D02*
X140435000Y-99287064D01*
%TO.C,R7*%
X130087718Y-102464641D02*
X130541846Y-102464641D01*
X130087718Y-103934641D02*
X130541846Y-103934641D01*
%TO.C,C8*%
X139089485Y-73215812D02*
X138566981Y-73215812D01*
X139089485Y-74685812D02*
X138566981Y-74685812D01*
%TO.C,C5*%
X131218363Y-107240837D02*
X131218363Y-106718333D01*
X132688363Y-107240837D02*
X132688363Y-106718333D01*
%TO.C,R11*%
X144372064Y-106970000D02*
X143917936Y-106970000D01*
X144372064Y-108440000D02*
X143917936Y-108440000D01*
%TO.C,U1*%
X130605387Y-87401649D02*
X130605387Y-85201649D01*
X130605387Y-87401649D02*
X130605387Y-89601649D01*
X137375387Y-87401649D02*
X137375387Y-85201649D01*
X137375387Y-87401649D02*
X137375387Y-89601649D01*
X136915387Y-83541649D02*
X136675387Y-83211649D01*
X137155387Y-83211649D01*
X136915387Y-83541649D01*
G36*
X136915387Y-83541649D02*
G01*
X136675387Y-83211649D01*
X137155387Y-83211649D01*
X136915387Y-83541649D01*
G37*
D13*
%TO.C,J3*%
X150870000Y-99555000D02*
X155370000Y-99555000D01*
X150870000Y-105455000D02*
X150870000Y-99555000D01*
X155370000Y-99555000D02*
X155370000Y-105455000D01*
X155370000Y-105455000D02*
X150870000Y-105455000D01*
D12*
X155506000Y-98695000D02*
G75*
G02*
X155306000Y-98695000I-100000J0D01*
G01*
X155306000Y-98695000D02*
G75*
G02*
X155506000Y-98695000I100000J0D01*
G01*
%TD*%
M02*
