%TF.GenerationSoftware,KiCad,Pcbnew,9.0.4*%
%TF.CreationDate,2025-09-15T16:29:57+02:00*%
%TF.ProjectId,stm32-mcu,73746d33-322d-46d6-9375-2e6b69636164,rev?*%
%TF.SameCoordinates,Original*%
%TF.FileFunction,Legend,Bot*%
%TF.FilePolarity,Positive*%
%FSLAX46Y46*%
G04 Gerber Fmt 4.6, Leading zero omitted, Abs format (unit mm)*
G04 Created by KiCad (PCBNEW 9.0.4) date 2025-09-15 16:29:57*
%MOMM*%
%LPD*%
G01*
G04 APERTURE LIST*
%ADD10C,0.300000*%
%ADD11C,0.000000*%
G04 APERTURE END LIST*
D10*
X142795932Y-92136816D02*
X142938790Y-92065387D01*
X142938790Y-92065387D02*
X143153075Y-92065387D01*
X143153075Y-92065387D02*
X143367361Y-92136816D01*
X143367361Y-92136816D02*
X143510218Y-92279673D01*
X143510218Y-92279673D02*
X143581647Y-92422530D01*
X143581647Y-92422530D02*
X143653075Y-92708244D01*
X143653075Y-92708244D02*
X143653075Y-92922530D01*
X143653075Y-92922530D02*
X143581647Y-93208244D01*
X143581647Y-93208244D02*
X143510218Y-93351101D01*
X143510218Y-93351101D02*
X143367361Y-93493959D01*
X143367361Y-93493959D02*
X143153075Y-93565387D01*
X143153075Y-93565387D02*
X143010218Y-93565387D01*
X143010218Y-93565387D02*
X142795932Y-93493959D01*
X142795932Y-93493959D02*
X142724504Y-93422530D01*
X142724504Y-93422530D02*
X142724504Y-92922530D01*
X142724504Y-92922530D02*
X143010218Y-92922530D01*
X141867361Y-92065387D02*
X141867361Y-92422530D01*
X142224504Y-92279673D02*
X141867361Y-92422530D01*
X141867361Y-92422530D02*
X141510218Y-92279673D01*
X142081647Y-92708244D02*
X141867361Y-92422530D01*
X141867361Y-92422530D02*
X141653075Y-92708244D01*
X140724504Y-92065387D02*
X140724504Y-92422530D01*
X141081647Y-92279673D02*
X140724504Y-92422530D01*
X140724504Y-92422530D02*
X140367361Y-92279673D01*
X140938790Y-92708244D02*
X140724504Y-92422530D01*
X140724504Y-92422530D02*
X140510218Y-92708244D01*
X139581647Y-92065387D02*
X139581647Y-92422530D01*
X139938790Y-92279673D02*
X139581647Y-92422530D01*
X139581647Y-92422530D02*
X139224504Y-92279673D01*
X139795933Y-92708244D02*
X139581647Y-92422530D01*
X139581647Y-92422530D02*
X139367361Y-92708244D01*
D11*
%TO.C,G\u002A\u002A\u002A*%
G36*
X141901856Y-87192261D02*
G01*
X142033547Y-87196151D01*
X142161756Y-87201793D01*
X142280481Y-87209027D01*
X142383719Y-87217694D01*
X142465466Y-87227637D01*
X142480545Y-87229976D01*
X142630789Y-87256814D01*
X142791129Y-87290997D01*
X142951735Y-87330143D01*
X143102772Y-87371872D01*
X143234410Y-87413804D01*
X143276083Y-87428623D01*
X143475360Y-87507986D01*
X143676751Y-87601159D01*
X143872426Y-87704077D01*
X144054553Y-87812677D01*
X144215301Y-87922893D01*
X144293486Y-87983846D01*
X144435063Y-88106477D01*
X144578355Y-88244516D01*
X144716526Y-88390913D01*
X144842740Y-88538623D01*
X144950163Y-88680596D01*
X144977083Y-88719960D01*
X145063968Y-88857952D01*
X145152363Y-89013233D01*
X145237839Y-89177418D01*
X145315967Y-89342120D01*
X145382320Y-89498955D01*
X145423493Y-89599201D01*
X145555037Y-89875920D01*
X145715122Y-90158484D01*
X145903650Y-90446729D01*
X146120520Y-90740486D01*
X146189378Y-90830970D01*
X146334383Y-91036690D01*
X146465473Y-91244209D01*
X146580632Y-91449798D01*
X146677847Y-91649727D01*
X146755103Y-91840266D01*
X146810386Y-92017686D01*
X146814855Y-92035463D01*
X146852886Y-92234388D01*
X146874734Y-92451576D01*
X146880611Y-92681526D01*
X146870728Y-92918737D01*
X146845299Y-93157710D01*
X146804534Y-93392944D01*
X146748646Y-93618939D01*
X146745421Y-93630081D01*
X146711863Y-93741544D01*
X146683906Y-93825240D01*
X146661214Y-93882021D01*
X146643447Y-93912744D01*
X146630268Y-93918263D01*
X146624058Y-93915431D01*
X146623523Y-93923153D01*
X146623885Y-93931583D01*
X146615040Y-93964660D01*
X146595575Y-94018025D01*
X146567047Y-94087923D01*
X146531014Y-94170599D01*
X146489033Y-94262297D01*
X146442661Y-94359264D01*
X146416327Y-94411193D01*
X146303187Y-94603084D01*
X146165540Y-94796549D01*
X146006666Y-94988075D01*
X145829839Y-95174153D01*
X145638339Y-95351269D01*
X145435441Y-95515914D01*
X145224424Y-95664575D01*
X145195603Y-95683378D01*
X145079261Y-95759708D01*
X144983562Y-95823460D01*
X144905088Y-95877117D01*
X144840424Y-95923159D01*
X144786154Y-95964070D01*
X144738862Y-96002332D01*
X144695132Y-96040426D01*
X144651548Y-96080834D01*
X144617024Y-96114332D01*
X144549988Y-96184589D01*
X144486810Y-96259225D01*
X144424256Y-96342687D01*
X144359093Y-96439417D01*
X144288086Y-96553861D01*
X144208002Y-96690464D01*
X144088541Y-96890786D01*
X143972361Y-97068819D01*
X143858281Y-97225126D01*
X143743539Y-97363025D01*
X143625374Y-97485830D01*
X143501024Y-97596857D01*
X143367729Y-97699422D01*
X143314373Y-97736531D01*
X143100695Y-97865713D01*
X142867596Y-97978956D01*
X142620372Y-98074153D01*
X142364322Y-98149196D01*
X142104741Y-98201976D01*
X142049755Y-98209308D01*
X141943781Y-98218726D01*
X141821448Y-98225275D01*
X141689258Y-98228944D01*
X141553716Y-98229720D01*
X141421324Y-98227593D01*
X141298587Y-98222552D01*
X141192007Y-98214586D01*
X141108088Y-98203683D01*
X141071974Y-98197143D01*
X140776487Y-98128206D01*
X140496657Y-98034571D01*
X140232636Y-97916322D01*
X139984576Y-97773547D01*
X139752628Y-97606331D01*
X139536945Y-97414761D01*
X139337678Y-97198923D01*
X139329227Y-97188819D01*
X139266826Y-97113339D01*
X139201768Y-97033361D01*
X139141276Y-96957821D01*
X139092573Y-96895657D01*
X138996464Y-96771812D01*
X138872872Y-96616512D01*
X138760869Y-96481303D01*
X138657941Y-96363528D01*
X138561572Y-96260527D01*
X138469249Y-96169645D01*
X138378458Y-96088222D01*
X138286684Y-96013602D01*
X138191412Y-95943126D01*
X138096663Y-95875650D01*
X137943191Y-95764154D01*
X137809261Y-95663422D01*
X137691346Y-95570562D01*
X137585915Y-95482679D01*
X137489439Y-95396881D01*
X137398390Y-95310275D01*
X137309237Y-95219968D01*
X137227934Y-95132320D01*
X137028796Y-94889518D01*
X136851505Y-94630486D01*
X136697536Y-94358005D01*
X136568364Y-94074854D01*
X136465463Y-93783813D01*
X136390308Y-93487662D01*
X136351699Y-93250594D01*
X136329429Y-92976111D01*
X136329423Y-92930326D01*
X136653142Y-92930326D01*
X136674885Y-93198214D01*
X136720092Y-93464897D01*
X136788858Y-93727813D01*
X136881274Y-93984402D01*
X136997435Y-94232101D01*
X137053026Y-94333226D01*
X137191178Y-94554009D01*
X137346934Y-94762977D01*
X137522634Y-94962673D01*
X137720616Y-95155639D01*
X137943220Y-95344418D01*
X138192785Y-95531553D01*
X138255276Y-95575985D01*
X138335631Y-95633376D01*
X138410932Y-95687421D01*
X138474883Y-95733599D01*
X138521187Y-95767388D01*
X138554016Y-95792292D01*
X138619405Y-95846204D01*
X138687493Y-95908409D01*
X138760032Y-95980879D01*
X138838775Y-96065588D01*
X138925475Y-96164508D01*
X139021886Y-96279613D01*
X139129760Y-96412875D01*
X139250849Y-96566267D01*
X139386907Y-96741762D01*
X139505706Y-96891081D01*
X139658992Y-97067328D01*
X139809683Y-97220370D01*
X139961044Y-97353013D01*
X140116337Y-97468058D01*
X140278824Y-97568308D01*
X140451769Y-97656568D01*
X140563958Y-97705565D01*
X140807315Y-97791144D01*
X141058883Y-97851511D01*
X141321924Y-97887357D01*
X141599695Y-97899370D01*
X141745649Y-97896489D01*
X142030263Y-97872156D01*
X142300694Y-97823253D01*
X142556308Y-97750019D01*
X142796470Y-97652691D01*
X143020546Y-97531507D01*
X143227900Y-97386705D01*
X143417899Y-97218522D01*
X143433856Y-97202569D01*
X143520722Y-97110813D01*
X143599243Y-97017841D01*
X143674297Y-96917181D01*
X143750759Y-96802360D01*
X143833506Y-96666906D01*
X143868854Y-96607302D01*
X143965193Y-96446926D01*
X144050680Y-96308778D01*
X144127552Y-96190159D01*
X144198045Y-96088370D01*
X144264397Y-96000713D01*
X144328844Y-95924487D01*
X144393623Y-95856993D01*
X144460971Y-95795534D01*
X144533125Y-95737408D01*
X144612322Y-95679918D01*
X144700799Y-95620363D01*
X144756238Y-95584031D01*
X144871718Y-95508183D01*
X144967088Y-95445187D01*
X145045501Y-95392864D01*
X145110113Y-95349033D01*
X145164075Y-95311515D01*
X145210544Y-95278128D01*
X145252673Y-95246694D01*
X145293616Y-95215032D01*
X145336527Y-95180962D01*
X145399629Y-95129309D01*
X145617041Y-94931343D01*
X145806981Y-94723926D01*
X145969968Y-94506101D01*
X146106524Y-94276913D01*
X146217168Y-94035404D01*
X146269968Y-93877605D01*
X146634808Y-93877605D01*
X146637155Y-93892012D01*
X146643663Y-93886460D01*
X146646005Y-93877985D01*
X146642506Y-93858369D01*
X146637503Y-93858595D01*
X146634808Y-93877605D01*
X146269968Y-93877605D01*
X146284580Y-93833935D01*
X146652272Y-93833935D01*
X146654637Y-93833238D01*
X146664147Y-93814965D01*
X146676288Y-93779783D01*
X146680746Y-93764016D01*
X146688184Y-93730005D01*
X146688313Y-93713639D01*
X146685948Y-93714337D01*
X146676438Y-93732609D01*
X146664297Y-93767791D01*
X146659839Y-93783559D01*
X146652401Y-93817570D01*
X146652272Y-93833935D01*
X146284580Y-93833935D01*
X146302421Y-93780617D01*
X146330271Y-93656534D01*
X146695135Y-93656534D01*
X146695231Y-93661086D01*
X146697769Y-93680553D01*
X146702434Y-93674576D01*
X146704791Y-93659702D01*
X146701891Y-93630606D01*
X146701307Y-93629299D01*
X146696719Y-93631503D01*
X146695135Y-93656534D01*
X146330271Y-93656534D01*
X146349735Y-93569815D01*
X146708091Y-93569815D01*
X146710438Y-93584222D01*
X146716946Y-93578671D01*
X146719288Y-93570195D01*
X146715789Y-93550579D01*
X146710786Y-93550806D01*
X146708091Y-93569815D01*
X146349735Y-93569815D01*
X146359879Y-93524624D01*
X146721591Y-93524624D01*
X146728919Y-93531952D01*
X146736247Y-93524624D01*
X146728919Y-93517296D01*
X146721591Y-93524624D01*
X146359879Y-93524624D01*
X146362803Y-93511595D01*
X146368429Y-93467219D01*
X146722748Y-93467219D01*
X146725095Y-93481626D01*
X146731603Y-93476074D01*
X146733945Y-93467598D01*
X146730446Y-93447982D01*
X146725443Y-93448209D01*
X146722748Y-93467219D01*
X146368429Y-93467219D01*
X146374158Y-93422027D01*
X146765561Y-93422027D01*
X146772889Y-93429356D01*
X146780217Y-93422027D01*
X146772889Y-93414699D01*
X146765561Y-93422027D01*
X146374158Y-93422027D01*
X146378803Y-93385386D01*
X146739648Y-93385386D01*
X146739790Y-93395330D01*
X146742103Y-93415596D01*
X146746351Y-93411035D01*
X146748630Y-93396909D01*
X146746351Y-93359737D01*
X146744980Y-93355578D01*
X146741176Y-93358721D01*
X146739648Y-93385386D01*
X146378803Y-93385386D01*
X146390881Y-93290117D01*
X146736247Y-93290117D01*
X146743576Y-93297446D01*
X146750904Y-93290117D01*
X146743576Y-93282789D01*
X146736247Y-93290117D01*
X146390881Y-93290117D01*
X146398834Y-93227383D01*
X146400025Y-93194849D01*
X146755296Y-93194849D01*
X146755997Y-93227602D01*
X146758207Y-93244248D01*
X146761402Y-93235155D01*
X146763856Y-93201886D01*
X146761402Y-93154543D01*
X146758571Y-93145103D01*
X146756205Y-93158665D01*
X146755296Y-93194849D01*
X146400025Y-93194849D01*
X146404319Y-93077596D01*
X146753218Y-93077596D01*
X146755261Y-93097758D01*
X146760611Y-93095917D01*
X146762547Y-93089282D01*
X146760611Y-93059275D01*
X146755522Y-93056789D01*
X146753218Y-93077596D01*
X146404319Y-93077596D01*
X146406127Y-93028211D01*
X146401514Y-92938357D01*
X146755714Y-92938357D01*
X146755775Y-92950880D01*
X146756821Y-92986977D01*
X146758883Y-92999534D01*
X146761601Y-92985665D01*
X146761798Y-92983706D01*
X146763943Y-92931536D01*
X146761482Y-92883068D01*
X146760807Y-92878312D01*
X146758177Y-92874406D01*
X146756359Y-92895572D01*
X146755714Y-92938357D01*
X146401514Y-92938357D01*
X146395119Y-92813776D01*
X146750904Y-92813776D01*
X146751962Y-92821535D01*
X146760675Y-92823547D01*
X146762429Y-92821399D01*
X146760675Y-92804005D01*
X146756267Y-92801712D01*
X146750904Y-92813776D01*
X146395119Y-92813776D01*
X146393935Y-92790715D01*
X146389023Y-92755149D01*
X146736247Y-92755149D01*
X146737305Y-92762908D01*
X146746019Y-92764920D01*
X146747773Y-92762772D01*
X146746019Y-92745378D01*
X146741610Y-92743085D01*
X146736247Y-92755149D01*
X146389023Y-92755149D01*
X146382106Y-92705072D01*
X146737405Y-92705072D01*
X146739752Y-92719479D01*
X146746260Y-92713927D01*
X146748601Y-92705452D01*
X146745103Y-92685835D01*
X146740099Y-92686062D01*
X146737405Y-92705072D01*
X146382106Y-92705072D01*
X146366923Y-92595147D01*
X146721815Y-92595147D01*
X146724807Y-92620615D01*
X146736451Y-92652553D01*
X146740940Y-92658395D01*
X146745469Y-92654184D01*
X146741450Y-92623239D01*
X146736752Y-92599577D01*
X146733147Y-92586598D01*
X146853501Y-92586598D01*
X146860829Y-92593926D01*
X146868157Y-92586598D01*
X146860829Y-92579269D01*
X146853501Y-92586598D01*
X146733147Y-92586598D01*
X146728787Y-92570898D01*
X146723556Y-92569061D01*
X146721815Y-92595147D01*
X146366923Y-92595147D01*
X146360926Y-92551728D01*
X146352216Y-92513314D01*
X146709791Y-92513314D01*
X146709888Y-92517866D01*
X146712426Y-92537333D01*
X146717091Y-92531356D01*
X146719447Y-92516482D01*
X146716548Y-92487386D01*
X146715964Y-92486079D01*
X146711376Y-92488283D01*
X146709791Y-92513314D01*
X146352216Y-92513314D01*
X146333939Y-92432703D01*
X146694592Y-92432703D01*
X146696635Y-92452865D01*
X146701984Y-92451023D01*
X146703920Y-92444389D01*
X146701984Y-92414382D01*
X146696895Y-92411896D01*
X146694592Y-92432703D01*
X146333939Y-92432703D01*
X146322307Y-92381404D01*
X146736247Y-92381404D01*
X146743576Y-92388733D01*
X146750904Y-92381404D01*
X146743576Y-92374076D01*
X146736247Y-92381404D01*
X146322307Y-92381404D01*
X146308308Y-92319662D01*
X146282915Y-92242166D01*
X146649510Y-92242166D01*
X146650160Y-92251178D01*
X146657177Y-92285938D01*
X146669535Y-92330106D01*
X146677139Y-92352565D01*
X146686925Y-92374787D01*
X146691075Y-92374076D01*
X146690425Y-92365064D01*
X146683408Y-92330303D01*
X146671050Y-92286136D01*
X146663446Y-92263677D01*
X146653660Y-92241455D01*
X146649510Y-92242166D01*
X146282915Y-92242166D01*
X146268507Y-92198196D01*
X146633651Y-92198196D01*
X146634709Y-92205955D01*
X146643422Y-92207967D01*
X146645176Y-92205819D01*
X146643422Y-92188425D01*
X146639013Y-92186132D01*
X146633651Y-92198196D01*
X146268507Y-92198196D01*
X146249296Y-92139569D01*
X146621308Y-92139569D01*
X146623351Y-92159731D01*
X146628701Y-92157890D01*
X146630637Y-92151256D01*
X146628701Y-92121248D01*
X146623612Y-92118762D01*
X146621308Y-92139569D01*
X146249296Y-92139569D01*
X146237290Y-92102928D01*
X146222475Y-92065421D01*
X146589681Y-92065421D01*
X146590202Y-92069402D01*
X146604170Y-92088167D01*
X146610954Y-92089505D01*
X146609930Y-92074375D01*
X146609592Y-92073614D01*
X146750904Y-92073614D01*
X146758232Y-92080943D01*
X146765561Y-92073614D01*
X146758232Y-92066286D01*
X146750904Y-92073614D01*
X146609592Y-92073614D01*
X146605199Y-92063721D01*
X146594391Y-92052104D01*
X146589681Y-92065421D01*
X146222475Y-92065421D01*
X146221790Y-92063686D01*
X146204054Y-92022316D01*
X146575024Y-92022316D01*
X146576082Y-92030075D01*
X146584795Y-92032087D01*
X146586549Y-92029939D01*
X146584795Y-92012545D01*
X146580387Y-92010252D01*
X146575024Y-92022316D01*
X146204054Y-92022316D01*
X146194629Y-92000331D01*
X146750904Y-92000331D01*
X146758232Y-92007659D01*
X146765561Y-92000331D01*
X146758232Y-91993003D01*
X146750904Y-92000331D01*
X146194629Y-92000331D01*
X146185203Y-91978346D01*
X146560368Y-91978346D01*
X146561425Y-91986105D01*
X146570139Y-91988117D01*
X146571893Y-91985969D01*
X146570139Y-91968575D01*
X146565730Y-91966282D01*
X146560368Y-91978346D01*
X146185203Y-91978346D01*
X146174158Y-91952582D01*
X146147626Y-91897734D01*
X146531503Y-91897734D01*
X146533309Y-91907657D01*
X146545711Y-91934376D01*
X146553871Y-91944326D01*
X146559919Y-91941704D01*
X146558113Y-91931782D01*
X146545711Y-91905063D01*
X146537551Y-91895113D01*
X146531503Y-91897734D01*
X146147626Y-91897734D01*
X146133446Y-91868421D01*
X146516398Y-91868421D01*
X146523726Y-91875749D01*
X146531054Y-91868421D01*
X146523726Y-91861093D01*
X146516398Y-91868421D01*
X146133446Y-91868421D01*
X146120503Y-91841665D01*
X146079475Y-91765824D01*
X146473466Y-91765824D01*
X146479064Y-91785564D01*
X146494413Y-91817123D01*
X146495043Y-91818220D01*
X146509413Y-91838911D01*
X146515359Y-91839108D01*
X146721591Y-91839108D01*
X146728919Y-91846436D01*
X146736247Y-91839108D01*
X146728919Y-91831779D01*
X146721591Y-91839108D01*
X146515359Y-91839108D01*
X146509761Y-91819368D01*
X146494413Y-91787809D01*
X146493782Y-91786712D01*
X146479412Y-91766021D01*
X146473466Y-91765824D01*
X146079475Y-91765824D01*
X146058896Y-91727783D01*
X146046633Y-91707198D01*
X146443114Y-91707198D01*
X146450443Y-91714526D01*
X146457771Y-91707198D01*
X146450443Y-91699869D01*
X146443114Y-91707198D01*
X146046633Y-91707198D01*
X146029169Y-91677884D01*
X146428458Y-91677884D01*
X146435786Y-91685213D01*
X146443114Y-91677884D01*
X146435786Y-91670556D01*
X146428458Y-91677884D01*
X146029169Y-91677884D01*
X145997577Y-91624856D01*
X146399144Y-91624856D01*
X146399691Y-91629155D01*
X146413801Y-91648571D01*
X146419427Y-91650919D01*
X146428458Y-91642973D01*
X146427910Y-91638674D01*
X146413801Y-91619258D01*
X146408175Y-91616910D01*
X146399144Y-91624856D01*
X145997577Y-91624856D01*
X145987409Y-91607789D01*
X145962357Y-91568914D01*
X146373424Y-91568914D01*
X146377159Y-91582616D01*
X146380170Y-91586955D01*
X146393546Y-91597273D01*
X146395551Y-91596318D01*
X146391816Y-91582616D01*
X146388805Y-91578277D01*
X146375429Y-91567959D01*
X146373424Y-91568914D01*
X145962357Y-91568914D01*
X145904111Y-91478531D01*
X145901278Y-91474395D01*
X146319728Y-91474395D01*
X146324386Y-91487348D01*
X146326697Y-91491781D01*
X146348271Y-91529204D01*
X146363542Y-91548675D01*
X146369281Y-91545974D01*
X146369268Y-91545576D01*
X146360142Y-91524413D01*
X146339208Y-91494676D01*
X146331596Y-91485591D01*
X146319728Y-91474395D01*
X145901278Y-91474395D01*
X145849454Y-91398732D01*
X146272456Y-91398732D01*
X146281891Y-91421393D01*
X146293136Y-91439471D01*
X146304907Y-91450706D01*
X146305982Y-91444054D01*
X146296548Y-91421393D01*
X146285303Y-91403315D01*
X146273531Y-91392079D01*
X146272456Y-91398732D01*
X145849454Y-91398732D01*
X145815434Y-91349064D01*
X146241514Y-91349064D01*
X146245249Y-91362766D01*
X146248260Y-91367105D01*
X146261636Y-91377423D01*
X146263641Y-91376468D01*
X146259906Y-91362766D01*
X146256895Y-91358427D01*
X146243519Y-91348109D01*
X146241514Y-91349064D01*
X145815434Y-91349064D01*
X145807074Y-91336859D01*
X145784305Y-91305094D01*
X146212201Y-91305094D01*
X146215936Y-91318796D01*
X146218947Y-91323135D01*
X146232323Y-91333453D01*
X146234327Y-91332498D01*
X146230593Y-91318796D01*
X146227581Y-91314457D01*
X146214206Y-91304139D01*
X146212201Y-91305094D01*
X145784305Y-91305094D01*
X145745563Y-91251046D01*
X146164638Y-91251046D01*
X146169988Y-91258615D01*
X146190287Y-91276696D01*
X146200906Y-91284883D01*
X146208496Y-91288523D01*
X146195820Y-91271162D01*
X146191251Y-91265487D01*
X146171767Y-91246659D01*
X146164638Y-91251046D01*
X145745563Y-91251046D01*
X145694368Y-91179625D01*
X145686684Y-91169249D01*
X146115464Y-91169249D01*
X146128161Y-91192410D01*
X146140510Y-91210202D01*
X146156495Y-91228419D01*
X146160850Y-91226275D01*
X146150418Y-91202359D01*
X146138792Y-91184273D01*
X146119068Y-91163913D01*
X146117479Y-91163063D01*
X146115464Y-91169249D01*
X145686684Y-91169249D01*
X145635326Y-91099900D01*
X146065634Y-91099900D01*
X146069369Y-91113603D01*
X146072380Y-91117941D01*
X146085756Y-91128259D01*
X146087761Y-91127305D01*
X146084026Y-91113603D01*
X146081015Y-91109264D01*
X146067639Y-91098946D01*
X146065634Y-91099900D01*
X145635326Y-91099900D01*
X145564066Y-91003678D01*
X145562917Y-91002138D01*
X145993290Y-91002138D01*
X146002031Y-91023078D01*
X146014897Y-91043123D01*
X146034269Y-91063257D01*
X146034381Y-91063326D01*
X146042851Y-91063844D01*
X146034111Y-91042904D01*
X146021245Y-91022859D01*
X146001873Y-91002725D01*
X146001760Y-91002656D01*
X145993290Y-91002138D01*
X145562917Y-91002138D01*
X145553131Y-90989021D01*
X146164638Y-90989021D01*
X146171966Y-90996349D01*
X146179294Y-90989021D01*
X146171966Y-90981693D01*
X146164638Y-90989021D01*
X145553131Y-90989021D01*
X145517351Y-90941060D01*
X145450177Y-90849965D01*
X145432979Y-90826333D01*
X145862160Y-90826333D01*
X145875890Y-90850058D01*
X145902310Y-90888742D01*
X145908918Y-90897922D01*
X145939272Y-90938166D01*
X145961958Y-90965139D01*
X145972481Y-90973416D01*
X145972441Y-90969594D01*
X145961261Y-90948278D01*
X145938691Y-90916050D01*
X145929166Y-90902633D01*
X145920780Y-90886424D01*
X146106011Y-90886424D01*
X146113339Y-90893753D01*
X146120668Y-90886424D01*
X146113339Y-90879096D01*
X146106011Y-90886424D01*
X145920780Y-90886424D01*
X145911427Y-90868347D01*
X145909684Y-90846032D01*
X145911369Y-90842454D01*
X146106011Y-90842454D01*
X146113339Y-90849783D01*
X146120668Y-90842454D01*
X146113339Y-90835126D01*
X146106011Y-90842454D01*
X145911369Y-90842454D01*
X145913309Y-90838336D01*
X145908021Y-90838822D01*
X145892287Y-90839528D01*
X145866858Y-90824166D01*
X145863162Y-90821289D01*
X145862160Y-90826333D01*
X145432979Y-90826333D01*
X145386540Y-90762520D01*
X145379514Y-90752720D01*
X145798221Y-90752720D01*
X145803571Y-90760289D01*
X145823870Y-90778369D01*
X145834490Y-90786556D01*
X145842080Y-90790196D01*
X145829404Y-90772835D01*
X145826454Y-90769171D01*
X146003414Y-90769171D01*
X146010743Y-90776499D01*
X146018071Y-90769171D01*
X146010743Y-90761843D01*
X146003414Y-90769171D01*
X145826454Y-90769171D01*
X145824835Y-90767161D01*
X145805350Y-90748333D01*
X145798221Y-90752720D01*
X145379514Y-90752720D01*
X145330475Y-90684322D01*
X145754251Y-90684322D01*
X145759322Y-90697408D01*
X145779900Y-90719742D01*
X145792731Y-90729529D01*
X145797833Y-90730477D01*
X145794184Y-90725201D01*
X145900818Y-90725201D01*
X145908146Y-90732529D01*
X145915474Y-90725201D01*
X145908146Y-90717873D01*
X145900818Y-90725201D01*
X145794184Y-90725201D01*
X145784047Y-90710544D01*
X145769344Y-90690394D01*
X145758398Y-90675124D01*
X145757132Y-90673993D01*
X145754251Y-90684322D01*
X145330475Y-90684322D01*
X145329990Y-90683646D01*
X145284077Y-90618267D01*
X145252349Y-90571306D01*
X145211714Y-90505774D01*
X145144013Y-90385857D01*
X145075969Y-90253818D01*
X145012527Y-90119405D01*
X145006065Y-90104173D01*
X145388081Y-90104173D01*
X145389293Y-90110539D01*
X145402594Y-90141256D01*
X145428253Y-90189659D01*
X145463386Y-90251061D01*
X145505108Y-90320774D01*
X145550536Y-90394111D01*
X145596783Y-90466382D01*
X145640966Y-90532902D01*
X145680200Y-90588981D01*
X145711601Y-90629933D01*
X145718956Y-90638618D01*
X145732606Y-90652666D01*
X145730558Y-90645403D01*
X145713952Y-90618707D01*
X145686761Y-90578634D01*
X145710281Y-90578634D01*
X145717609Y-90585963D01*
X145724938Y-90578634D01*
X145717609Y-90571306D01*
X145710281Y-90578634D01*
X145686761Y-90578634D01*
X145683925Y-90574454D01*
X145641615Y-90514521D01*
X145624976Y-90490694D01*
X145680968Y-90490694D01*
X145688296Y-90498023D01*
X145695624Y-90490694D01*
X145688296Y-90483366D01*
X145680968Y-90490694D01*
X145624976Y-90490694D01*
X145624642Y-90490215D01*
X145595287Y-90444604D01*
X145576645Y-90410396D01*
X145572169Y-90393604D01*
X145573920Y-90389520D01*
X145572519Y-90388098D01*
X145754251Y-90388098D01*
X145761579Y-90395426D01*
X145768908Y-90388098D01*
X145761579Y-90380769D01*
X145754251Y-90388098D01*
X145572519Y-90388098D01*
X145565297Y-90380769D01*
X145563498Y-90380252D01*
X145547741Y-90363798D01*
X145523884Y-90328881D01*
X145496342Y-90281837D01*
X145494853Y-90279127D01*
X145567308Y-90279127D01*
X145571043Y-90292829D01*
X145574054Y-90297168D01*
X145587429Y-90307486D01*
X145589434Y-90306532D01*
X145585699Y-90292829D01*
X145582688Y-90288491D01*
X145569313Y-90278173D01*
X145567308Y-90279127D01*
X145494853Y-90279127D01*
X145484824Y-90260870D01*
X145444222Y-90188501D01*
X145432258Y-90168248D01*
X145534401Y-90168248D01*
X145541729Y-90175576D01*
X145549058Y-90168248D01*
X145541729Y-90160920D01*
X145534401Y-90168248D01*
X145432258Y-90168248D01*
X145423599Y-90153591D01*
X145490431Y-90153591D01*
X145497759Y-90160920D01*
X145505088Y-90153591D01*
X145593028Y-90153591D01*
X145600356Y-90160920D01*
X145607684Y-90153591D01*
X145600356Y-90146263D01*
X145593028Y-90153591D01*
X145505088Y-90153591D01*
X145497759Y-90146263D01*
X145490431Y-90153591D01*
X145423599Y-90153591D01*
X145413874Y-90137129D01*
X145394816Y-90108454D01*
X145388081Y-90104173D01*
X145006065Y-90104173D01*
X145002159Y-90094965D01*
X145490431Y-90094965D01*
X145497759Y-90102293D01*
X145505088Y-90094965D01*
X145497759Y-90087636D01*
X145490431Y-90094965D01*
X145002159Y-90094965D01*
X144996977Y-90082751D01*
X145422033Y-90082751D01*
X145424181Y-90084505D01*
X145441575Y-90082751D01*
X145443868Y-90078342D01*
X145431804Y-90072980D01*
X145424045Y-90074037D01*
X145422033Y-90082751D01*
X144996977Y-90082751D01*
X144981172Y-90045496D01*
X145362329Y-90045496D01*
X145366792Y-90062619D01*
X145374101Y-90076297D01*
X145385004Y-90080696D01*
X145386573Y-90073631D01*
X145374996Y-90054414D01*
X145373066Y-90052521D01*
X145370734Y-90050995D01*
X145563714Y-90050995D01*
X145571043Y-90058323D01*
X145578371Y-90050995D01*
X145571043Y-90043666D01*
X145563714Y-90050995D01*
X145370734Y-90050995D01*
X145362329Y-90045496D01*
X144981172Y-90045496D01*
X144958633Y-89992368D01*
X144940492Y-89948398D01*
X145315590Y-89948398D01*
X145321187Y-89968138D01*
X145336536Y-89999696D01*
X145337167Y-90000793D01*
X145351536Y-90021484D01*
X145357482Y-90021681D01*
X145351885Y-90001941D01*
X145336536Y-89970383D01*
X145335905Y-89969286D01*
X145321536Y-89948595D01*
X145315590Y-89948398D01*
X144940492Y-89948398D01*
X144910258Y-89875115D01*
X145285687Y-89875115D01*
X145287492Y-89885037D01*
X145299894Y-89911756D01*
X145308054Y-89921706D01*
X145314102Y-89919085D01*
X145312297Y-89909162D01*
X145299894Y-89882443D01*
X145291735Y-89872493D01*
X145285687Y-89875115D01*
X144910258Y-89875115D01*
X144880024Y-89801831D01*
X145256373Y-89801831D01*
X145258179Y-89811754D01*
X145270581Y-89838473D01*
X145278741Y-89848423D01*
X145284789Y-89845801D01*
X145282983Y-89835879D01*
X145280786Y-89831145D01*
X145431804Y-89831145D01*
X145439133Y-89838473D01*
X145446461Y-89831145D01*
X145439133Y-89823816D01*
X145431804Y-89831145D01*
X145280786Y-89831145D01*
X145270581Y-89809160D01*
X145262421Y-89799209D01*
X145256373Y-89801831D01*
X144880024Y-89801831D01*
X144878455Y-89798029D01*
X144781215Y-89586341D01*
X144750406Y-89527766D01*
X145141114Y-89527766D01*
X145143109Y-89532598D01*
X145154450Y-89560183D01*
X145172861Y-89605031D01*
X145195509Y-89660243D01*
X145206519Y-89686609D01*
X145227440Y-89733832D01*
X145243108Y-89765292D01*
X145250760Y-89775239D01*
X145250533Y-89769897D01*
X145242302Y-89742702D01*
X145237068Y-89728548D01*
X145387834Y-89728548D01*
X145395163Y-89735876D01*
X145402491Y-89728548D01*
X145395163Y-89721220D01*
X145387834Y-89728548D01*
X145237068Y-89728548D01*
X145231649Y-89713891D01*
X145270581Y-89713891D01*
X145277909Y-89721220D01*
X145285238Y-89713891D01*
X145277909Y-89706563D01*
X145270581Y-89713891D01*
X145231649Y-89713891D01*
X145225866Y-89698249D01*
X145208500Y-89655265D01*
X145226611Y-89655265D01*
X145233939Y-89662593D01*
X145241268Y-89655265D01*
X145233939Y-89647936D01*
X145226611Y-89655265D01*
X145208500Y-89655265D01*
X145203449Y-89642762D01*
X145196293Y-89625951D01*
X145270581Y-89625951D01*
X145277909Y-89633280D01*
X145285238Y-89625951D01*
X145277909Y-89618623D01*
X145270581Y-89625951D01*
X145196293Y-89625951D01*
X145190125Y-89611460D01*
X145170394Y-89567325D01*
X145285238Y-89567325D01*
X145292566Y-89574653D01*
X145299894Y-89567325D01*
X145292566Y-89559996D01*
X145285238Y-89567325D01*
X145170394Y-89567325D01*
X145168196Y-89562409D01*
X145151650Y-89528614D01*
X145143312Y-89516026D01*
X145142232Y-89516180D01*
X145141114Y-89527766D01*
X144750406Y-89527766D01*
X144732668Y-89494041D01*
X145124014Y-89494041D01*
X145131343Y-89501370D01*
X145138671Y-89494041D01*
X145131343Y-89486713D01*
X145124014Y-89494041D01*
X144732668Y-89494041D01*
X144717250Y-89464728D01*
X145109358Y-89464728D01*
X145116686Y-89472056D01*
X145124014Y-89464728D01*
X145116686Y-89457400D01*
X145109358Y-89464728D01*
X144717250Y-89464728D01*
X144701832Y-89435415D01*
X145094701Y-89435415D01*
X145102029Y-89442743D01*
X145109358Y-89435415D01*
X145102029Y-89428086D01*
X145094701Y-89435415D01*
X144701832Y-89435415D01*
X144694123Y-89420758D01*
X145124014Y-89420758D01*
X145131343Y-89428086D01*
X145138671Y-89420758D01*
X145131343Y-89413430D01*
X145124014Y-89420758D01*
X144694123Y-89420758D01*
X144682559Y-89398773D01*
X145080044Y-89398773D01*
X145081102Y-89406532D01*
X145089815Y-89408544D01*
X145091570Y-89406396D01*
X145089815Y-89389002D01*
X145085407Y-89386709D01*
X145080044Y-89398773D01*
X144682559Y-89398773D01*
X144681209Y-89396207D01*
X144611446Y-89281810D01*
X145027302Y-89281810D01*
X145030119Y-89296167D01*
X145043403Y-89325490D01*
X145045527Y-89329537D01*
X145062526Y-89357863D01*
X145073469Y-89369460D01*
X145074160Y-89369170D01*
X145071343Y-89354812D01*
X145058059Y-89325490D01*
X145055935Y-89321442D01*
X145038936Y-89293116D01*
X145027993Y-89281520D01*
X145027302Y-89281810D01*
X144611446Y-89281810D01*
X144575836Y-89223416D01*
X144544456Y-89179213D01*
X144968675Y-89179213D01*
X144971492Y-89193570D01*
X144984776Y-89222893D01*
X144986900Y-89226941D01*
X145003899Y-89255266D01*
X145014842Y-89266863D01*
X145015533Y-89266573D01*
X145012717Y-89252216D01*
X144999433Y-89222893D01*
X144997309Y-89218845D01*
X144980310Y-89190520D01*
X144976282Y-89186251D01*
X145065388Y-89186251D01*
X145072716Y-89193580D01*
X145080044Y-89186251D01*
X145072716Y-89178923D01*
X145065388Y-89186251D01*
X144976282Y-89186251D01*
X144969367Y-89178923D01*
X144968675Y-89179213D01*
X144544456Y-89179213D01*
X144528643Y-89156938D01*
X144948134Y-89156938D01*
X144955463Y-89164266D01*
X144962791Y-89156938D01*
X144955463Y-89149610D01*
X144948134Y-89156938D01*
X144528643Y-89156938D01*
X144518238Y-89142281D01*
X145182641Y-89142281D01*
X145189969Y-89149610D01*
X145197298Y-89142281D01*
X145189969Y-89134953D01*
X145182641Y-89142281D01*
X144518238Y-89142281D01*
X144507834Y-89127625D01*
X144933478Y-89127625D01*
X144940806Y-89134953D01*
X144948134Y-89127625D01*
X144940806Y-89120296D01*
X144933478Y-89127625D01*
X144507834Y-89127625D01*
X144462495Y-89063758D01*
X144435178Y-89030527D01*
X144869652Y-89030527D01*
X144887414Y-89058005D01*
X144907813Y-89085219D01*
X144924945Y-89103249D01*
X144930020Y-89101719D01*
X144920137Y-89078785D01*
X144908008Y-89060657D01*
X144879888Y-89031151D01*
X144870258Y-89024490D01*
X144869652Y-89030527D01*
X144435178Y-89030527D01*
X144352060Y-88929415D01*
X144798976Y-88929415D01*
X144816179Y-88955409D01*
X144833244Y-88977944D01*
X144852100Y-88999370D01*
X144857181Y-88999153D01*
X144846854Y-88976188D01*
X144834887Y-88958209D01*
X144814950Y-88937088D01*
X144977448Y-88937088D01*
X144984776Y-88944416D01*
X144992104Y-88937088D01*
X144984776Y-88929760D01*
X144977448Y-88937088D01*
X144814950Y-88937088D01*
X144806895Y-88928554D01*
X144799836Y-88923640D01*
X144798976Y-88929415D01*
X144352060Y-88929415D01*
X144338584Y-88913022D01*
X144300156Y-88872087D01*
X144761191Y-88872087D01*
X144764926Y-88885790D01*
X144767937Y-88890128D01*
X144781313Y-88900446D01*
X144783318Y-88899492D01*
X144779583Y-88885790D01*
X144776572Y-88881451D01*
X144763196Y-88871133D01*
X144761191Y-88872087D01*
X144300156Y-88872087D01*
X144249418Y-88818040D01*
X144713628Y-88818040D01*
X144718978Y-88825609D01*
X144739277Y-88843689D01*
X144749897Y-88851877D01*
X144757486Y-88855516D01*
X144744811Y-88838156D01*
X144740241Y-88832481D01*
X144720757Y-88813653D01*
X144713628Y-88818040D01*
X144249418Y-88818040D01*
X144201501Y-88766998D01*
X144193807Y-88759294D01*
X144051957Y-88625078D01*
X144559561Y-88625078D01*
X144563775Y-88633780D01*
X144583689Y-88659438D01*
X144616987Y-88698917D01*
X144635315Y-88719926D01*
X144671176Y-88759866D01*
X144697455Y-88787516D01*
X144709454Y-88797850D01*
X144705672Y-88789423D01*
X144687203Y-88764267D01*
X144684724Y-88761208D01*
X144786911Y-88761208D01*
X144794239Y-88768536D01*
X144801568Y-88761208D01*
X144794239Y-88753880D01*
X144786911Y-88761208D01*
X144684724Y-88761208D01*
X144657998Y-88728231D01*
X144630787Y-88696795D01*
X144593735Y-88656725D01*
X144565531Y-88629298D01*
X144640344Y-88629298D01*
X144647673Y-88636626D01*
X144655001Y-88629298D01*
X144684314Y-88629298D01*
X144691643Y-88636626D01*
X144698971Y-88629298D01*
X144691643Y-88621970D01*
X144684314Y-88629298D01*
X144655001Y-88629298D01*
X144647673Y-88621970D01*
X144640344Y-88629298D01*
X144565531Y-88629298D01*
X144559561Y-88625078D01*
X144051957Y-88625078D01*
X144041489Y-88615173D01*
X143889984Y-88489312D01*
X143731805Y-88376342D01*
X143726026Y-88372806D01*
X144318684Y-88372806D01*
X144320876Y-88377133D01*
X144338886Y-88397998D01*
X144370995Y-88432215D01*
X144413166Y-88475403D01*
X144441652Y-88503819D01*
X144481058Y-88542038D01*
X144509534Y-88568261D01*
X144522305Y-88578000D01*
X144520113Y-88573673D01*
X144502103Y-88552808D01*
X144469994Y-88518591D01*
X144449290Y-88497388D01*
X144742941Y-88497388D01*
X144750269Y-88504716D01*
X144757598Y-88497388D01*
X144750269Y-88490060D01*
X144742941Y-88497388D01*
X144449290Y-88497388D01*
X144427823Y-88475403D01*
X144399337Y-88446987D01*
X144359931Y-88408768D01*
X144331455Y-88382545D01*
X144318684Y-88372806D01*
X143726026Y-88372806D01*
X143718042Y-88367921D01*
X144513320Y-88367921D01*
X144515468Y-88369675D01*
X144532862Y-88367921D01*
X144535155Y-88363512D01*
X144523091Y-88358150D01*
X144515332Y-88359207D01*
X144513320Y-88367921D01*
X143718042Y-88367921D01*
X143559464Y-88270896D01*
X143413255Y-88193046D01*
X144100383Y-88193046D01*
X144104020Y-88200620D01*
X144127361Y-88221254D01*
X144149794Y-88239588D01*
X144197478Y-88279406D01*
X144244614Y-88319583D01*
X144262107Y-88334358D01*
X144270816Y-88340194D01*
X144258668Y-88326733D01*
X144253384Y-88321508D01*
X144405838Y-88321508D01*
X144413166Y-88328836D01*
X144420494Y-88321508D01*
X144413166Y-88314180D01*
X144405838Y-88321508D01*
X144253384Y-88321508D01*
X144225989Y-88294419D01*
X144223678Y-88292195D01*
X144508434Y-88292195D01*
X144515763Y-88299523D01*
X144523091Y-88292195D01*
X144515763Y-88284866D01*
X144508434Y-88292195D01*
X144223678Y-88292195D01*
X144217784Y-88286522D01*
X144191898Y-88262881D01*
X144479121Y-88262881D01*
X144486449Y-88270210D01*
X144493778Y-88262881D01*
X144486449Y-88255553D01*
X144479121Y-88262881D01*
X144191898Y-88262881D01*
X144175851Y-88248225D01*
X144244614Y-88248225D01*
X144251943Y-88255553D01*
X144259271Y-88248225D01*
X144251943Y-88240896D01*
X144244614Y-88248225D01*
X144175851Y-88248225D01*
X144173558Y-88246131D01*
X144140759Y-88218911D01*
X144288584Y-88218911D01*
X144295913Y-88226240D01*
X144303241Y-88218911D01*
X144295913Y-88211583D01*
X144288584Y-88218911D01*
X144140759Y-88218911D01*
X144134671Y-88213859D01*
X144108736Y-88196090D01*
X144100383Y-88193046D01*
X143413255Y-88193046D01*
X143379252Y-88174941D01*
X144156674Y-88174941D01*
X144164003Y-88182270D01*
X144171331Y-88174941D01*
X144164003Y-88167613D01*
X144156674Y-88174941D01*
X143379252Y-88174941D01*
X143365474Y-88167605D01*
X143282859Y-88127932D01*
X143204920Y-88095502D01*
X143961347Y-88095502D01*
X143975122Y-88108478D01*
X144002830Y-88129006D01*
X144033556Y-88148650D01*
X144058468Y-88161853D01*
X144068735Y-88163061D01*
X144066393Y-88160285D01*
X144229958Y-88160285D01*
X144237286Y-88167613D01*
X144244614Y-88160285D01*
X144237286Y-88152956D01*
X144229958Y-88160285D01*
X144066393Y-88160285D01*
X144064436Y-88157965D01*
X144041872Y-88140245D01*
X144006444Y-88115770D01*
X143982448Y-88100781D01*
X143962192Y-88090863D01*
X143961347Y-88095502D01*
X143204920Y-88095502D01*
X143076339Y-88042000D01*
X143878198Y-88042000D01*
X143884477Y-88049880D01*
X143907511Y-88065016D01*
X143926053Y-88073277D01*
X143936825Y-88073376D01*
X143930545Y-88065496D01*
X143907511Y-88050360D01*
X143888970Y-88042100D01*
X143878198Y-88042000D01*
X143076339Y-88042000D01*
X143064262Y-88036975D01*
X142943936Y-87995880D01*
X143806136Y-87995880D01*
X143816848Y-88003526D01*
X143841556Y-88021530D01*
X143856318Y-88032117D01*
X143863243Y-88034524D01*
X143850754Y-88017382D01*
X143835756Y-88002117D01*
X143815334Y-87991733D01*
X143810953Y-87991932D01*
X143806136Y-87995880D01*
X142943936Y-87995880D01*
X142848758Y-87963374D01*
X143764538Y-87963374D01*
X143768273Y-87977076D01*
X143771284Y-87981415D01*
X143784660Y-87991733D01*
X143786664Y-87990779D01*
X143782930Y-87977076D01*
X143779918Y-87972738D01*
X143766543Y-87962420D01*
X143764538Y-87963374D01*
X142848758Y-87963374D01*
X142828768Y-87956547D01*
X142823503Y-87955091D01*
X143731631Y-87955091D01*
X143738960Y-87962420D01*
X143746288Y-87955091D01*
X143738960Y-87947763D01*
X143731631Y-87955091D01*
X142823503Y-87955091D01*
X142645127Y-87905766D01*
X143643901Y-87905766D01*
X143653431Y-87914439D01*
X143687661Y-87931930D01*
X143708944Y-87941766D01*
X143713871Y-87941740D01*
X143695852Y-87926587D01*
X143674617Y-87912172D01*
X143653104Y-87903793D01*
X143643901Y-87905766D01*
X142645127Y-87905766D01*
X142584553Y-87889016D01*
X142550801Y-87881808D01*
X143599721Y-87881808D01*
X143607050Y-87889136D01*
X143614378Y-87881808D01*
X143607050Y-87874480D01*
X143599721Y-87881808D01*
X142550801Y-87881808D01*
X142482167Y-87867151D01*
X143570408Y-87867151D01*
X143577736Y-87874480D01*
X143585065Y-87867151D01*
X143577736Y-87859823D01*
X143570408Y-87867151D01*
X142482167Y-87867151D01*
X142339795Y-87836747D01*
X142231535Y-87820933D01*
X143498646Y-87820933D01*
X143515096Y-87838992D01*
X143533451Y-87854607D01*
X143547407Y-87858396D01*
X143543728Y-87848668D01*
X143522107Y-87831981D01*
X143504014Y-87821394D01*
X143498646Y-87820933D01*
X142231535Y-87820933D01*
X142163316Y-87810968D01*
X143443383Y-87810968D01*
X143445532Y-87812722D01*
X143462926Y-87810968D01*
X143464197Y-87808525D01*
X143716975Y-87808525D01*
X143724303Y-87815853D01*
X143731631Y-87808525D01*
X143724303Y-87801196D01*
X143716975Y-87808525D01*
X143464197Y-87808525D01*
X143465219Y-87806559D01*
X143453155Y-87801196D01*
X143445395Y-87802254D01*
X143443383Y-87810968D01*
X142163316Y-87810968D01*
X142102669Y-87802109D01*
X142074100Y-87799288D01*
X141989130Y-87792900D01*
X141888254Y-87787368D01*
X141778993Y-87782923D01*
X141668870Y-87779799D01*
X141565407Y-87778227D01*
X141476126Y-87778440D01*
X141408550Y-87780670D01*
X141198130Y-87799386D01*
X140885287Y-87849208D01*
X140580797Y-87924076D01*
X140286565Y-88023031D01*
X140004496Y-88145117D01*
X139736497Y-88289376D01*
X139484475Y-88454850D01*
X139250334Y-88640584D01*
X139035982Y-88845619D01*
X138843323Y-89068998D01*
X138792341Y-89136398D01*
X138718290Y-89242742D01*
X138645594Y-89358373D01*
X138571535Y-89487902D01*
X138493398Y-89635938D01*
X138408467Y-89807092D01*
X138381123Y-89863009D01*
X138332790Y-89959457D01*
X138285944Y-90050189D01*
X138243332Y-90130005D01*
X138207703Y-90193701D01*
X138181807Y-90236075D01*
X138163835Y-90261941D01*
X138075306Y-90371879D01*
X137964569Y-90487170D01*
X137835778Y-90603722D01*
X137693085Y-90717445D01*
X137612729Y-90780353D01*
X137496500Y-90879908D01*
X137381602Y-90987335D01*
X137273935Y-91096815D01*
X137179402Y-91202525D01*
X137103902Y-91298644D01*
X137010246Y-91441138D01*
X136893151Y-91662464D01*
X136798963Y-91897954D01*
X136727775Y-92145047D01*
X136679680Y-92401181D01*
X136654772Y-92663794D01*
X136653142Y-92930326D01*
X136329423Y-92930326D01*
X136329390Y-92698989D01*
X136351182Y-92423999D01*
X136394404Y-92155909D01*
X136458658Y-91899491D01*
X136543542Y-91659515D01*
X136548090Y-91648558D01*
X136665614Y-91397404D01*
X136800427Y-91167820D01*
X136954699Y-90957127D01*
X137130603Y-90762649D01*
X137330312Y-90581709D01*
X137555996Y-90411631D01*
X137611469Y-90367527D01*
X137683450Y-90298685D01*
X137760435Y-90215018D01*
X137837304Y-90122128D01*
X137908936Y-90025613D01*
X137927935Y-89995620D01*
X137960198Y-89939517D01*
X138000620Y-89865599D01*
X138046705Y-89778522D01*
X138095956Y-89682944D01*
X138145879Y-89583522D01*
X138160880Y-89553365D01*
X138260453Y-89360622D01*
X138355888Y-89190551D01*
X138450531Y-89038317D01*
X138547728Y-88899084D01*
X138650824Y-88768019D01*
X138763166Y-88640285D01*
X138888101Y-88511047D01*
X139064148Y-88347932D01*
X139313039Y-88151638D01*
X139581208Y-87975776D01*
X139866432Y-87821771D01*
X139978755Y-87772837D01*
X143398121Y-87772837D01*
X143401856Y-87786540D01*
X143404867Y-87790878D01*
X143418243Y-87801196D01*
X143420248Y-87800242D01*
X143416513Y-87786540D01*
X143413502Y-87782201D01*
X143400126Y-87771883D01*
X143398121Y-87772837D01*
X139978755Y-87772837D01*
X139997766Y-87764555D01*
X143350558Y-87764555D01*
X143357886Y-87771883D01*
X143365215Y-87764555D01*
X143357886Y-87757226D01*
X143350558Y-87764555D01*
X139997766Y-87764555D01*
X140065053Y-87735241D01*
X143863541Y-87735241D01*
X143870870Y-87742570D01*
X143878198Y-87735241D01*
X143870870Y-87727913D01*
X143863541Y-87735241D01*
X140065053Y-87735241D01*
X140163471Y-87692365D01*
X143162137Y-87692365D01*
X143182768Y-87704192D01*
X143194200Y-87706761D01*
X143194436Y-87705928D01*
X143218648Y-87705928D01*
X143225976Y-87713256D01*
X143233305Y-87705928D01*
X143225976Y-87698600D01*
X143218648Y-87705928D01*
X143194436Y-87705928D01*
X143196559Y-87698432D01*
X143193688Y-87694588D01*
X143187495Y-87691271D01*
X143350558Y-87691271D01*
X143357886Y-87698600D01*
X143365215Y-87691271D01*
X143357886Y-87683943D01*
X143350558Y-87691271D01*
X143187495Y-87691271D01*
X143173813Y-87683943D01*
X143165593Y-87684717D01*
X143162137Y-87692365D01*
X140163471Y-87692365D01*
X140166489Y-87691050D01*
X140179816Y-87685832D01*
X140196048Y-87679058D01*
X143120937Y-87679058D01*
X143123085Y-87680812D01*
X143140479Y-87679058D01*
X143142772Y-87674649D01*
X143130708Y-87669287D01*
X143122949Y-87670344D01*
X143120937Y-87679058D01*
X140196048Y-87679058D01*
X140226117Y-87666510D01*
X140230513Y-87664401D01*
X143076967Y-87664401D01*
X143079115Y-87666155D01*
X143096509Y-87664401D01*
X143098802Y-87659992D01*
X143086738Y-87654630D01*
X143078979Y-87655688D01*
X143076967Y-87664401D01*
X140230513Y-87664401D01*
X140257188Y-87651602D01*
X140262669Y-87647302D01*
X143028111Y-87647302D01*
X143035440Y-87654630D01*
X143042768Y-87647302D01*
X143035440Y-87639973D01*
X143028111Y-87647302D01*
X140262669Y-87647302D01*
X140266898Y-87643984D01*
X140255374Y-87644474D01*
X140220664Y-87655278D01*
X140167406Y-87675607D01*
X140099890Y-87703530D01*
X140022409Y-87737115D01*
X139939255Y-87774428D01*
X139854721Y-87813539D01*
X139773099Y-87852514D01*
X139698680Y-87889422D01*
X139635758Y-87922331D01*
X139588624Y-87949308D01*
X139579755Y-87954450D01*
X139545640Y-87968304D01*
X139523171Y-87968514D01*
X139515137Y-87964887D01*
X139515728Y-87973658D01*
X139509386Y-87988626D01*
X139481724Y-88013143D01*
X139437344Y-88042961D01*
X139390486Y-88072306D01*
X139352232Y-88097855D01*
X139330931Y-88114034D01*
X139309090Y-88133031D01*
X139272932Y-88160870D01*
X139233083Y-88189128D01*
X139196279Y-88213238D01*
X139169256Y-88228633D01*
X139158752Y-88230749D01*
X139164942Y-88218396D01*
X139191949Y-88189164D01*
X139237163Y-88148232D01*
X139297056Y-88098317D01*
X139368098Y-88042137D01*
X139446760Y-87982409D01*
X139529512Y-87921852D01*
X139612826Y-87863183D01*
X139672273Y-87823181D01*
X139730362Y-87823181D01*
X139737690Y-87830510D01*
X139745018Y-87823181D01*
X139737690Y-87815853D01*
X139730362Y-87823181D01*
X139672273Y-87823181D01*
X139693171Y-87809119D01*
X139767019Y-87762377D01*
X139812458Y-87735241D01*
X139891585Y-87735241D01*
X139898913Y-87742570D01*
X139906242Y-87735241D01*
X139898913Y-87727913D01*
X139891585Y-87735241D01*
X139812458Y-87735241D01*
X139820395Y-87730501D01*
X140001530Y-87634155D01*
X140293810Y-87634155D01*
X140301972Y-87637913D01*
X140319078Y-87635792D01*
X140353270Y-87625317D01*
X140361833Y-87620431D01*
X142959714Y-87620431D01*
X142961862Y-87622185D01*
X142979256Y-87620431D01*
X142981549Y-87616022D01*
X142969485Y-87610660D01*
X142961725Y-87611718D01*
X142959714Y-87620431D01*
X140361833Y-87620431D01*
X140368760Y-87616478D01*
X140360598Y-87612720D01*
X140343492Y-87614841D01*
X140309300Y-87625317D01*
X140293810Y-87634155D01*
X140001530Y-87634155D01*
X140056641Y-87604841D01*
X140396406Y-87604841D01*
X140404568Y-87608600D01*
X140421675Y-87606479D01*
X140431946Y-87603332D01*
X142896201Y-87603332D01*
X142903530Y-87610660D01*
X142910858Y-87603332D01*
X143379871Y-87603332D01*
X143387200Y-87610660D01*
X143394528Y-87603332D01*
X143387200Y-87596003D01*
X143379871Y-87603332D01*
X142910858Y-87603332D01*
X142903530Y-87596003D01*
X142896201Y-87603332D01*
X140431946Y-87603332D01*
X140455867Y-87596003D01*
X140468710Y-87588675D01*
X142866888Y-87588675D01*
X142874216Y-87596003D01*
X142881545Y-87588675D01*
X142874216Y-87581347D01*
X142866888Y-87588675D01*
X140468710Y-87588675D01*
X140471357Y-87587165D01*
X140463195Y-87583407D01*
X140446088Y-87585528D01*
X140411897Y-87596003D01*
X140396406Y-87604841D01*
X140056641Y-87604841D01*
X140087034Y-87588675D01*
X140140748Y-87588675D01*
X140148077Y-87596003D01*
X140155405Y-87588675D01*
X140148077Y-87581347D01*
X140140748Y-87588675D01*
X140087034Y-87588675D01*
X140109997Y-87576461D01*
X140497394Y-87576461D01*
X140499542Y-87578215D01*
X140516936Y-87576461D01*
X140518207Y-87574018D01*
X142822918Y-87574018D01*
X142830246Y-87581347D01*
X142837575Y-87574018D01*
X142830246Y-87566690D01*
X142822918Y-87574018D01*
X140518207Y-87574018D01*
X140519229Y-87572052D01*
X140507165Y-87566690D01*
X140499406Y-87567748D01*
X140497394Y-87576461D01*
X140109997Y-87576461D01*
X140118826Y-87571765D01*
X140156828Y-87555537D01*
X140542835Y-87555537D01*
X140548387Y-87562045D01*
X140556862Y-87564387D01*
X140576479Y-87560888D01*
X140576252Y-87555885D01*
X140573797Y-87555537D01*
X142755992Y-87555537D01*
X142761543Y-87562045D01*
X142770019Y-87564387D01*
X142789635Y-87560888D01*
X142789408Y-87555885D01*
X142770398Y-87553190D01*
X142755992Y-87555537D01*
X140573797Y-87555537D01*
X140557242Y-87553190D01*
X140542835Y-87555537D01*
X140156828Y-87555537D01*
X140178658Y-87546215D01*
X140601600Y-87546215D01*
X140609762Y-87549973D01*
X140626868Y-87547852D01*
X140637140Y-87544705D01*
X142691008Y-87544705D01*
X142698336Y-87552033D01*
X142705665Y-87544705D01*
X143130708Y-87544705D01*
X143138036Y-87552033D01*
X143145365Y-87544705D01*
X143138036Y-87537377D01*
X143130708Y-87544705D01*
X142705665Y-87544705D01*
X142698336Y-87537377D01*
X142691008Y-87544705D01*
X140637140Y-87544705D01*
X140661060Y-87537377D01*
X140676550Y-87528538D01*
X140671524Y-87526224D01*
X142624082Y-87526224D01*
X142629633Y-87532732D01*
X142638109Y-87535074D01*
X142657725Y-87531575D01*
X142657498Y-87526572D01*
X142638488Y-87523877D01*
X142624082Y-87526224D01*
X140671524Y-87526224D01*
X140668388Y-87524780D01*
X140651282Y-87526901D01*
X140617090Y-87537377D01*
X140601600Y-87546215D01*
X140178658Y-87546215D01*
X140259795Y-87511567D01*
X140718715Y-87511567D01*
X140724267Y-87518075D01*
X140732742Y-87520417D01*
X140752359Y-87516918D01*
X140752290Y-87515392D01*
X142573755Y-87515392D01*
X142581083Y-87522720D01*
X142588411Y-87515392D01*
X142581083Y-87508063D01*
X142573755Y-87515392D01*
X140752290Y-87515392D01*
X140752132Y-87511915D01*
X140733122Y-87509220D01*
X140718715Y-87511567D01*
X140259795Y-87511567D01*
X140294116Y-87496911D01*
X140791998Y-87496911D01*
X140797550Y-87503419D01*
X140806026Y-87505760D01*
X140820505Y-87503178D01*
X142490700Y-87503178D01*
X142492848Y-87504932D01*
X142510242Y-87503178D01*
X142512535Y-87498769D01*
X142500471Y-87493407D01*
X142492712Y-87494464D01*
X142490700Y-87503178D01*
X140820505Y-87503178D01*
X140825642Y-87502262D01*
X140825415Y-87497258D01*
X140806405Y-87494564D01*
X140791998Y-87496911D01*
X140294116Y-87496911D01*
X140326442Y-87483107D01*
X140868076Y-87483107D01*
X140869917Y-87488457D01*
X140876552Y-87490393D01*
X140906559Y-87488457D01*
X140909045Y-87483367D01*
X140898989Y-87482254D01*
X142433545Y-87482254D01*
X142439097Y-87488762D01*
X142447572Y-87491104D01*
X142467189Y-87487605D01*
X142467120Y-87486078D01*
X143028111Y-87486078D01*
X143035440Y-87493407D01*
X143042768Y-87486078D01*
X143035440Y-87478750D01*
X143028111Y-87486078D01*
X142467120Y-87486078D01*
X142466962Y-87482602D01*
X142447952Y-87479907D01*
X142433545Y-87482254D01*
X140898989Y-87482254D01*
X140888238Y-87481064D01*
X140868076Y-87483107D01*
X140326442Y-87483107D01*
X140360765Y-87468450D01*
X140941360Y-87468450D01*
X140943201Y-87473800D01*
X140949835Y-87475736D01*
X140979842Y-87473800D01*
X140981004Y-87471422D01*
X142324591Y-87471422D01*
X142331920Y-87478750D01*
X142339248Y-87471422D01*
X142353905Y-87471422D01*
X142361233Y-87478750D01*
X142368561Y-87471422D01*
X142361233Y-87464093D01*
X142353905Y-87471422D01*
X142339248Y-87471422D01*
X142331920Y-87464093D01*
X142324591Y-87471422D01*
X140981004Y-87471422D01*
X140982329Y-87468711D01*
X140961522Y-87466407D01*
X140941360Y-87468450D01*
X140360765Y-87468450D01*
X140382408Y-87459208D01*
X141025034Y-87459208D01*
X141027182Y-87460962D01*
X141044576Y-87459208D01*
X141045847Y-87456765D01*
X141078775Y-87456765D01*
X141086103Y-87464093D01*
X141090989Y-87459208D01*
X142256194Y-87459208D01*
X142258342Y-87460962D01*
X142275736Y-87459208D01*
X142278029Y-87454799D01*
X142265965Y-87449437D01*
X142258206Y-87450494D01*
X142256194Y-87459208D01*
X141090989Y-87459208D01*
X141093432Y-87456765D01*
X141086103Y-87449437D01*
X141078775Y-87456765D01*
X141045847Y-87456765D01*
X141046869Y-87454799D01*
X141034805Y-87449437D01*
X141027046Y-87450494D01*
X141025034Y-87459208D01*
X140382408Y-87459208D01*
X140428093Y-87439699D01*
X140432390Y-87438284D01*
X141143758Y-87438284D01*
X141149310Y-87444792D01*
X141157786Y-87447134D01*
X141172267Y-87444551D01*
X141200914Y-87444551D01*
X141203062Y-87446305D01*
X141220456Y-87444551D01*
X141222749Y-87440143D01*
X141218567Y-87438284D01*
X142081785Y-87438284D01*
X142087337Y-87444792D01*
X142095812Y-87447134D01*
X142115429Y-87443635D01*
X142115202Y-87438632D01*
X142096192Y-87435937D01*
X142081785Y-87438284D01*
X141218567Y-87438284D01*
X141210685Y-87434780D01*
X141202926Y-87435838D01*
X141200914Y-87444551D01*
X141172267Y-87444551D01*
X141177402Y-87443635D01*
X141177175Y-87438632D01*
X141158165Y-87435937D01*
X141143758Y-87438284D01*
X140432390Y-87438284D01*
X140465803Y-87427282D01*
X141321633Y-87427282D01*
X141331804Y-87430641D01*
X141364878Y-87433080D01*
X141405087Y-87430440D01*
X141412044Y-87427859D01*
X141410064Y-87427452D01*
X141855578Y-87427452D01*
X141862906Y-87434780D01*
X141870235Y-87427452D01*
X141884891Y-87427452D01*
X141892220Y-87434780D01*
X141899548Y-87427452D01*
X141914205Y-87427452D01*
X141921533Y-87434780D01*
X141926419Y-87429894D01*
X141948404Y-87429894D01*
X141950552Y-87431648D01*
X141967946Y-87429894D01*
X141970239Y-87425486D01*
X141958175Y-87420123D01*
X141950416Y-87421181D01*
X141948404Y-87429894D01*
X141926419Y-87429894D01*
X141928861Y-87427452D01*
X141921533Y-87420123D01*
X141914205Y-87427452D01*
X141899548Y-87427452D01*
X141892220Y-87420123D01*
X141884891Y-87427452D01*
X141870235Y-87427452D01*
X141862906Y-87420123D01*
X141855578Y-87427452D01*
X141410064Y-87427452D01*
X141399339Y-87425247D01*
X141364580Y-87424315D01*
X141337474Y-87424975D01*
X141321633Y-87427282D01*
X140465803Y-87427282D01*
X140509799Y-87412795D01*
X141518475Y-87412795D01*
X141525803Y-87420123D01*
X141530689Y-87415238D01*
X141567330Y-87415238D01*
X141569479Y-87416992D01*
X141586873Y-87415238D01*
X141588144Y-87412795D01*
X141606415Y-87412795D01*
X141613743Y-87420123D01*
X141621071Y-87412795D01*
X141826265Y-87412795D01*
X141833593Y-87420123D01*
X141840921Y-87412795D01*
X141833593Y-87405467D01*
X141826265Y-87412795D01*
X141621071Y-87412795D01*
X141613743Y-87405467D01*
X141606415Y-87412795D01*
X141588144Y-87412795D01*
X141589166Y-87410829D01*
X141577102Y-87405467D01*
X141569342Y-87406524D01*
X141567330Y-87415238D01*
X141530689Y-87415238D01*
X141533132Y-87412795D01*
X141525803Y-87405467D01*
X141518475Y-87412795D01*
X140509799Y-87412795D01*
X140749160Y-87333979D01*
X140787377Y-87324855D01*
X142837575Y-87324855D01*
X142844903Y-87332183D01*
X142852231Y-87324855D01*
X142844903Y-87317527D01*
X142837575Y-87324855D01*
X140787377Y-87324855D01*
X141082987Y-87254280D01*
X141289068Y-87222258D01*
X141503818Y-87222258D01*
X141511147Y-87229587D01*
X141518475Y-87222258D01*
X141511147Y-87214930D01*
X141503818Y-87222258D01*
X141289068Y-87222258D01*
X141430535Y-87200276D01*
X141460347Y-87197386D01*
X141545930Y-87192685D01*
X141652045Y-87190369D01*
X141772688Y-87190281D01*
X141901856Y-87192261D01*
G37*
G36*
X141018878Y-88858956D02*
G01*
X141070699Y-88866217D01*
X141101623Y-88877285D01*
X141106043Y-88880744D01*
X141114440Y-88890426D01*
X141120484Y-88905641D01*
X141124467Y-88930352D01*
X141126678Y-88968521D01*
X141127411Y-89024109D01*
X141126955Y-89101080D01*
X141125604Y-89203396D01*
X141125219Y-89229197D01*
X141123514Y-89325823D01*
X141121492Y-89398045D01*
X141118753Y-89449860D01*
X141114897Y-89485268D01*
X141109524Y-89508267D01*
X141102234Y-89522856D01*
X141092626Y-89533032D01*
X141074596Y-89554278D01*
X141064118Y-89583177D01*
X141063651Y-89589236D01*
X141049664Y-89622117D01*
X141023696Y-89650506D01*
X140995892Y-89662593D01*
X140991156Y-89666591D01*
X140987019Y-89680953D01*
X140983683Y-89708059D01*
X140981070Y-89750274D01*
X140979104Y-89809966D01*
X140977709Y-89889502D01*
X140976807Y-89991249D01*
X140976323Y-90117574D01*
X140976178Y-90270844D01*
X140976178Y-90879096D01*
X141496490Y-90879096D01*
X142016801Y-90879096D01*
X142016801Y-90271832D01*
X142016785Y-90180333D01*
X142016634Y-90046903D01*
X142016227Y-89938560D01*
X142015447Y-89852646D01*
X142014176Y-89786503D01*
X142012298Y-89737473D01*
X142009697Y-89702897D01*
X142006254Y-89680117D01*
X142001854Y-89666475D01*
X141996379Y-89659312D01*
X141989712Y-89655971D01*
X141972664Y-89647837D01*
X141956761Y-89630535D01*
X141945114Y-89601621D01*
X141937123Y-89557561D01*
X141932187Y-89494819D01*
X141929706Y-89409861D01*
X141929078Y-89299151D01*
X141929074Y-89205194D01*
X141929998Y-89117698D01*
X141933861Y-89053031D01*
X141942697Y-89007677D01*
X141958543Y-88978120D01*
X141983435Y-88960848D01*
X142019410Y-88952344D01*
X142068504Y-88949093D01*
X142132752Y-88947582D01*
X142134795Y-88947531D01*
X142203707Y-88945553D01*
X142256463Y-88945845D01*
X142295210Y-88951783D01*
X142322100Y-88966747D01*
X142339281Y-88994115D01*
X142348903Y-89037264D01*
X142353115Y-89099574D01*
X142354065Y-89184422D01*
X142353905Y-89295187D01*
X142353748Y-89360282D01*
X142352371Y-89460029D01*
X142349027Y-89535495D01*
X142343057Y-89589936D01*
X142333806Y-89626609D01*
X142320616Y-89648772D01*
X142302830Y-89659680D01*
X142279790Y-89662593D01*
X142273705Y-89663163D01*
X142267787Y-89666778D01*
X142263015Y-89676071D01*
X142259265Y-89693667D01*
X142256415Y-89722193D01*
X142254342Y-89764276D01*
X142252921Y-89822541D01*
X142252031Y-89899614D01*
X142251547Y-89998122D01*
X142251347Y-90120691D01*
X142251308Y-90269948D01*
X142251308Y-90877302D01*
X142738642Y-90881863D01*
X143225976Y-90886424D01*
X143310074Y-90927710D01*
X143325301Y-90935560D01*
X143407411Y-90993932D01*
X143477055Y-91074567D01*
X143537033Y-91180582D01*
X143542145Y-91191542D01*
X143553834Y-91218111D01*
X143562713Y-91243531D01*
X143569235Y-91272153D01*
X143573853Y-91308328D01*
X143577021Y-91356408D01*
X143579193Y-91420745D01*
X143580821Y-91505689D01*
X143582359Y-91615593D01*
X143586982Y-91963689D01*
X143521210Y-91963689D01*
X143455439Y-91963689D01*
X143450632Y-91688877D01*
X143449926Y-91649049D01*
X143448099Y-91562465D01*
X143445769Y-91498071D01*
X143442249Y-91450709D01*
X143436847Y-91415220D01*
X143428876Y-91386446D01*
X143417646Y-91359228D01*
X143402467Y-91328409D01*
X143380363Y-91289240D01*
X143341050Y-91231025D01*
X143302448Y-91184371D01*
X143298392Y-91180295D01*
X143250767Y-91141250D01*
X143191403Y-91103428D01*
X143128823Y-91071262D01*
X143071552Y-91049189D01*
X143028111Y-91041642D01*
X143014577Y-91043675D01*
X143022023Y-91050074D01*
X143057425Y-91061293D01*
X143135383Y-91088507D01*
X143238011Y-91147383D01*
X143322161Y-91228501D01*
X143389780Y-91333453D01*
X143396149Y-91346016D01*
X143408827Y-91373159D01*
X143418121Y-91399657D01*
X143424669Y-91430503D01*
X143429105Y-91470690D01*
X143432066Y-91525210D01*
X143434187Y-91599054D01*
X143436103Y-91697217D01*
X143441227Y-91980370D01*
X143665199Y-91975694D01*
X143889172Y-91971018D01*
X144004602Y-91851525D01*
X144053195Y-91802571D01*
X144104106Y-91757997D01*
X144151488Y-91728783D01*
X144203550Y-91711304D01*
X144268498Y-91701940D01*
X144354539Y-91697068D01*
X144471793Y-91692541D01*
X144476371Y-91645097D01*
X144479162Y-91624308D01*
X144487163Y-91599818D01*
X144503004Y-91581681D01*
X144530262Y-91568953D01*
X144572515Y-91560693D01*
X144633341Y-91555959D01*
X144716316Y-91553810D01*
X144825019Y-91553303D01*
X144871993Y-91553353D01*
X144959619Y-91553951D01*
X145023742Y-91555487D01*
X145068397Y-91558284D01*
X145097616Y-91562667D01*
X145115433Y-91568960D01*
X145125884Y-91577487D01*
X145133513Y-91593234D01*
X145141518Y-91633575D01*
X145147188Y-91698169D01*
X145150819Y-91789520D01*
X145150997Y-91796498D01*
X145152664Y-91871807D01*
X145152587Y-91923944D01*
X145149949Y-91958594D01*
X145143935Y-91981446D01*
X145133726Y-91998185D01*
X145118507Y-92014499D01*
X145115591Y-92017406D01*
X145101716Y-92030010D01*
X145086371Y-92039064D01*
X145064915Y-92045154D01*
X145032708Y-92048868D01*
X144985109Y-92050794D01*
X144917477Y-92051518D01*
X144825173Y-92051629D01*
X144757501Y-92051136D01*
X144676748Y-92049195D01*
X144608314Y-92046043D01*
X144557861Y-92041957D01*
X144531056Y-92037214D01*
X144504931Y-92020503D01*
X144484299Y-91978588D01*
X144475457Y-91934376D01*
X144360739Y-91934376D01*
X144246020Y-91934376D01*
X144139057Y-92046191D01*
X144080313Y-92105367D01*
X144024545Y-92152912D01*
X143971634Y-92183976D01*
X143913571Y-92201985D01*
X143842347Y-92210362D01*
X143749952Y-92212531D01*
X143585065Y-92212853D01*
X143585065Y-92491329D01*
X143585065Y-92769806D01*
X144222629Y-92769806D01*
X144370935Y-92769764D01*
X144498443Y-92769564D01*
X144601664Y-92769093D01*
X144683156Y-92768244D01*
X144745481Y-92766906D01*
X144791195Y-92764969D01*
X144822859Y-92762325D01*
X144843032Y-92758862D01*
X144854273Y-92754472D01*
X144859141Y-92749044D01*
X144860194Y-92742469D01*
X144860201Y-92741906D01*
X144869322Y-92711376D01*
X144890572Y-92676514D01*
X144920949Y-92637896D01*
X145200872Y-92637896D01*
X145237334Y-92637927D01*
X145328073Y-92638488D01*
X145395022Y-92640003D01*
X145442316Y-92642801D01*
X145474087Y-92647207D01*
X145494470Y-92653548D01*
X145507598Y-92662152D01*
X145510425Y-92664848D01*
X145520880Y-92679590D01*
X145527821Y-92702278D01*
X145531932Y-92738252D01*
X145533898Y-92792850D01*
X145534401Y-92871413D01*
X145534629Y-92933378D01*
X145533866Y-92999461D01*
X145528634Y-93048002D01*
X145515387Y-93081693D01*
X145490580Y-93103223D01*
X145450669Y-93115284D01*
X145392109Y-93120568D01*
X145311354Y-93121765D01*
X145204859Y-93121566D01*
X144920949Y-93121566D01*
X144890572Y-93082948D01*
X144888985Y-93080909D01*
X144868592Y-93049925D01*
X144860175Y-93027985D01*
X144856985Y-93025406D01*
X144835969Y-93021537D01*
X144794098Y-93018363D01*
X144729964Y-93015847D01*
X144642156Y-93013952D01*
X144529267Y-93012644D01*
X144389887Y-93011886D01*
X144222606Y-93011641D01*
X143585057Y-93011641D01*
X143585061Y-93279125D01*
X143585065Y-93546609D01*
X143519110Y-93546609D01*
X143453155Y-93546609D01*
X143453155Y-93291002D01*
X143453155Y-93035395D01*
X143508117Y-93030599D01*
X143563080Y-93025803D01*
X143500789Y-93018335D01*
X143438498Y-93010866D01*
X143438498Y-93284345D01*
X143438498Y-93557824D01*
X143676669Y-93564075D01*
X143709434Y-93564979D01*
X143804146Y-93568846D01*
X143877246Y-93575592D01*
X143934687Y-93587393D01*
X143982423Y-93606427D01*
X144026408Y-93634869D01*
X144072595Y-93674897D01*
X144126938Y-93728686D01*
X144221783Y-93825086D01*
X144350452Y-93825086D01*
X144355238Y-93825083D01*
X144417015Y-93824069D01*
X144454887Y-93820643D01*
X144473905Y-93813941D01*
X144479121Y-93803101D01*
X144486694Y-93780819D01*
X144508434Y-93751802D01*
X144519659Y-93742153D01*
X144535049Y-93734410D01*
X144558092Y-93729008D01*
X144593118Y-93725531D01*
X144644461Y-93723564D01*
X144716452Y-93722688D01*
X144813423Y-93722489D01*
X144868381Y-93722608D01*
X144958288Y-93723655D01*
X145024453Y-93725991D01*
X145070581Y-93729871D01*
X145100377Y-93735548D01*
X145117549Y-93743274D01*
X145129970Y-93755875D01*
X145138946Y-93776260D01*
X145145329Y-93809712D01*
X145150145Y-93861646D01*
X145154423Y-93937475D01*
X145162847Y-94110891D01*
X145164439Y-94008294D01*
X145182641Y-94008294D01*
X145189969Y-94015622D01*
X145197298Y-94008294D01*
X145189969Y-94000966D01*
X145182641Y-94008294D01*
X145164439Y-94008294D01*
X145165416Y-93945337D01*
X145165975Y-93904788D01*
X145165933Y-93845215D01*
X145163545Y-93805537D01*
X145157781Y-93779547D01*
X145147611Y-93761039D01*
X145132009Y-93743808D01*
X145126302Y-93738171D01*
X145113105Y-93727035D01*
X145097206Y-93719023D01*
X145074170Y-93713622D01*
X145039561Y-93710317D01*
X144988944Y-93708594D01*
X144917885Y-93707937D01*
X144821947Y-93707832D01*
X144773931Y-93707824D01*
X144690687Y-93707601D01*
X144631578Y-93706754D01*
X144593070Y-93704865D01*
X144571630Y-93701516D01*
X144563725Y-93696287D01*
X144565823Y-93688761D01*
X144574389Y-93678519D01*
X144584836Y-93668722D01*
X144599404Y-93661015D01*
X144621791Y-93655648D01*
X144656295Y-93652202D01*
X144707215Y-93650258D01*
X144778850Y-93649399D01*
X144875499Y-93649206D01*
X144960414Y-93649074D01*
X145047949Y-93649804D01*
X145112434Y-93653859D01*
X145157403Y-93663736D01*
X145186392Y-93681934D01*
X145202933Y-93710951D01*
X145210562Y-93753283D01*
X145212813Y-93811430D01*
X145213219Y-93887889D01*
X145213452Y-93920341D01*
X145213201Y-93991076D01*
X145210200Y-94041924D01*
X145202604Y-94079770D01*
X145188565Y-94111503D01*
X145166237Y-94144008D01*
X145133773Y-94184174D01*
X145097538Y-94228144D01*
X144823801Y-94232727D01*
X144734383Y-94233923D01*
X144646929Y-94233583D01*
X144582304Y-94230258D01*
X144536929Y-94222919D01*
X144507222Y-94210537D01*
X144489603Y-94192082D01*
X144480493Y-94166525D01*
X144476310Y-94132837D01*
X144471793Y-94073730D01*
X144332554Y-94068556D01*
X144241567Y-94062209D01*
X144166947Y-94047994D01*
X144105095Y-94022636D01*
X144047727Y-93982691D01*
X143986558Y-93924714D01*
X143937248Y-93876188D01*
X143886787Y-93836647D01*
X143836459Y-93813038D01*
X143776876Y-93801196D01*
X143698654Y-93796954D01*
X143585065Y-93794663D01*
X143584743Y-94114000D01*
X143584728Y-94126616D01*
X143584333Y-94230731D01*
X143583239Y-94310421D01*
X143581108Y-94370104D01*
X143577603Y-94414199D01*
X143572386Y-94447126D01*
X143565119Y-94473303D01*
X143555465Y-94497150D01*
X143541206Y-94524609D01*
X143512970Y-94570285D01*
X143479558Y-94618442D01*
X143446057Y-94662190D01*
X143417555Y-94694636D01*
X143399137Y-94708893D01*
X143389961Y-94715017D01*
X143368733Y-94739449D01*
X143344150Y-94774509D01*
X143321561Y-94811764D01*
X143306319Y-94842785D01*
X143303775Y-94859139D01*
X143306634Y-94863110D01*
X143298681Y-94861773D01*
X143288178Y-94861713D01*
X143258082Y-94873469D01*
X143219296Y-94896221D01*
X143196567Y-94911019D01*
X143158509Y-94932671D01*
X143119053Y-94949533D01*
X143074214Y-94962192D01*
X143020005Y-94971233D01*
X142952438Y-94977245D01*
X142867526Y-94980812D01*
X142761283Y-94982522D01*
X142629721Y-94982962D01*
X142251308Y-94982962D01*
X142251308Y-95654237D01*
X142251308Y-96325513D01*
X142301237Y-96325513D01*
X142318257Y-96325629D01*
X142344740Y-96327813D01*
X142364620Y-96335440D01*
X142378780Y-96351920D01*
X142388103Y-96380662D01*
X142393470Y-96425075D01*
X142395765Y-96488571D01*
X142395869Y-96574557D01*
X142394667Y-96686444D01*
X142393844Y-96744004D01*
X142391565Y-96846221D01*
X142388435Y-96922772D01*
X142384289Y-96976138D01*
X142378963Y-97008796D01*
X142372292Y-97023224D01*
X142372005Y-97023455D01*
X142365663Y-97022790D01*
X142360910Y-97007655D01*
X142357553Y-96975083D01*
X142355396Y-96922106D01*
X142354245Y-96845757D01*
X142353905Y-96743068D01*
X142353905Y-96447652D01*
X142302606Y-96396353D01*
X142284450Y-96379070D01*
X142259580Y-96361478D01*
X142251308Y-96367891D01*
X142259590Y-96385816D01*
X142285951Y-96403899D01*
X142309742Y-96417560D01*
X142329921Y-96441376D01*
X142330694Y-96444441D01*
X142333416Y-96472945D01*
X142335766Y-96524735D01*
X142337611Y-96595057D01*
X142338817Y-96679155D01*
X142339248Y-96772274D01*
X142339248Y-96776531D01*
X142339267Y-96888339D01*
X142338011Y-96974336D01*
X142333583Y-97037901D01*
X142324084Y-97082414D01*
X142307614Y-97111255D01*
X142282276Y-97127803D01*
X142246169Y-97135439D01*
X142197395Y-97137542D01*
X142134055Y-97137492D01*
X142115546Y-97137531D01*
X142057423Y-97137438D01*
X142012788Y-97134472D01*
X141979867Y-97125329D01*
X141956882Y-97106705D01*
X141942059Y-97075297D01*
X141933621Y-97027800D01*
X141929793Y-96960910D01*
X141928798Y-96871324D01*
X141928861Y-96755737D01*
X141928861Y-96432609D01*
X141972739Y-96407641D01*
X142016616Y-96382674D01*
X142016709Y-95682818D01*
X142016801Y-94982962D01*
X141496490Y-94982962D01*
X140976178Y-94982962D01*
X140976178Y-95680602D01*
X140976178Y-96378241D01*
X141020148Y-96419315D01*
X141031582Y-96429577D01*
X141054858Y-96447028D01*
X141064118Y-96448245D01*
X141064103Y-96447880D01*
X141053001Y-96430807D01*
X141027477Y-96407277D01*
X141004140Y-96382067D01*
X140991603Y-96351250D01*
X140995712Y-96326724D01*
X141017385Y-96316719D01*
X141044109Y-96324770D01*
X141076011Y-96346603D01*
X141085331Y-96356050D01*
X141093520Y-96368537D01*
X141099466Y-96386647D01*
X141103526Y-96414329D01*
X141106060Y-96455530D01*
X141107426Y-96514199D01*
X141107982Y-96594285D01*
X141108088Y-96699735D01*
X141108022Y-96787523D01*
X141107583Y-96871712D01*
X141106441Y-96933272D01*
X141104271Y-96975891D01*
X141100745Y-97003252D01*
X141095539Y-97019042D01*
X141088324Y-97026946D01*
X141078775Y-97030649D01*
X141061762Y-97039356D01*
X141049462Y-97061100D01*
X141044252Y-97080923D01*
X141025205Y-97110689D01*
X141018737Y-97116968D01*
X141000050Y-97127389D01*
X140970478Y-97133642D01*
X140923886Y-97136690D01*
X140854143Y-97137492D01*
X140846761Y-97137500D01*
X140786265Y-97137672D01*
X140739903Y-97135640D01*
X140705800Y-97128016D01*
X140682084Y-97111412D01*
X140666881Y-97082443D01*
X140658318Y-97037721D01*
X140654521Y-96973860D01*
X140653856Y-96910314D01*
X141054003Y-96910314D01*
X141054004Y-96910960D01*
X141054906Y-96948282D01*
X141057088Y-96962439D01*
X141060084Y-96950357D01*
X141062485Y-96906982D01*
X141059934Y-96862417D01*
X141056916Y-96854253D01*
X141054768Y-96871379D01*
X141054003Y-96910314D01*
X140653856Y-96910314D01*
X140653617Y-96887471D01*
X140653721Y-96785732D01*
X141051776Y-96785732D01*
X141053819Y-96805894D01*
X141059168Y-96804053D01*
X141061104Y-96797418D01*
X141059168Y-96767411D01*
X141054079Y-96764925D01*
X141051776Y-96785732D01*
X140653721Y-96785732D01*
X140653732Y-96775168D01*
X140653760Y-96744101D01*
X140653814Y-96736876D01*
X141054347Y-96736876D01*
X141056495Y-96738631D01*
X141073889Y-96736876D01*
X141076182Y-96732468D01*
X141064118Y-96727105D01*
X141056359Y-96728163D01*
X141054347Y-96736876D01*
X140653814Y-96736876D01*
X140654054Y-96705120D01*
X141064118Y-96705120D01*
X141071447Y-96712449D01*
X141078775Y-96705120D01*
X141071447Y-96697792D01*
X141064118Y-96705120D01*
X140654054Y-96705120D01*
X140654581Y-96635183D01*
X140654672Y-96631837D01*
X141064118Y-96631837D01*
X141071447Y-96639165D01*
X141078775Y-96631837D01*
X141071447Y-96624509D01*
X141064118Y-96631837D01*
X140654672Y-96631837D01*
X140655473Y-96602524D01*
X141064118Y-96602524D01*
X141071447Y-96609852D01*
X141078775Y-96602524D01*
X141071447Y-96595195D01*
X141064118Y-96602524D01*
X140655473Y-96602524D01*
X140656862Y-96551646D01*
X140661042Y-96490348D01*
X140667560Y-96448143D01*
X140676858Y-96421889D01*
X140689373Y-96408442D01*
X140705546Y-96404659D01*
X140707083Y-96404418D01*
X140711817Y-96399285D01*
X140715754Y-96385706D01*
X140718966Y-96361365D01*
X140721522Y-96323941D01*
X140723493Y-96271117D01*
X140724948Y-96200573D01*
X140725957Y-96109991D01*
X140726592Y-95997053D01*
X140726921Y-95859439D01*
X140727015Y-95694830D01*
X140727015Y-94985002D01*
X140312964Y-94980318D01*
X139898913Y-94975634D01*
X139815515Y-94934679D01*
X139752913Y-94897675D01*
X139667345Y-94823533D01*
X139599371Y-94734143D01*
X139569221Y-94667844D01*
X143406971Y-94667844D01*
X143426399Y-94638531D01*
X143427785Y-94636120D01*
X143433988Y-94615175D01*
X143439194Y-94577429D01*
X143443558Y-94520381D01*
X143447235Y-94441528D01*
X143450382Y-94338367D01*
X143453155Y-94208396D01*
X143453286Y-94201146D01*
X143454802Y-94096353D01*
X143455495Y-94001727D01*
X143455389Y-93921096D01*
X143454509Y-93858288D01*
X143452905Y-93817757D01*
X143482468Y-93817757D01*
X143489796Y-93825086D01*
X143497125Y-93817757D01*
X143511781Y-93817757D01*
X143519110Y-93825086D01*
X143526438Y-93817757D01*
X143541095Y-93817757D01*
X143548423Y-93825086D01*
X143555751Y-93817757D01*
X143548423Y-93810429D01*
X143541095Y-93817757D01*
X143526438Y-93817757D01*
X143519110Y-93810429D01*
X143511781Y-93817757D01*
X143497125Y-93817757D01*
X143489796Y-93810429D01*
X143482468Y-93817757D01*
X143452905Y-93817757D01*
X143452880Y-93817130D01*
X143450526Y-93801449D01*
X143450169Y-93801487D01*
X143447388Y-93817501D01*
X143444550Y-93858695D01*
X143441791Y-93921418D01*
X143439250Y-94002021D01*
X143437066Y-94096855D01*
X143435375Y-94202270D01*
X143435270Y-94210353D01*
X143433453Y-94317507D01*
X143431040Y-94415798D01*
X143428188Y-94501136D01*
X143425055Y-94569430D01*
X143421799Y-94616592D01*
X143418576Y-94638531D01*
X143406971Y-94667844D01*
X139569221Y-94667844D01*
X139554820Y-94636176D01*
X139549007Y-94616494D01*
X139541032Y-94583896D01*
X139535039Y-94548045D01*
X139530752Y-94504596D01*
X139527897Y-94449208D01*
X139526198Y-94377536D01*
X139525380Y-94285239D01*
X139525168Y-94167973D01*
X139525168Y-94035476D01*
X140024430Y-94035476D01*
X140024783Y-94140176D01*
X140025842Y-94221914D01*
X140027772Y-94284117D01*
X140030735Y-94330213D01*
X140034895Y-94363627D01*
X140040414Y-94387787D01*
X140047456Y-94406119D01*
X140051760Y-94415077D01*
X140063989Y-94437538D01*
X140078423Y-94455602D01*
X140098072Y-94469746D01*
X140125949Y-94480447D01*
X140165067Y-94488182D01*
X140218437Y-94493427D01*
X140289071Y-94496659D01*
X140379982Y-94498354D01*
X140494182Y-94498989D01*
X140634683Y-94499040D01*
X141115417Y-94498789D01*
X140965560Y-94448231D01*
X140922095Y-94433155D01*
X140853430Y-94407829D01*
X140793957Y-94384170D01*
X140753039Y-94365808D01*
X140606802Y-94278091D01*
X140462011Y-94164094D01*
X140329869Y-94032232D01*
X140215922Y-93888063D01*
X140125718Y-93737146D01*
X140100597Y-93684656D01*
X140072590Y-93621167D01*
X140051778Y-93568594D01*
X140025637Y-93495311D01*
X140024566Y-93925467D01*
X140024430Y-94035476D01*
X139525168Y-94035476D01*
X139525168Y-93795772D01*
X139338296Y-93795854D01*
X139272591Y-93796249D01*
X139190531Y-93799205D01*
X139127529Y-93806770D01*
X139077363Y-93820940D01*
X139033809Y-93843710D01*
X138990644Y-93877076D01*
X138941644Y-93923032D01*
X138924066Y-93940098D01*
X138865235Y-93992844D01*
X138814318Y-94027519D01*
X138762835Y-94047769D01*
X138702306Y-94057245D01*
X138624254Y-94059592D01*
X138499202Y-94059592D01*
X138499202Y-94102745D01*
X138499201Y-94102984D01*
X138489455Y-94144618D01*
X138466224Y-94184190D01*
X138433247Y-94222482D01*
X138142241Y-94222168D01*
X138078184Y-94221887D01*
X137975493Y-94220138D01*
X137900654Y-94216756D01*
X137852730Y-94211688D01*
X137830786Y-94204883D01*
X137825315Y-94197938D01*
X137818193Y-94175197D01*
X137813576Y-94135280D01*
X137811085Y-94074151D01*
X137810339Y-93987776D01*
X137810035Y-93914541D01*
X137810872Y-93846650D01*
X137816345Y-93796900D01*
X137829975Y-93762490D01*
X137855280Y-93740619D01*
X137895782Y-93728485D01*
X137955000Y-93723286D01*
X138036454Y-93722221D01*
X138143664Y-93722489D01*
X138177557Y-93722499D01*
X138268234Y-93722783D01*
X138335233Y-93723781D01*
X138382846Y-93725917D01*
X138415365Y-93729618D01*
X138437082Y-93735308D01*
X138452289Y-93743413D01*
X138465280Y-93754357D01*
X138465455Y-93754522D01*
X138489295Y-93782659D01*
X138499202Y-93805656D01*
X138499484Y-93808058D01*
X138511720Y-93818023D01*
X138544992Y-93823446D01*
X138603361Y-93825086D01*
X138707519Y-93825086D01*
X138812218Y-93724288D01*
X138853557Y-93684795D01*
X138900834Y-93642469D01*
X138942629Y-93611860D01*
X138984742Y-93590944D01*
X139032971Y-93577701D01*
X139093115Y-93570105D01*
X139170972Y-93566135D01*
X139272341Y-93563768D01*
X139525168Y-93558844D01*
X139525171Y-93285243D01*
X139525174Y-93011641D01*
X138817987Y-93015628D01*
X138709342Y-93016371D01*
X138563087Y-93017834D01*
X138433289Y-93019699D01*
X138322092Y-93021915D01*
X138231638Y-93024427D01*
X138164070Y-93027182D01*
X138121530Y-93030129D01*
X138106160Y-93033213D01*
X138106056Y-93033507D01*
X138094010Y-93054150D01*
X138072119Y-93084189D01*
X138042718Y-93121566D01*
X137770123Y-93121566D01*
X137744910Y-93121551D01*
X137652845Y-93121048D01*
X137584921Y-93119584D01*
X137536942Y-93116817D01*
X137504713Y-93112410D01*
X137484040Y-93106020D01*
X137470725Y-93097309D01*
X137466621Y-93093285D01*
X137456710Y-93078219D01*
X137450136Y-93054802D01*
X137446249Y-93017797D01*
X137444395Y-92961966D01*
X137443922Y-92882068D01*
X137443841Y-92833697D01*
X137444691Y-92761341D01*
X137449862Y-92707782D01*
X137462921Y-92670200D01*
X137487437Y-92645774D01*
X137526978Y-92631685D01*
X137585112Y-92625113D01*
X137665408Y-92623238D01*
X137771434Y-92623239D01*
X137827751Y-92623352D01*
X137918642Y-92624654D01*
X137985660Y-92628314D01*
X138032409Y-92635442D01*
X138062494Y-92647145D01*
X138079520Y-92664530D01*
X138087092Y-92688705D01*
X138088815Y-92720779D01*
X138088815Y-92769806D01*
X138806992Y-92769806D01*
X139525168Y-92769806D01*
X143438498Y-92769806D01*
X143508117Y-92767245D01*
X143577736Y-92764685D01*
X143515445Y-92759074D01*
X143453155Y-92753464D01*
X143453155Y-92489621D01*
X143453168Y-92471254D01*
X143453865Y-92376417D01*
X143455739Y-92307982D01*
X143458954Y-92263463D01*
X143463678Y-92240377D01*
X143470076Y-92236237D01*
X143478267Y-92239803D01*
X143477412Y-92234838D01*
X143511781Y-92234838D01*
X143519110Y-92242166D01*
X143526438Y-92234838D01*
X143519110Y-92227509D01*
X143511781Y-92234838D01*
X143477412Y-92234838D01*
X143476539Y-92229774D01*
X143469975Y-92220337D01*
X143458972Y-92213212D01*
X143450715Y-92223957D01*
X143444872Y-92254856D01*
X143441109Y-92308195D01*
X143439095Y-92386258D01*
X143438498Y-92491329D01*
X143438498Y-92769806D01*
X139525168Y-92769806D01*
X139525168Y-92491329D01*
X139525168Y-92212853D01*
X139279669Y-92212531D01*
X139216321Y-92212258D01*
X139124814Y-92210082D01*
X139053941Y-92204058D01*
X138998175Y-92192220D01*
X138951990Y-92172600D01*
X138909858Y-92143231D01*
X138866253Y-92102147D01*
X138815647Y-92047380D01*
X138716096Y-91936588D01*
X138606973Y-91931818D01*
X138582013Y-91930796D01*
X138535567Y-91930165D01*
X138509151Y-91933621D01*
X138496133Y-91942703D01*
X138489880Y-91958946D01*
X138478154Y-91985163D01*
X138452388Y-92017573D01*
X138443295Y-92024633D01*
X138427102Y-92032146D01*
X138402748Y-92037484D01*
X138366004Y-92041008D01*
X138312639Y-92043078D01*
X138238423Y-92044055D01*
X138139127Y-92044301D01*
X138086926Y-92044239D01*
X137999832Y-92043608D01*
X137935954Y-92042026D01*
X137891198Y-92039166D01*
X137861470Y-92034701D01*
X137842674Y-92028303D01*
X137830717Y-92019646D01*
X137829592Y-92018490D01*
X137819589Y-92003240D01*
X137812871Y-91979121D01*
X137808876Y-91941026D01*
X137807041Y-91883849D01*
X137806805Y-91802483D01*
X137806798Y-91730226D01*
X137808125Y-91667853D01*
X137814240Y-91622102D01*
X137828642Y-91590413D01*
X137854830Y-91570227D01*
X137896305Y-91558983D01*
X137956565Y-91554120D01*
X138039111Y-91553080D01*
X138147442Y-91553303D01*
X138235894Y-91553466D01*
X138313622Y-91554260D01*
X138369732Y-91556040D01*
X138408335Y-91559158D01*
X138433546Y-91563964D01*
X138449477Y-91570812D01*
X138460241Y-91580053D01*
X138476096Y-91605447D01*
X138487694Y-91646008D01*
X138488457Y-91654200D01*
X138493129Y-91671773D01*
X138506684Y-91681020D01*
X138535930Y-91684609D01*
X138587678Y-91685213D01*
X138633325Y-91687205D01*
X138703906Y-91695732D01*
X138764026Y-91708690D01*
X138794099Y-91718745D01*
X138829025Y-91735641D01*
X138864448Y-91760956D01*
X138906573Y-91799294D01*
X138961604Y-91855257D01*
X139079575Y-91978346D01*
X139301272Y-91978346D01*
X139522968Y-91978346D01*
X139527732Y-91688877D01*
X139527946Y-91675811D01*
X139529973Y-91570088D01*
X139533667Y-91485744D01*
X139541217Y-91417336D01*
X139554813Y-91359423D01*
X139576645Y-91306560D01*
X139608905Y-91253307D01*
X139653781Y-91194220D01*
X139713463Y-91123857D01*
X139716422Y-91120497D01*
X139730362Y-91120497D01*
X139731085Y-91121600D01*
X139747252Y-91118250D01*
X139777996Y-91104368D01*
X139815479Y-91086572D01*
X139856108Y-91071711D01*
X139901933Y-91060358D01*
X139956970Y-91052063D01*
X140025239Y-91046378D01*
X140110755Y-91042855D01*
X140217539Y-91041042D01*
X140349606Y-91040493D01*
X140727015Y-91040319D01*
X140976178Y-91040319D01*
X141496490Y-91040319D01*
X142016801Y-91040319D01*
X142016801Y-91034368D01*
X142387556Y-91034368D01*
X142395377Y-91035435D01*
X142430852Y-91036614D01*
X142492088Y-91037732D01*
X142598874Y-91038488D01*
X142708379Y-91038115D01*
X142804597Y-91036614D01*
X142813306Y-91036390D01*
X142843549Y-91035228D01*
X142846445Y-91034187D01*
X142823651Y-91033306D01*
X142776828Y-91032626D01*
X142707632Y-91032188D01*
X142617725Y-91032033D01*
X142599638Y-91032039D01*
X142513430Y-91032249D01*
X142448241Y-91032734D01*
X142405730Y-91033454D01*
X142387556Y-91034368D01*
X142016801Y-91034368D01*
X142016801Y-90967036D01*
X142016520Y-90952019D01*
X142254224Y-90952019D01*
X142263094Y-90986166D01*
X142264498Y-90989050D01*
X142273871Y-91004489D01*
X142278144Y-90996991D01*
X142279629Y-90963372D01*
X142279677Y-90950285D01*
X142276379Y-90916883D01*
X142268279Y-90910098D01*
X142256298Y-90931204D01*
X142254224Y-90952019D01*
X142016520Y-90952019D01*
X142016308Y-90940669D01*
X142013655Y-90906944D01*
X142009473Y-90893753D01*
X142007287Y-90896768D01*
X142003602Y-90920359D01*
X142002145Y-90959708D01*
X142002145Y-91025663D01*
X141497333Y-91025663D01*
X140992520Y-91025663D01*
X140986910Y-90963372D01*
X140981299Y-90901081D01*
X140978739Y-90970700D01*
X140976178Y-91040319D01*
X140727015Y-91040319D01*
X140727015Y-90967036D01*
X140726522Y-90940669D01*
X140723868Y-90906944D01*
X140719687Y-90893753D01*
X140717571Y-90896526D01*
X140713837Y-90919684D01*
X140712358Y-90958674D01*
X140712358Y-91023594D01*
X140305636Y-91028293D01*
X140289797Y-91028476D01*
X140173332Y-91029893D01*
X140081834Y-91031364D01*
X140011425Y-91033238D01*
X139958227Y-91035863D01*
X139918360Y-91039589D01*
X139887946Y-91044766D01*
X139863107Y-91051741D01*
X139839963Y-91060865D01*
X139814638Y-91072486D01*
X139774379Y-91092394D01*
X139742556Y-91110383D01*
X139730362Y-91120497D01*
X139716422Y-91120497D01*
X139790143Y-91036774D01*
X139810996Y-91015224D01*
X139871311Y-90965382D01*
X139933850Y-90926849D01*
X139947394Y-90920238D01*
X139971993Y-90909091D01*
X139996238Y-90900629D01*
X140024366Y-90894415D01*
X140060616Y-90890014D01*
X140109226Y-90886990D01*
X140174433Y-90884906D01*
X140260475Y-90883327D01*
X140371591Y-90881817D01*
X140727015Y-90877209D01*
X140727015Y-90269901D01*
X140726856Y-90132277D01*
X140726237Y-89996646D01*
X140725101Y-89886921D01*
X140723396Y-89801264D01*
X140721070Y-89737840D01*
X140718071Y-89694812D01*
X140714348Y-89670341D01*
X140709848Y-89662593D01*
X140693152Y-89657212D01*
X140665878Y-89638336D01*
X140663945Y-89636520D01*
X140655463Y-89625526D01*
X140649147Y-89608842D01*
X140644684Y-89582532D01*
X140641759Y-89542657D01*
X140640059Y-89485282D01*
X140639269Y-89406468D01*
X140639075Y-89302280D01*
X140639171Y-89235871D01*
X140639872Y-89145508D01*
X140641475Y-89078431D01*
X140644241Y-89030862D01*
X140648428Y-88999026D01*
X140654297Y-88979147D01*
X140662107Y-88967448D01*
X140665895Y-88964102D01*
X140685786Y-88954516D01*
X140719250Y-88948473D01*
X140771519Y-88945322D01*
X140847825Y-88944416D01*
X140887551Y-88944302D01*
X140948849Y-88944861D01*
X140994062Y-88949475D01*
X141025629Y-88961750D01*
X141045988Y-88985292D01*
X141057578Y-89023707D01*
X141062837Y-89080601D01*
X141064204Y-89159580D01*
X141064118Y-89264249D01*
X141064118Y-89265447D01*
X141064484Y-89350267D01*
X141065483Y-89423395D01*
X141067000Y-89480424D01*
X141068916Y-89516951D01*
X141071116Y-89528570D01*
X141073196Y-89516206D01*
X141075601Y-89478654D01*
X141077821Y-89420805D01*
X141079675Y-89347507D01*
X141080817Y-89274191D01*
X141093432Y-89274191D01*
X141100760Y-89281520D01*
X141108088Y-89274191D01*
X141100760Y-89266863D01*
X141093432Y-89274191D01*
X141080817Y-89274191D01*
X141080982Y-89263608D01*
X141081705Y-89201327D01*
X141082015Y-89108768D01*
X141079092Y-89040036D01*
X141071372Y-88995715D01*
X141093432Y-88995715D01*
X141100760Y-89003043D01*
X141108088Y-88995715D01*
X141100760Y-88988386D01*
X141093432Y-88995715D01*
X141071372Y-88995715D01*
X141070653Y-88991590D01*
X141054418Y-88959891D01*
X141028108Y-88941399D01*
X140989441Y-88932572D01*
X140936137Y-88929873D01*
X140865915Y-88929760D01*
X140806222Y-88928924D01*
X140749391Y-88926069D01*
X140711489Y-88921597D01*
X140697702Y-88915934D01*
X140706102Y-88900808D01*
X140730276Y-88879292D01*
X140731960Y-88878196D01*
X140765846Y-88867089D01*
X140819643Y-88859567D01*
X140885188Y-88855675D01*
X140954320Y-88855456D01*
X141018878Y-88858956D01*
G37*
G36*
X142291561Y-88858633D02*
G01*
X142345328Y-88866383D01*
X142378933Y-88878575D01*
X142387660Y-88885279D01*
X142395878Y-88895388D01*
X142401750Y-88911308D01*
X142405612Y-88936955D01*
X142407797Y-88976248D01*
X142408639Y-89033101D01*
X142408472Y-89111432D01*
X142407630Y-89215158D01*
X142407325Y-89245372D01*
X142405490Y-89354295D01*
X142402650Y-89436726D01*
X142398662Y-89494933D01*
X142393382Y-89531186D01*
X142386669Y-89547751D01*
X142380535Y-89548813D01*
X142375702Y-89535524D01*
X142372284Y-89504637D01*
X142370085Y-89453227D01*
X142368910Y-89378364D01*
X142368561Y-89277123D01*
X142368615Y-89187200D01*
X142367686Y-89098558D01*
X142363671Y-89032980D01*
X142354450Y-88986999D01*
X142337903Y-88957151D01*
X142311909Y-88939968D01*
X142274347Y-88931986D01*
X142223097Y-88929739D01*
X142156040Y-88929760D01*
X142108736Y-88929126D01*
X142053263Y-88926330D01*
X142015860Y-88921764D01*
X142002145Y-88915934D01*
X142010545Y-88900808D01*
X142034719Y-88879292D01*
X142051063Y-88871693D01*
X142097383Y-88861856D01*
X142158779Y-88856388D01*
X142226442Y-88855308D01*
X142291561Y-88858633D01*
G37*
G36*
X140712358Y-89684578D02*
G01*
X140705030Y-89691906D01*
X140697702Y-89684578D01*
X140705030Y-89677250D01*
X140712358Y-89684578D01*
G37*
G36*
X142295278Y-89713891D02*
G01*
X142287950Y-89721220D01*
X142280621Y-89713891D01*
X142287950Y-89706563D01*
X142295278Y-89713891D01*
G37*
G36*
X140709227Y-89772223D02*
G01*
X140707473Y-89789617D01*
X140703064Y-89791910D01*
X140697702Y-89779846D01*
X140698759Y-89772087D01*
X140707473Y-89770075D01*
X140709227Y-89772223D01*
G37*
G36*
X141005492Y-89801831D02*
G01*
X140998163Y-89809160D01*
X140990835Y-89801831D01*
X140998163Y-89794503D01*
X141005492Y-89801831D01*
G37*
G36*
X141005492Y-89831145D02*
G01*
X140998163Y-89838473D01*
X140990835Y-89831145D01*
X140998163Y-89823816D01*
X141005492Y-89831145D01*
G37*
G36*
X141005492Y-89977711D02*
G01*
X140998163Y-89985040D01*
X140990835Y-89977711D01*
X140998163Y-89970383D01*
X141005492Y-89977711D01*
G37*
G36*
X141005492Y-90124278D02*
G01*
X140998163Y-90131606D01*
X140990835Y-90124278D01*
X140998163Y-90116950D01*
X141005492Y-90124278D01*
G37*
G36*
X142002145Y-90124278D02*
G01*
X141994816Y-90131606D01*
X141987488Y-90124278D01*
X141994816Y-90116950D01*
X142002145Y-90124278D01*
G37*
G36*
X141005492Y-90212218D02*
G01*
X140998163Y-90219546D01*
X140990835Y-90212218D01*
X140998163Y-90204890D01*
X141005492Y-90212218D01*
G37*
G36*
X141002360Y-90299863D02*
G01*
X141000606Y-90317257D01*
X140996198Y-90319550D01*
X140990835Y-90307486D01*
X140991893Y-90299727D01*
X141000606Y-90297715D01*
X141002360Y-90299863D01*
G37*
G36*
X142002145Y-90329471D02*
G01*
X141994816Y-90336799D01*
X141987488Y-90329471D01*
X141994816Y-90322143D01*
X142002145Y-90329471D01*
G37*
G36*
X142002145Y-90373441D02*
G01*
X141994816Y-90380769D01*
X141987488Y-90373441D01*
X141994816Y-90366113D01*
X142002145Y-90373441D01*
G37*
G36*
X141005492Y-90666574D02*
G01*
X140998163Y-90673903D01*
X140990835Y-90666574D01*
X140998163Y-90659246D01*
X141005492Y-90666574D01*
G37*
G36*
X141002360Y-90695593D02*
G01*
X141000606Y-90712987D01*
X140996198Y-90715280D01*
X140990835Y-90703216D01*
X140991893Y-90695457D01*
X141000606Y-90693445D01*
X141002360Y-90695593D01*
G37*
G36*
X138354438Y-91472833D02*
G01*
X138417682Y-91473656D01*
X138461223Y-91475770D01*
X138489618Y-91479784D01*
X138507423Y-91486310D01*
X138519194Y-91495956D01*
X138529488Y-91509333D01*
X138534012Y-91516408D01*
X138551746Y-91559182D01*
X138562200Y-91608265D01*
X138564402Y-91644699D01*
X138559318Y-91665275D01*
X138544193Y-91670556D01*
X138542886Y-91670502D01*
X138520704Y-91655615D01*
X138501201Y-91619268D01*
X138499206Y-91614077D01*
X138477844Y-91576212D01*
X138453191Y-91552210D01*
X138445393Y-91549531D01*
X138407314Y-91544193D01*
X138343985Y-91540400D01*
X138258242Y-91538287D01*
X138152922Y-91537986D01*
X138122720Y-91538154D01*
X138035436Y-91538450D01*
X137972696Y-91538000D01*
X137930796Y-91536407D01*
X137906034Y-91533277D01*
X137894707Y-91528213D01*
X137893111Y-91520820D01*
X137897546Y-91510702D01*
X137918211Y-91490423D01*
X137960589Y-91477282D01*
X137978184Y-91476227D01*
X138024917Y-91474822D01*
X138090802Y-91473701D01*
X138169759Y-91472959D01*
X138255710Y-91472691D01*
X138266935Y-91472691D01*
X138354438Y-91472833D01*
G37*
G36*
X145060453Y-91475531D02*
G01*
X145116047Y-91478616D01*
X145154961Y-91483887D01*
X145180519Y-91491546D01*
X145196045Y-91501799D01*
X145196746Y-91502560D01*
X145206428Y-91529060D01*
X145212837Y-91577194D01*
X145216087Y-91639912D01*
X145216297Y-91710162D01*
X145213582Y-91780894D01*
X145208058Y-91845058D01*
X145199843Y-91895603D01*
X145189051Y-91925478D01*
X145185444Y-91930333D01*
X145177673Y-91936164D01*
X145172598Y-91927969D01*
X145169663Y-91901928D01*
X145168311Y-91854219D01*
X145167984Y-91781023D01*
X145168059Y-91721854D01*
X145182641Y-91721854D01*
X145189969Y-91729183D01*
X145197298Y-91721854D01*
X145189969Y-91714526D01*
X145182641Y-91721854D01*
X145168059Y-91721854D01*
X145168065Y-91717036D01*
X145166470Y-91655638D01*
X145159767Y-91610208D01*
X145157080Y-91604601D01*
X145182641Y-91604601D01*
X145189969Y-91611929D01*
X145197298Y-91604601D01*
X145189969Y-91597273D01*
X145182641Y-91604601D01*
X145157080Y-91604601D01*
X145144500Y-91578348D01*
X145117212Y-91557659D01*
X145074446Y-91545743D01*
X145012748Y-91540201D01*
X144928660Y-91538635D01*
X144818726Y-91538646D01*
X144757818Y-91538629D01*
X144675496Y-91538358D01*
X144616964Y-91537447D01*
X144578742Y-91535509D01*
X144557351Y-91532155D01*
X144549313Y-91526999D01*
X144551149Y-91519651D01*
X144559379Y-91509723D01*
X144567626Y-91501775D01*
X144584018Y-91492336D01*
X144609226Y-91485850D01*
X144648375Y-91481580D01*
X144706588Y-91478790D01*
X144788991Y-91476746D01*
X144885932Y-91475094D01*
X144984856Y-91474425D01*
X145060453Y-91475531D01*
G37*
G36*
X137795682Y-91619258D02*
G01*
X137788354Y-91626586D01*
X137781025Y-91619258D01*
X137788354Y-91611929D01*
X137795682Y-91619258D01*
G37*
G36*
X138543172Y-91956361D02*
G01*
X138535844Y-91963689D01*
X138528515Y-91956361D01*
X138535844Y-91949033D01*
X138543172Y-91956361D01*
G37*
G36*
X139378602Y-91956361D02*
G01*
X139371273Y-91963689D01*
X139363945Y-91956361D01*
X139371273Y-91949033D01*
X139378602Y-91956361D01*
G37*
G36*
X139510512Y-91956361D02*
G01*
X139503183Y-91963689D01*
X139495855Y-91956361D01*
X139503183Y-91949033D01*
X139510512Y-91956361D01*
G37*
G36*
X138938902Y-92190868D02*
G01*
X138931574Y-92198196D01*
X138924245Y-92190868D01*
X138931574Y-92183539D01*
X138938902Y-92190868D01*
G37*
G36*
X137914863Y-92537888D02*
G01*
X137985025Y-92540626D01*
X138041586Y-92544897D01*
X138077650Y-92550679D01*
X138104706Y-92560114D01*
X138139145Y-92585298D01*
X138156999Y-92625924D01*
X138162099Y-92688231D01*
X138162048Y-92698547D01*
X138159422Y-92735039D01*
X138150268Y-92751383D01*
X138131077Y-92755149D01*
X138120580Y-92754585D01*
X138106016Y-92744790D01*
X138107492Y-92716242D01*
X138105952Y-92680268D01*
X138080554Y-92642959D01*
X138079530Y-92641937D01*
X138066159Y-92629867D01*
X138050961Y-92621126D01*
X138029354Y-92615179D01*
X137996758Y-92611488D01*
X137948592Y-92609516D01*
X137880275Y-92608726D01*
X137787225Y-92608583D01*
X137724242Y-92608509D01*
X137648532Y-92607940D01*
X137596175Y-92606506D01*
X137563552Y-92603848D01*
X137547042Y-92599609D01*
X137543025Y-92593431D01*
X137547879Y-92584958D01*
X137563089Y-92570380D01*
X137597308Y-92549245D01*
X137601400Y-92547898D01*
X137636125Y-92542667D01*
X137691731Y-92539071D01*
X137761319Y-92537090D01*
X137837996Y-92536702D01*
X137914863Y-92537888D01*
G37*
G36*
X145348679Y-92564721D02*
G01*
X145433234Y-92565415D01*
X145494704Y-92566996D01*
X145536809Y-92569744D01*
X145563269Y-92573939D01*
X145577803Y-92579863D01*
X145584131Y-92587796D01*
X145584444Y-92588727D01*
X145587789Y-92613926D01*
X145590517Y-92661423D01*
X145592354Y-92724769D01*
X145593028Y-92797517D01*
X145592960Y-92823867D01*
X145591477Y-92901805D01*
X145587707Y-92956224D01*
X145581201Y-92991624D01*
X145571509Y-93012504D01*
X145567395Y-93017574D01*
X145559610Y-93022361D01*
X145554507Y-93013340D01*
X145551509Y-92986635D01*
X145550040Y-92938371D01*
X145549524Y-92864671D01*
X145549553Y-92813109D01*
X145548944Y-92762478D01*
X145563714Y-92762478D01*
X145571043Y-92769806D01*
X145578371Y-92762478D01*
X145571043Y-92755149D01*
X145563714Y-92762478D01*
X145548944Y-92762478D01*
X145548755Y-92746796D01*
X145543777Y-92697991D01*
X145531033Y-92664022D01*
X145506935Y-92642218D01*
X145467896Y-92629908D01*
X145410329Y-92624423D01*
X145330648Y-92623090D01*
X145225264Y-92623239D01*
X145180892Y-92623229D01*
X145095730Y-92622989D01*
X145034668Y-92622115D01*
X144994047Y-92620198D01*
X144970208Y-92616829D01*
X144959491Y-92611600D01*
X144958239Y-92604101D01*
X144962791Y-92593926D01*
X144965262Y-92589631D01*
X144973156Y-92580782D01*
X144986677Y-92574306D01*
X145009772Y-92569834D01*
X145046391Y-92566997D01*
X145100479Y-92565427D01*
X145175985Y-92564755D01*
X145276857Y-92564613D01*
X145348679Y-92564721D01*
G37*
G36*
X139451885Y-92747821D02*
G01*
X139444557Y-92755149D01*
X139437228Y-92747821D01*
X139444557Y-92740493D01*
X139451885Y-92747821D01*
G37*
G36*
X144845538Y-92747821D02*
G01*
X144838209Y-92755149D01*
X144830881Y-92747821D01*
X144838209Y-92740493D01*
X144845538Y-92747821D01*
G37*
G36*
X138263888Y-93649254D02*
G01*
X138353568Y-93649861D01*
X138419741Y-93651416D01*
X138466489Y-93654238D01*
X138497896Y-93658642D01*
X138518047Y-93664944D01*
X138531025Y-93673462D01*
X138545458Y-93694169D01*
X138556254Y-93730227D01*
X138558482Y-93768203D01*
X138551794Y-93798227D01*
X138535844Y-93810429D01*
X138525719Y-93808696D01*
X138513859Y-93795106D01*
X138513719Y-93793615D01*
X138502213Y-93772198D01*
X138477883Y-93743808D01*
X138470767Y-93736818D01*
X138457674Y-93726162D01*
X138441440Y-93718501D01*
X138417704Y-93713342D01*
X138382103Y-93710190D01*
X138330276Y-93708550D01*
X138257860Y-93707929D01*
X138160493Y-93707832D01*
X138102164Y-93707819D01*
X138020051Y-93707563D01*
X137961776Y-93706667D01*
X137923843Y-93704730D01*
X137902757Y-93701348D01*
X137895020Y-93696121D01*
X137897135Y-93688645D01*
X137905607Y-93678519D01*
X137906774Y-93677246D01*
X137917872Y-93667446D01*
X137933107Y-93660233D01*
X137956673Y-93655214D01*
X137992767Y-93651995D01*
X138045585Y-93650183D01*
X138119324Y-93649384D01*
X138218179Y-93649206D01*
X138263888Y-93649254D01*
G37*
G36*
X144479121Y-93759131D02*
G01*
X144471793Y-93766459D01*
X144464464Y-93759131D01*
X144471793Y-93751802D01*
X144479121Y-93759131D01*
G37*
G36*
X144449808Y-94096234D02*
G01*
X144442479Y-94103562D01*
X144435151Y-94096234D01*
X144442479Y-94088906D01*
X144449808Y-94096234D01*
G37*
G36*
X138381949Y-94257457D02*
G01*
X138374620Y-94264786D01*
X138367292Y-94257457D01*
X138374620Y-94250129D01*
X138381949Y-94257457D01*
G37*
G36*
X138411262Y-94257457D02*
G01*
X138403934Y-94264786D01*
X138396605Y-94257457D01*
X138403934Y-94250129D01*
X138411262Y-94257457D01*
G37*
G36*
X140709227Y-95004653D02*
G01*
X140707473Y-95022047D01*
X140703064Y-95024340D01*
X140697702Y-95012276D01*
X140698759Y-95004516D01*
X140707473Y-95002504D01*
X140709227Y-95004653D01*
G37*
G36*
X142002145Y-95004947D02*
G01*
X141994816Y-95012276D01*
X141987488Y-95004947D01*
X141994816Y-94997619D01*
X142002145Y-95004947D01*
G37*
G36*
X141005492Y-95136857D02*
G01*
X140998163Y-95144186D01*
X140990835Y-95136857D01*
X140998163Y-95129529D01*
X141005492Y-95136857D01*
G37*
G36*
X141005492Y-95224797D02*
G01*
X140998163Y-95232126D01*
X140990835Y-95224797D01*
X140998163Y-95217469D01*
X141005492Y-95224797D01*
G37*
G36*
X142002145Y-95473960D02*
G01*
X141994816Y-95481289D01*
X141987488Y-95473960D01*
X141994816Y-95466632D01*
X142002145Y-95473960D01*
G37*
G36*
X142002145Y-95547244D02*
G01*
X141994816Y-95554572D01*
X141987488Y-95547244D01*
X141994816Y-95539915D01*
X142002145Y-95547244D01*
G37*
G36*
X141005492Y-95635184D02*
G01*
X140998163Y-95642512D01*
X140990835Y-95635184D01*
X140998163Y-95627855D01*
X141005492Y-95635184D01*
G37*
G36*
X142002145Y-95767094D02*
G01*
X141994816Y-95774422D01*
X141987488Y-95767094D01*
X141994816Y-95759765D01*
X142002145Y-95767094D01*
G37*
G36*
X142002145Y-95796407D02*
G01*
X141994816Y-95803735D01*
X141987488Y-95796407D01*
X141994816Y-95789079D01*
X142002145Y-95796407D01*
G37*
G36*
X141005492Y-95942974D02*
G01*
X140998163Y-95950302D01*
X140990835Y-95942974D01*
X140998163Y-95935645D01*
X141005492Y-95942974D01*
G37*
G36*
X142002145Y-96250764D02*
G01*
X141994816Y-96258092D01*
X141987488Y-96250764D01*
X141994816Y-96243435D01*
X142002145Y-96250764D01*
G37*
G36*
X142002145Y-96368017D02*
G01*
X141994816Y-96375345D01*
X141987488Y-96368017D01*
X141994816Y-96360689D01*
X142002145Y-96368017D01*
G37*
%TD*%
M02*
