%TF.GenerationSoftware,KiCad,Pcbnew,9.0.4*%
%TF.CreationDate,2025-09-15T16:29:57+02:00*%
%TF.ProjectId,stm32-mcu,73746d33-322d-46d6-9375-2e6b69636164,rev?*%
%TF.SameCoordinates,Original*%
%TF.FileFunction,Copper,L1,Top*%
%TF.FilePolarity,Positive*%
%FSLAX46Y46*%
G04 Gerber Fmt 4.6, Leading zero omitted, Abs format (unit mm)*
G04 Created by KiCad (PCBNEW 9.0.4) date 2025-09-15 16:29:57*
%MOMM*%
%LPD*%
G01*
G04 APERTURE LIST*
G04 Aperture macros list*
%AMRoundRect*
0 Rectangle with rounded corners*
0 $1 Rounding radius*
0 $2 $3 $4 $5 $6 $7 $8 $9 X,Y pos of 4 corners*
0 Add a 4 corners polygon primitive as box body*
4,1,4,$2,$3,$4,$5,$6,$7,$8,$9,$2,$3,0*
0 Add four circle primitives for the rounded corners*
1,1,$1+$1,$2,$3*
1,1,$1+$1,$4,$5*
1,1,$1+$1,$6,$7*
1,1,$1+$1,$8,$9*
0 Add four rect primitives between the rounded corners*
20,1,$1+$1,$2,$3,$4,$5,0*
20,1,$1+$1,$4,$5,$6,$7,0*
20,1,$1+$1,$6,$7,$8,$9,0*
20,1,$1+$1,$8,$9,$2,$3,0*%
G04 Aperture macros list end*
%TA.AperFunction,SMDPad,CuDef*%
%ADD10RoundRect,0.160000X-0.240000X0.565000X-0.240000X-0.565000X0.240000X-0.565000X0.240000X0.565000X0*%
%TD*%
%TA.AperFunction,SMDPad,CuDef*%
%ADD11RoundRect,0.120000X-0.180000X0.605000X-0.180000X-0.605000X0.180000X-0.605000X0.180000X0.605000X0*%
%TD*%
%TA.AperFunction,SMDPad,CuDef*%
%ADD12RoundRect,0.087500X0.087500X-0.187500X0.087500X0.187500X-0.087500X0.187500X-0.087500X-0.187500X0*%
%TD*%
%TA.AperFunction,SMDPad,CuDef*%
%ADD13RoundRect,0.087500X0.187500X-0.087500X0.187500X0.087500X-0.187500X0.087500X-0.187500X-0.087500X0*%
%TD*%
%TA.AperFunction,SMDPad,CuDef*%
%ADD14RoundRect,0.150000X-0.150000X-0.425000X0.150000X-0.425000X0.150000X0.425000X-0.150000X0.425000X0*%
%TD*%
%TA.AperFunction,SMDPad,CuDef*%
%ADD15RoundRect,0.075000X-0.075000X-0.500000X0.075000X-0.500000X0.075000X0.500000X-0.075000X0.500000X0*%
%TD*%
%TA.AperFunction,HeatsinkPad*%
%ADD16O,1.000000X2.100000*%
%TD*%
%TA.AperFunction,HeatsinkPad*%
%ADD17O,1.000000X1.800000*%
%TD*%
%TA.AperFunction,SMDPad,CuDef*%
%ADD18RoundRect,0.250000X-0.450000X0.350000X-0.450000X-0.350000X0.450000X-0.350000X0.450000X0.350000X0*%
%TD*%
%TA.AperFunction,SMDPad,CuDef*%
%ADD19RoundRect,0.250000X-0.475000X0.337500X-0.475000X-0.337500X0.475000X-0.337500X0.475000X0.337500X0*%
%TD*%
%TA.AperFunction,SMDPad,CuDef*%
%ADD20RoundRect,0.250000X-0.350000X-0.450000X0.350000X-0.450000X0.350000X0.450000X-0.350000X0.450000X0*%
%TD*%
%TA.AperFunction,SMDPad,CuDef*%
%ADD21RoundRect,0.250000X0.475000X-0.337500X0.475000X0.337500X-0.475000X0.337500X-0.475000X-0.337500X0*%
%TD*%
%TA.AperFunction,SMDPad,CuDef*%
%ADD22RoundRect,0.250000X0.450000X-0.350000X0.450000X0.350000X-0.450000X0.350000X-0.450000X-0.350000X0*%
%TD*%
%TA.AperFunction,SMDPad,CuDef*%
%ADD23RoundRect,0.250000X0.337500X0.475000X-0.337500X0.475000X-0.337500X-0.475000X0.337500X-0.475000X0*%
%TD*%
%TA.AperFunction,SMDPad,CuDef*%
%ADD24RoundRect,0.250000X0.325000X0.450000X-0.325000X0.450000X-0.325000X-0.450000X0.325000X-0.450000X0*%
%TD*%
%TA.AperFunction,SMDPad,CuDef*%
%ADD25RoundRect,0.250000X-0.337500X-0.475000X0.337500X-0.475000X0.337500X0.475000X-0.337500X0.475000X0*%
%TD*%
%TA.AperFunction,SMDPad,CuDef*%
%ADD26RoundRect,0.250000X0.350000X0.450000X-0.350000X0.450000X-0.350000X-0.450000X0.350000X-0.450000X0*%
%TD*%
%TA.AperFunction,ComponentPad*%
%ADD27R,1.000000X1.000000*%
%TD*%
%TA.AperFunction,ComponentPad*%
%ADD28C,1.000000*%
%TD*%
%TA.AperFunction,SMDPad,CuDef*%
%ADD29R,0.250000X0.500000*%
%TD*%
%TA.AperFunction,SMDPad,CuDef*%
%ADD30R,0.450000X0.500000*%
%TD*%
%TA.AperFunction,SMDPad,CuDef*%
%ADD31RoundRect,0.070200X-0.284800X-0.059800X0.284800X-0.059800X0.284800X0.059800X-0.284800X0.059800X0*%
%TD*%
%TA.AperFunction,SMDPad,CuDef*%
%ADD32RoundRect,0.070200X-0.059800X-0.284800X0.059800X-0.284800X0.059800X0.284800X-0.059800X0.284800X0*%
%TD*%
%TA.AperFunction,SMDPad,CuDef*%
%ADD33R,2.700000X2.700000*%
%TD*%
%TA.AperFunction,SMDPad,CuDef*%
%ADD34R,1.000000X0.700000*%
%TD*%
%TA.AperFunction,SMDPad,CuDef*%
%ADD35R,0.508000X0.660400*%
%TD*%
%TA.AperFunction,SMDPad,CuDef*%
%ADD36R,4.800600X5.994400*%
%TD*%
%TA.AperFunction,SMDPad,CuDef*%
%ADD37RoundRect,0.093750X-0.093750X-0.106250X0.093750X-0.106250X0.093750X0.106250X-0.093750X0.106250X0*%
%TD*%
%TA.AperFunction,HeatsinkPad*%
%ADD38C,0.500000*%
%TD*%
%TA.AperFunction,HeatsinkPad*%
%ADD39R,1.000000X1.600000*%
%TD*%
%TA.AperFunction,SMDPad,CuDef*%
%ADD40RoundRect,0.075000X0.075000X-0.650000X0.075000X0.650000X-0.075000X0.650000X-0.075000X-0.650000X0*%
%TD*%
%TA.AperFunction,HeatsinkPad*%
%ADD41C,0.600000*%
%TD*%
%TA.AperFunction,HeatsinkPad*%
%ADD42R,1.880000X1.570000*%
%TD*%
%TA.AperFunction,SMDPad,CuDef*%
%ADD43RoundRect,0.100000X-0.100000X0.637500X-0.100000X-0.637500X0.100000X-0.637500X0.100000X0.637500X0*%
%TD*%
%TA.AperFunction,ComponentPad*%
%ADD44R,1.308000X1.308000*%
%TD*%
%TA.AperFunction,ComponentPad*%
%ADD45C,1.308000*%
%TD*%
%TA.AperFunction,ViaPad*%
%ADD46C,0.600000*%
%TD*%
%TA.AperFunction,ViaPad*%
%ADD47C,0.800000*%
%TD*%
%TA.AperFunction,Conductor*%
%ADD48C,0.200000*%
%TD*%
%TA.AperFunction,Conductor*%
%ADD49C,0.300000*%
%TD*%
%TA.AperFunction,Conductor*%
%ADD50C,0.500000*%
%TD*%
%TA.AperFunction,Conductor*%
%ADD51C,0.400000*%
%TD*%
G04 APERTURE END LIST*
D10*
%TO.P,D2,1,BA*%
%TO.N,/RGB_B*%
X145805387Y-73754149D03*
D11*
%TO.P,D2,2,RA*%
%TO.N,/RGB_R*%
X144755387Y-73754149D03*
D10*
%TO.P,D2,3,GA*%
%TO.N,/RGB_G*%
X143705387Y-73754149D03*
%TO.P,D2,4,GK*%
%TO.N,Net-(D2-GK)*%
X143705387Y-76804149D03*
D11*
%TO.P,D2,5,RK*%
%TO.N,Net-(D2-RK)*%
X144755387Y-76804149D03*
D10*
%TO.P,D2,6,BK*%
%TO.N,Net-(D2-BK)*%
X145805387Y-76804149D03*
%TD*%
D12*
%TO.P,U4,1,VDDIO*%
%TO.N,/3v3*%
X133884752Y-76858842D03*
%TO.P,U4,2,SCL/SPC*%
%TO.N,/I2C_SCL*%
X134384752Y-76858842D03*
%TO.P,U4,3,SDA/SDI*%
%TO.N,/I2C_SDA*%
X134884752Y-76858842D03*
%TO.P,U4,4,SAO/SD0*%
%TO.N,/3v3*%
X135384752Y-76858842D03*
%TO.P,U4,5,~{CS}*%
X135884752Y-76858842D03*
D13*
%TO.P,U4,6,INT*%
%TO.N,/ACCEL_INT*%
X136109752Y-76133842D03*
%TO.P,U4,7,RESV*%
%TO.N,unconnected-(U4-RESV-Pad7)*%
X136109752Y-75633842D03*
%TO.P,U4,8,FSYNC*%
%TO.N,GND*%
X136109752Y-75133842D03*
D12*
%TO.P,U4,9,GND*%
X135884752Y-74408842D03*
%TO.P,U4,10,GND*%
X135384752Y-74408842D03*
%TO.P,U4,11,GND*%
X134884752Y-74408842D03*
%TO.P,U4,12,GND*%
X134384752Y-74408842D03*
%TO.P,U4,13,GND*%
X133884752Y-74408842D03*
D13*
%TO.P,U4,14,REGOUT*%
%TO.N,Net-(U4-REGOUT)*%
X133659752Y-75133842D03*
%TO.P,U4,15,GND*%
%TO.N,GND*%
X133659752Y-75633842D03*
%TO.P,U4,16,VDD*%
%TO.N,/3v3*%
X133659752Y-76133842D03*
%TD*%
D14*
%TO.P,J1,A1,GND*%
%TO.N,GND*%
X136775387Y-115029149D03*
%TO.P,J1,A4,VBUS*%
%TO.N,/5vUSB*%
X137575387Y-115029149D03*
D15*
%TO.P,J1,A5,CC1*%
%TO.N,Net-(J1-CC1)*%
X138725387Y-115029149D03*
%TO.P,J1,A6,D+*%
%TO.N,/USB_DP*%
X139725387Y-115029149D03*
%TO.P,J1,A7,D-*%
%TO.N,/USB_DM*%
X140225387Y-115029149D03*
%TO.P,J1,A8,SBU1*%
%TO.N,unconnected-(J1-SBU1-PadA8)*%
X141225387Y-115029149D03*
D14*
%TO.P,J1,A9,VBUS*%
%TO.N,/5vUSB*%
X142375387Y-115029149D03*
%TO.P,J1,A12,GND*%
%TO.N,GND*%
X143175387Y-115029149D03*
%TO.P,J1,B1,GND*%
X143175387Y-115029149D03*
%TO.P,J1,B4,VBUS*%
%TO.N,/5vUSB*%
X142375387Y-115029149D03*
D15*
%TO.P,J1,B5,CC2*%
%TO.N,Net-(J1-CC2)*%
X141725387Y-115029149D03*
%TO.P,J1,B6,D+*%
%TO.N,/USB_DP*%
X140725387Y-115029149D03*
%TO.P,J1,B7,D-*%
%TO.N,/USB_DM*%
X139225387Y-115029149D03*
%TO.P,J1,B8,SBU2*%
%TO.N,unconnected-(J1-SBU2-PadB8)*%
X138225387Y-115029149D03*
D14*
%TO.P,J1,B9,VBUS*%
%TO.N,/5vUSB*%
X137575387Y-115029149D03*
%TO.P,J1,B12,GND*%
%TO.N,GND*%
X136775387Y-115029149D03*
D16*
%TO.P,J1,S1,SHIELD*%
X135655387Y-115604149D03*
D17*
X135655387Y-119784149D03*
D16*
X144295387Y-115604149D03*
D17*
X144295387Y-119784149D03*
%TD*%
D18*
%TO.P,R18,1*%
%TO.N,Net-(D2-RK)*%
X143900387Y-80009149D03*
%TO.P,R18,2*%
%TO.N,GND*%
X143900387Y-82009149D03*
%TD*%
D19*
%TO.P,C14,1*%
%TO.N,/VBAT*%
X149310000Y-101430000D03*
%TO.P,C14,2*%
%TO.N,GND*%
X149310000Y-103505000D03*
%TD*%
D18*
%TO.P,R9,1*%
%TO.N,/3v3*%
X136966658Y-80055547D03*
%TO.P,R9,2*%
%TO.N,/I2C_SDA*%
X136966658Y-82055547D03*
%TD*%
D20*
%TO.P,R1,1*%
%TO.N,/BOOT*%
X139007222Y-86704963D03*
%TO.P,R1,2*%
%TO.N,GND*%
X141007222Y-86704963D03*
%TD*%
D21*
%TO.P,C3,1*%
%TO.N,/5vUSB*%
X134527221Y-112432500D03*
%TO.P,C3,2*%
%TO.N,GND*%
X134527221Y-110357500D03*
%TD*%
D22*
%TO.P,R14,1*%
%TO.N,/VBAT_SNS*%
X142240000Y-101720000D03*
%TO.P,R14,2*%
%TO.N,/VBAT*%
X142240000Y-99720000D03*
%TD*%
D23*
%TO.P,C7,1*%
%TO.N,/3v3*%
X131870358Y-76940286D03*
%TO.P,C7,2*%
%TO.N,GND*%
X129795358Y-76940286D03*
%TD*%
D24*
%TO.P,D1,1,K*%
%TO.N,GND*%
X131170832Y-111219149D03*
%TO.P,D1,2,A*%
%TO.N,Net-(D1-A)*%
X129120832Y-111219149D03*
%TD*%
D25*
%TO.P,C1,1*%
%TO.N,/BOOT*%
X138949242Y-84626249D03*
%TO.P,C1,2*%
%TO.N,GND*%
X141024242Y-84626249D03*
%TD*%
D26*
%TO.P,R13,1*%
%TO.N,/VBAT*%
X148405000Y-97545000D03*
%TO.P,R13,2*%
%TO.N,/nCHG*%
X146405000Y-97545000D03*
%TD*%
D27*
%TO.P,J2,1,Pin_1*%
%TO.N,/LITE_PWM*%
X154060387Y-85184149D03*
D28*
%TO.P,J2,2,Pin_2*%
%TO.N,/SPI1_MISO*%
X154060387Y-86454149D03*
%TO.P,J2,3,Pin_3*%
%TO.N,/SPI1_SCK*%
X154060387Y-87724149D03*
%TO.P,J2,4,Pin_4*%
%TO.N,/SPI1_MOSI*%
X154060387Y-88994149D03*
%TO.P,J2,5,Pin_5*%
%TO.N,/TFT_CS*%
X154060387Y-90264149D03*
%TO.P,J2,6,Pin_6*%
%TO.N,/CARD_CS*%
X154060387Y-91534149D03*
%TO.P,J2,7,Pin_7*%
%TO.N,/D{slash}C*%
X154060387Y-92804149D03*
%TO.P,J2,8,Pin_8*%
%TO.N,/BOOT*%
X154060387Y-94074149D03*
%TO.P,J2,9,Pin_9*%
%TO.N,/5vUSB*%
X154060387Y-95344149D03*
%TO.P,J2,10,Pin_10*%
%TO.N,GND*%
X154060387Y-96614149D03*
%TD*%
D29*
%TO.P,U5,1,I/O*%
%TO.N,unconnected-(U5-I{slash}O-Pad1)*%
X138735387Y-112560000D03*
%TO.P,U5,2,I/O*%
%TO.N,/5vUSB*%
X139235387Y-112560000D03*
D30*
%TO.P,U5,3,GND*%
%TO.N,GND*%
X139735387Y-112560000D03*
D29*
%TO.P,U5,4,I/O*%
%TO.N,/USB_DM*%
X140235387Y-112560000D03*
%TO.P,U5,5,I/O*%
%TO.N,/USB_DP*%
X140735387Y-112560000D03*
%TO.P,U5,6,NC*%
%TO.N,unconnected-(U5-NC-Pad6)*%
X140735387Y-111760000D03*
%TO.P,U5,7,NC*%
%TO.N,unconnected-(U5-NC-Pad7)*%
X140235387Y-111760000D03*
D30*
%TO.P,U5,8,GND*%
%TO.N,GND*%
X139735387Y-111760000D03*
D29*
%TO.P,U5,9,NC*%
%TO.N,unconnected-(U5-NC-Pad9)*%
X139235387Y-111760000D03*
%TO.P,U5,10,NC*%
%TO.N,unconnected-(U5-NC-Pad10)*%
X138735387Y-111760000D03*
%TD*%
D31*
%TO.P,U7,1,A2*%
%TO.N,GND*%
X142605000Y-91075000D03*
%TO.P,U7,2,A1*%
X142605000Y-91575000D03*
%TO.P,U7,3,A0*%
X142605000Y-92075000D03*
%TO.P,U7,4,~{RESET}*%
%TO.N,/BOOT*%
X142605000Y-92575000D03*
%TO.P,U7,5*%
%TO.N,N/C*%
X142605000Y-93075000D03*
D32*
%TO.P,U7,6*%
X143510000Y-93980000D03*
%TO.P,U7,7,INT*%
%TO.N,/IO_INT*%
X144010000Y-93980000D03*
%TO.P,U7,8*%
%TO.N,N/C*%
X144510000Y-93980000D03*
%TO.P,U7,9,GP0*%
%TO.N,/MTR_nSLEEP*%
X145010000Y-93980000D03*
%TO.P,U7,10,GP1*%
%TO.N,/MTR_IN1*%
X145510000Y-93980000D03*
D31*
%TO.P,U7,11,GP2*%
%TO.N,/MTR_IN2*%
X146415000Y-93075000D03*
%TO.P,U7,12,GP3*%
%TO.N,/TFT_CS*%
X146415000Y-92575000D03*
%TO.P,U7,13,GP4*%
%TO.N,/CARD_CS*%
X146415000Y-92075000D03*
%TO.P,U7,14,GP5*%
%TO.N,/D{slash}C*%
X146415000Y-91575000D03*
%TO.P,U7,15,GP6*%
%TO.N,unconnected-(U7-GP6-Pad15)*%
X146415000Y-91075000D03*
D32*
%TO.P,U7,16,GP7*%
%TO.N,unconnected-(U7-GP7-Pad16)*%
X145510000Y-90170000D03*
%TO.P,U7,17,VSS*%
%TO.N,GND*%
X145010000Y-90170000D03*
%TO.P,U7,18,VDD*%
%TO.N,/5vUSB*%
X144510000Y-90170000D03*
%TO.P,U7,19,SCL*%
%TO.N,/I2C_SCL*%
X144010000Y-90170000D03*
%TO.P,U7,20,SDA*%
%TO.N,/I2C_SDA*%
X143510000Y-90170000D03*
D33*
%TO.P,U7,21*%
%TO.N,N/C*%
X144510000Y-92075000D03*
%TD*%
D25*
%TO.P,C4,1*%
%TO.N,GND*%
X133905015Y-103388956D03*
%TO.P,C4,2*%
%TO.N,/5vUSB*%
X135980015Y-103388956D03*
%TD*%
D22*
%TO.P,R3,1*%
%TO.N,Net-(J1-CC2)*%
X143510000Y-112395000D03*
%TO.P,R3,2*%
%TO.N,GND*%
X143510000Y-110395000D03*
%TD*%
D34*
%TO.P,RESET1,1*%
%TO.N,GND*%
X148695387Y-78164012D03*
%TO.P,RESET1,2*%
X154695387Y-78164012D03*
%TO.P,RESET1,3*%
%TO.N,/BOOT*%
X148695387Y-81864012D03*
%TO.P,RESET1,4*%
X154695387Y-81864012D03*
%TD*%
D18*
%TO.P,R10,1*%
%TO.N,/3v3*%
X134811875Y-80096051D03*
%TO.P,R10,2*%
%TO.N,/I2C_SCL*%
X134811875Y-82096051D03*
%TD*%
D19*
%TO.P,C6,1*%
%TO.N,GND*%
X130016269Y-80042349D03*
%TO.P,C6,2*%
%TO.N,/3v3*%
X130016269Y-82117349D03*
%TD*%
%TO.P,C12,1*%
%TO.N,GND*%
X139700000Y-93577500D03*
%TO.P,C12,2*%
%TO.N,/5vUSB*%
X139700000Y-95652500D03*
%TD*%
D35*
%TO.P,U3,1,\u002ACE*%
%TO.N,/MEM_nCE*%
X130157273Y-100335249D03*
%TO.P,U3,2,SO*%
%TO.N,/SPI1_MISO*%
X131427273Y-100335249D03*
%TO.P,U3,3,\u002AWP*%
%TO.N,Net-(U3-\u002AWP)*%
X132697273Y-100335249D03*
%TO.P,U3,4,VSS*%
%TO.N,GND*%
X133967273Y-100335249D03*
%TO.P,U3,5,SI*%
%TO.N,/SPI1_MOSI*%
X133967273Y-92893049D03*
%TO.P,U3,6,SCK*%
%TO.N,/SPI1_SCK*%
X132697273Y-92893049D03*
%TO.P,U3,7,\u002AHOLD*%
%TO.N,Net-(U3-\u002AHOLD)*%
X131427273Y-92893049D03*
%TO.P,U3,8,VDD*%
%TO.N,/3v3*%
X130157273Y-92893049D03*
D36*
%TO.P,U3,9,EPAD*%
%TO.N,unconnected-(U3-EPAD-Pad9)*%
X132062273Y-96614149D03*
%TD*%
D26*
%TO.P,R6,1*%
%TO.N,/3v3*%
X139842308Y-76871223D03*
%TO.P,R6,2*%
%TO.N,/ACCEL_INT*%
X137842308Y-76871223D03*
%TD*%
D37*
%TO.P,U2,1,OUT*%
%TO.N,/3v3*%
X133870387Y-106076791D03*
%TO.P,U2,2,NC*%
%TO.N,unconnected-(U2-NC-Pad2)*%
X133870387Y-106726791D03*
%TO.P,U2,3,PG*%
%TO.N,unconnected-(U2-PG-Pad3)*%
X133870387Y-107376791D03*
%TO.P,U2,4,EN*%
%TO.N,/5vUSB*%
X135645387Y-107376791D03*
%TO.P,U2,5,GND*%
%TO.N,GND*%
X135645387Y-106726791D03*
%TO.P,U2,6,IN*%
%TO.N,/5vUSB*%
X135645387Y-106076791D03*
D38*
%TO.P,U2,7,EP*%
%TO.N,GND*%
X134757887Y-106176791D03*
D39*
X134757887Y-106726791D03*
D38*
X134757887Y-107276791D03*
%TD*%
D21*
%TO.P,C2,1*%
%TO.N,/3v3*%
X132454529Y-82113781D03*
%TO.P,C2,2*%
%TO.N,GND*%
X132454529Y-80038781D03*
%TD*%
D18*
%TO.P,R5,1*%
%TO.N,/3v3*%
X129295387Y-105990761D03*
%TO.P,R5,2*%
%TO.N,Net-(D1-A)*%
X129295387Y-107990761D03*
%TD*%
%TO.P,R2,1*%
%TO.N,/3v3*%
X139121439Y-80047446D03*
%TO.P,R2,2*%
%TO.N,/BOOT*%
X139121439Y-82047446D03*
%TD*%
D23*
%TO.P,C9,1*%
%TO.N,Net-(U4-REGOUT)*%
X131886559Y-74177952D03*
%TO.P,C9,2*%
%TO.N,GND*%
X129811559Y-74177952D03*
%TD*%
D21*
%TO.P,C13,1*%
%TO.N,/5vUSB*%
X142240000Y-105580000D03*
%TO.P,C13,2*%
%TO.N,GND*%
X142240000Y-103505000D03*
%TD*%
D22*
%TO.P,R4,1*%
%TO.N,Net-(J1-CC1)*%
X136939757Y-112395000D03*
%TO.P,R4,2*%
%TO.N,GND*%
X136939757Y-110395000D03*
%TD*%
D26*
%TO.P,R16,1*%
%TO.N,Net-(U8-TS)*%
X144510000Y-97545000D03*
%TO.P,R16,2*%
%TO.N,GND*%
X142510000Y-97545000D03*
%TD*%
D18*
%TO.P,R19,1*%
%TO.N,Net-(D2-BK)*%
X146440387Y-80009149D03*
%TO.P,R19,2*%
%TO.N,GND*%
X146440387Y-82009149D03*
%TD*%
D34*
%TO.P,BOOT1,1*%
%TO.N,/BOOT*%
X148705293Y-72590722D03*
%TO.P,BOOT1,2*%
X154705293Y-72590722D03*
%TO.P,BOOT1,3*%
%TO.N,/3v3*%
X148705293Y-76290722D03*
%TO.P,BOOT1,4*%
X154705293Y-76290722D03*
%TD*%
D18*
%TO.P,R17,1*%
%TO.N,Net-(D2-GK)*%
X141360387Y-80009149D03*
%TO.P,R17,2*%
%TO.N,GND*%
X141360387Y-82009149D03*
%TD*%
%TO.P,R8,1*%
%TO.N,/3v3*%
X129323661Y-84836976D03*
%TO.P,R8,2*%
%TO.N,Net-(U3-\u002AHOLD)*%
X129323661Y-86836976D03*
%TD*%
D20*
%TO.P,R12,1*%
%TO.N,Net-(U8-PRETERM)*%
X147040000Y-107705000D03*
%TO.P,R12,2*%
%TO.N,GND*%
X149040000Y-107705000D03*
%TD*%
D40*
%TO.P,U8,1,IN*%
%TO.N,/5vUSB*%
X145054812Y-104775000D03*
%TO.P,U8,2,ISET*%
%TO.N,Net-(U8-ISET)*%
X145554812Y-104775000D03*
%TO.P,U8,3,VSS*%
%TO.N,GND*%
X146054812Y-104775000D03*
%TO.P,U8,4,PRETERM*%
%TO.N,Net-(U8-PRETERM)*%
X146554812Y-104775000D03*
%TO.P,U8,5,~{PG}*%
%TO.N,unconnected-(U8-~{PG}-Pad5)*%
X147054812Y-104775000D03*
%TO.P,U8,6,NC*%
%TO.N,unconnected-(U8-NC-Pad6)*%
X147054812Y-100475000D03*
%TO.P,U8,7,ISET2*%
%TO.N,GND*%
X146554812Y-100475000D03*
%TO.P,U8,8,~{CHG}*%
%TO.N,/nCHG*%
X146054812Y-100475000D03*
%TO.P,U8,9,TS*%
%TO.N,Net-(U8-TS)*%
X145554812Y-100475000D03*
%TO.P,U8,10,OUT*%
%TO.N,/VBAT*%
X145054812Y-100475000D03*
D41*
%TO.P,U8,11,VSS*%
%TO.N,GND*%
X145414812Y-103110000D03*
X146694812Y-103110000D03*
D42*
X146054812Y-102625000D03*
D41*
X145414812Y-102140000D03*
X146694812Y-102140000D03*
%TD*%
D18*
%TO.P,R15,1*%
%TO.N,GND*%
X139700000Y-98060000D03*
%TO.P,R15,2*%
%TO.N,/VBAT_SNS*%
X139700000Y-100060000D03*
%TD*%
D20*
%TO.P,R7,1*%
%TO.N,/3v3*%
X129314782Y-103199641D03*
%TO.P,R7,2*%
%TO.N,Net-(U3-\u002AWP)*%
X131314782Y-103199641D03*
%TD*%
D23*
%TO.P,C8,1*%
%TO.N,/3v3*%
X139865733Y-73950812D03*
%TO.P,C8,2*%
%TO.N,GND*%
X137790733Y-73950812D03*
%TD*%
D21*
%TO.P,C5,1*%
%TO.N,GND*%
X131953363Y-108017085D03*
%TO.P,C5,2*%
%TO.N,/3v3*%
X131953363Y-105942085D03*
%TD*%
D26*
%TO.P,R11,1*%
%TO.N,Net-(U8-ISET)*%
X145145000Y-107705000D03*
%TO.P,R11,2*%
%TO.N,GND*%
X143145000Y-107705000D03*
%TD*%
D43*
%TO.P,U1,1,PB8*%
%TO.N,/BOOT*%
X136915387Y-84539149D03*
%TO.P,U1,2,PF0*%
%TO.N,/I2C_SDA*%
X136265387Y-84539149D03*
%TO.P,U1,3,PF1*%
%TO.N,/I2C_SCL*%
X135615387Y-84539149D03*
%TO.P,U1,4,NRST*%
%TO.N,/BOOT*%
X134965387Y-84539149D03*
%TO.P,U1,5,VDDA*%
%TO.N,/3v3*%
X134315387Y-84539149D03*
%TO.P,U1,6,PA0*%
%TO.N,/RGB_B*%
X133665387Y-84539149D03*
%TO.P,U1,7,PA1*%
%TO.N,/RGB_R*%
X133015387Y-84539149D03*
%TO.P,U1,8,PA2*%
%TO.N,/RGB_G*%
X132365387Y-84539149D03*
%TO.P,U1,9,PA3*%
%TO.N,unconnected-(U1-PA3-Pad9)*%
X131715387Y-84539149D03*
%TO.P,U1,10,PA4*%
%TO.N,/MEM_nCE*%
X131065387Y-84539149D03*
%TO.P,U1,11,PA5*%
%TO.N,/SPI1_SCK*%
X131065387Y-90264149D03*
%TO.P,U1,12,PA6*%
%TO.N,/SPI1_MISO*%
X131715387Y-90264149D03*
%TO.P,U1,13,PA7*%
%TO.N,/SPI1_MOSI*%
X132365387Y-90264149D03*
%TO.P,U1,14,PB1*%
%TO.N,/LITE_PWM*%
X133015387Y-90264149D03*
%TO.P,U1,15,VSSA*%
%TO.N,GND*%
X133665387Y-90264149D03*
%TO.P,U1,16,VDD*%
%TO.N,/3v3*%
X134315387Y-90264149D03*
%TO.P,U1,17,PA9/PA11*%
%TO.N,/USB_DM*%
X134965387Y-90264149D03*
%TO.P,U1,18,PA10/PA12*%
%TO.N,/USB_DP*%
X135615387Y-90264149D03*
%TO.P,U1,19,PA13*%
%TO.N,/ACCEL_INT*%
X136265387Y-90264149D03*
%TO.P,U1,20,PA14*%
%TO.N,/IO_INT*%
X136915387Y-90264149D03*
%TD*%
D44*
%TO.P,J3,1,1*%
%TO.N,/VBAT*%
X153670000Y-101505000D03*
D45*
%TO.P,J3,2,2*%
%TO.N,GND*%
X153670000Y-103505000D03*
%TD*%
D46*
%TO.N,GND*%
X139608465Y-93614335D03*
X146054812Y-102625000D03*
X137790733Y-73950812D03*
X129794000Y-74168000D03*
X129794000Y-76911200D03*
X132486400Y-80010000D03*
X129997200Y-80010000D03*
X141020800Y-86715600D03*
X141020800Y-84632800D03*
X141376400Y-81991200D03*
X154686000Y-78181200D03*
X148691600Y-78181200D03*
X146456400Y-81991200D03*
X143916400Y-81991200D03*
X136956800Y-110388400D03*
X134518400Y-110337600D03*
X131165600Y-111201200D03*
X131978400Y-108000800D03*
X133908800Y-103378000D03*
X133959600Y-100330000D03*
X139700000Y-98044000D03*
X142494000Y-97536000D03*
X149301200Y-103479600D03*
X149047200Y-107746800D03*
X143154400Y-107696000D03*
X143510000Y-110388400D03*
X143175387Y-115029149D03*
%TO.N,/5vUSB*%
X138988800Y-113385600D03*
%TO.N,/ACCEL_INT*%
X136771465Y-91726935D03*
X135839200Y-78892400D03*
%TO.N,/IO_INT*%
X136965387Y-90264149D03*
X144018000Y-94691200D03*
%TO.N,/SPI1_MISO*%
X133286197Y-92191600D03*
X131470400Y-100380800D03*
%TO.N,/RGB_B*%
X145805387Y-73754149D03*
X133506379Y-85810018D03*
%TO.N,/RGB_R*%
X133719140Y-83301649D03*
X144755387Y-73754149D03*
%TO.N,/RGB_G*%
X143705387Y-73754149D03*
X132384800Y-83312000D03*
%TO.N,/MEM_nCE*%
X129507273Y-100380800D03*
X130098800Y-88696800D03*
%TO.N,/BOOT*%
X141798212Y-92367596D03*
X136906000Y-83261200D03*
X135015387Y-83261200D03*
%TO.N,/I2C_SCL*%
X142830457Y-89594149D03*
X135636000Y-85750400D03*
%TO.N,/I2C_SDA*%
X143380000Y-90175528D03*
X136265387Y-86411600D03*
%TO.N,/TFT_CS*%
X147472400Y-92675000D03*
%TO.N,/CARD_CS*%
X149255588Y-92175000D03*
X151034365Y-91969035D03*
%TO.N,/BOOT*%
X139007222Y-86704963D03*
%TO.N,/USB_DM*%
X134987742Y-91690699D03*
X139801600Y-113436400D03*
%TO.N,/USB_DP*%
X140861387Y-112560000D03*
X135832341Y-91651411D03*
%TO.N,/SPI1_SCK*%
X131015387Y-90264149D03*
X133694999Y-88394149D03*
D47*
%TO.N,/5vUSB*%
X141450000Y-95645335D03*
X138716600Y-96436600D03*
D46*
%TO.N,/3v3*%
X136966658Y-80055547D03*
X135382000Y-77622400D03*
X129323661Y-84836976D03*
X130157273Y-92893049D03*
X154705293Y-76290722D03*
X131953363Y-105942085D03*
X129286000Y-103174800D03*
X129295387Y-105990761D03*
X130016269Y-82117349D03*
X131876800Y-76860400D03*
X148742400Y-76250800D03*
X133757885Y-106026843D03*
X133197600Y-76860400D03*
X134366000Y-85750400D03*
X132435600Y-82092800D03*
X133858000Y-77571600D03*
X139842308Y-76871223D03*
X134811875Y-80096051D03*
X139865733Y-73950812D03*
X134349165Y-91208802D03*
X139842308Y-75790000D03*
X139121439Y-80047446D03*
D47*
%TO.N,/5vUSB*%
X135980015Y-103388956D03*
X144830800Y-105968800D03*
X151953865Y-95645335D03*
X136499600Y-106070400D03*
X142443200Y-113995200D03*
X137558812Y-114202170D03*
X142207111Y-105587933D03*
X136296400Y-108356400D03*
X134527221Y-112432500D03*
D46*
%TO.N,/VBAT*%
X144475200Y-100431600D03*
X142240000Y-99720400D03*
D47*
X149310000Y-101430000D03*
X148405000Y-97545000D03*
D46*
%TO.N,/VBAT_SNS*%
X142240000Y-101701600D03*
X139700000Y-100060000D03*
%TD*%
D48*
%TO.N,GND*%
X139645300Y-93577500D02*
X139608465Y-93614335D01*
X139700000Y-93577500D02*
X139645300Y-93577500D01*
X146554812Y-102125000D02*
X146054812Y-102625000D01*
X146554812Y-100475000D02*
X146554812Y-102125000D01*
X146054812Y-104775000D02*
X146054812Y-102625000D01*
D49*
%TO.N,/3v3*%
X133633752Y-76159842D02*
X133659752Y-76159842D01*
X133248400Y-76545194D02*
X133633752Y-76159842D01*
X133197600Y-76860400D02*
X133248400Y-76809600D01*
X133248400Y-76809600D02*
X133248400Y-76545194D01*
X133858000Y-76859594D02*
X133858752Y-76858842D01*
X133858000Y-77571600D02*
X133858000Y-76859594D01*
X135410752Y-77593648D02*
X135382000Y-77622400D01*
X135410752Y-76858842D02*
X135410752Y-77593648D01*
X135884752Y-76858842D02*
X135410752Y-76858842D01*
D48*
%TO.N,GND*%
X131267449Y-75633842D02*
X129811559Y-74177952D01*
X133659752Y-75633842D02*
X131267449Y-75633842D01*
X136342782Y-73950812D02*
X135884752Y-74408842D01*
X137790733Y-73950812D02*
X136342782Y-73950812D01*
X133884752Y-74408842D02*
X134384752Y-74408842D01*
X134384752Y-74408842D02*
X134884752Y-74408842D01*
X134884752Y-74408842D02*
X135384752Y-74408842D01*
X135384752Y-74408842D02*
X135884752Y-74408842D01*
X136109752Y-74633842D02*
X135884752Y-74408842D01*
X136109752Y-75133842D02*
X136109752Y-74633842D01*
X129803952Y-74177952D02*
X129794000Y-74168000D01*
X129811559Y-74177952D02*
X129803952Y-74177952D01*
X129795358Y-76912558D02*
X129794000Y-76911200D01*
X129795358Y-76940286D02*
X129795358Y-76912558D01*
X132457619Y-80038781D02*
X132486400Y-80010000D01*
X132454529Y-80038781D02*
X132457619Y-80038781D01*
X130016269Y-80029069D02*
X129997200Y-80010000D01*
X130016269Y-80042349D02*
X130016269Y-80029069D01*
X141010163Y-86704963D02*
X141020800Y-86715600D01*
X141007222Y-86704963D02*
X141010163Y-86704963D01*
X141024242Y-84629358D02*
X141020800Y-84632800D01*
X141024242Y-84626249D02*
X141024242Y-84629358D01*
X141360387Y-82007213D02*
X141376400Y-81991200D01*
X141360387Y-82009149D02*
X141360387Y-82007213D01*
X154695387Y-78171813D02*
X154686000Y-78181200D01*
X154695387Y-78164012D02*
X154695387Y-78171813D01*
X148695387Y-78177413D02*
X148691600Y-78181200D01*
X148695387Y-78164012D02*
X148695387Y-78177413D01*
X146440387Y-82007213D02*
X146456400Y-81991200D01*
X146440387Y-82009149D02*
X146440387Y-82007213D01*
X143900387Y-82007213D02*
X143916400Y-81991200D01*
X143900387Y-82009149D02*
X143900387Y-82007213D01*
X136950200Y-110395000D02*
X136956800Y-110388400D01*
X136939757Y-110395000D02*
X136950200Y-110395000D01*
X134527221Y-110346421D02*
X134518400Y-110337600D01*
X134527221Y-110357500D02*
X134527221Y-110346421D01*
X131170832Y-111206432D02*
X131165600Y-111201200D01*
X131170832Y-111219149D02*
X131170832Y-111206432D01*
X131962115Y-108017085D02*
X131978400Y-108000800D01*
X131953363Y-108017085D02*
X131962115Y-108017085D01*
X133905015Y-103381785D02*
X133908800Y-103378000D01*
X133905015Y-103388956D02*
X133905015Y-103381785D01*
X133964849Y-100335249D02*
X133959600Y-100330000D01*
X133967273Y-100335249D02*
X133964849Y-100335249D01*
X139700000Y-98060000D02*
X139700000Y-98044000D01*
X142503000Y-97545000D02*
X142494000Y-97536000D01*
X142510000Y-97545000D02*
X142503000Y-97545000D01*
X149310000Y-103488400D02*
X149301200Y-103479600D01*
X149310000Y-103505000D02*
X149310000Y-103488400D01*
X149040000Y-107739600D02*
X149047200Y-107746800D01*
X149040000Y-107705000D02*
X149040000Y-107739600D01*
X143145400Y-107705000D02*
X143154400Y-107696000D01*
X143145000Y-107705000D02*
X143145400Y-107705000D01*
X143510000Y-110395000D02*
X143510000Y-110388400D01*
%TO.N,/5vUSB*%
X138988800Y-113385600D02*
X139209387Y-113165013D01*
X139209387Y-113165013D02*
X139209387Y-112560000D01*
%TO.N,Net-(J1-CC2)*%
X142152836Y-113294200D02*
X141725387Y-113721649D01*
X142610800Y-113294200D02*
X142152836Y-113294200D01*
X143510000Y-112395000D02*
X142610800Y-113294200D01*
X141725387Y-113721649D02*
X141725387Y-115029149D01*
%TO.N,/LITE_PWM*%
X133001851Y-90264149D02*
X132994400Y-90271600D01*
%TO.N,/ACCEL_INT*%
X136265387Y-91220857D02*
X136265387Y-90264149D01*
X136771465Y-91726935D02*
X136265387Y-91220857D01*
X135839200Y-78874331D02*
X135839200Y-78892400D01*
X137842308Y-76871223D02*
X135839200Y-78874331D01*
%TO.N,/USB_DP*%
X135615387Y-91001648D02*
X135615387Y-90264149D01*
X135585200Y-91389200D02*
X135585200Y-91031835D01*
X135585200Y-91031835D02*
X135615387Y-91001648D01*
X135832341Y-91636341D02*
X135585200Y-91389200D01*
X135832341Y-91651411D02*
X135832341Y-91636341D01*
%TO.N,/USB_DM*%
X134965387Y-91200177D02*
X134965387Y-90264149D01*
X134987742Y-91222532D02*
X134965387Y-91200177D01*
X134987742Y-91690699D02*
X134987742Y-91222532D01*
%TO.N,/IO_INT*%
X144010000Y-94683200D02*
X144018000Y-94691200D01*
X144010000Y-93980000D02*
X144010000Y-94683200D01*
%TO.N,/SPI1_MISO*%
X131715387Y-90921519D02*
X131715387Y-90264149D01*
X133286197Y-92191600D02*
X132985468Y-92191600D01*
X132985468Y-92191600D02*
X131715387Y-90921519D01*
%TO.N,/SPI1_MOSI*%
X133967273Y-91904873D02*
X133967273Y-92893049D01*
X132746517Y-91302649D02*
X133365049Y-91302649D01*
X132514387Y-91070519D02*
X132746517Y-91302649D01*
X132514387Y-90401187D02*
X132514387Y-91070519D01*
X133365049Y-91302649D02*
X133967273Y-91904873D01*
X132365387Y-90264149D02*
X132377349Y-90264149D01*
X132377349Y-90264149D02*
X132514387Y-90401187D01*
%TO.N,/SPI1_SCK*%
X131214387Y-90413149D02*
X131214387Y-91082387D01*
X131065387Y-90264149D02*
X131214387Y-90413149D01*
X131214387Y-91082387D02*
X132697273Y-92565273D01*
X132697273Y-92565273D02*
X132697273Y-92893049D01*
D49*
%TO.N,/3v3*%
X134264400Y-90315136D02*
X134315387Y-90264149D01*
X134264400Y-91124037D02*
X134264400Y-90315136D01*
X134349165Y-91208802D02*
X134264400Y-91124037D01*
D48*
%TO.N,/SPI1_MISO*%
X131427273Y-100337673D02*
X131470400Y-100380800D01*
X131427273Y-100335249D02*
X131427273Y-100337673D01*
%TO.N,/RGB_B*%
X133665387Y-85651010D02*
X133506379Y-85810018D01*
X133665387Y-84539149D02*
X133665387Y-85651010D01*
%TO.N,/RGB_R*%
X133015387Y-83801650D02*
X133515388Y-83301649D01*
X133515388Y-83301649D02*
X133719140Y-83301649D01*
X133015387Y-84539149D02*
X133015387Y-83801650D01*
%TO.N,/RGB_G*%
X132365387Y-83331413D02*
X132384800Y-83312000D01*
X132365387Y-84539149D02*
X132365387Y-83331413D01*
%TO.N,/CARD_CS*%
X153060400Y-92202000D02*
X153728251Y-91534149D01*
X151267330Y-92202000D02*
X153060400Y-92202000D01*
X151034365Y-91969035D02*
X151267330Y-92202000D01*
X153728251Y-91534149D02*
X154060387Y-91534149D01*
%TO.N,/ACCEL_INT*%
X137104927Y-76133842D02*
X137842308Y-76871223D01*
X136109752Y-76133842D02*
X137104927Y-76133842D01*
%TO.N,Net-(U4-REGOUT)*%
X132703862Y-74177952D02*
X133659752Y-75133842D01*
X131886559Y-74177952D02*
X132703862Y-74177952D01*
%TO.N,/MEM_nCE*%
X130111722Y-100380800D02*
X130157273Y-100335249D01*
X129507273Y-100380800D02*
X130111722Y-100380800D01*
X131065387Y-84539149D02*
X131065387Y-87730213D01*
X131065387Y-87730213D02*
X130098800Y-88696800D01*
%TO.N,/BOOT*%
X142005616Y-92575000D02*
X141798212Y-92367596D01*
X142605000Y-92575000D02*
X142005616Y-92575000D01*
%TO.N,/I2C_SDA*%
X143504472Y-90175528D02*
X143510000Y-90170000D01*
X143380000Y-90175528D02*
X143504472Y-90175528D01*
%TO.N,/BOOT*%
X134965387Y-83311200D02*
X134965387Y-84539149D01*
X135015387Y-83261200D02*
X134965387Y-83311200D01*
X136906000Y-84529762D02*
X136915387Y-84539149D01*
X136906000Y-83261200D02*
X136906000Y-84529762D01*
%TO.N,/I2C_SDA*%
X136265387Y-86411600D02*
X136265387Y-84539149D01*
%TO.N,/I2C_SCL*%
X135615387Y-85729787D02*
X135615387Y-84539149D01*
X135636000Y-85750400D02*
X135615387Y-85729787D01*
%TO.N,/TFT_CS*%
X147372400Y-92575000D02*
X146415000Y-92575000D01*
X147472400Y-92675000D02*
X147372400Y-92575000D01*
%TO.N,/CARD_CS*%
X149155588Y-92075000D02*
X146415000Y-92075000D01*
X149255588Y-92175000D02*
X149155588Y-92075000D01*
%TO.N,/D{slash}C*%
X151020949Y-92804149D02*
X149791800Y-91575000D01*
X149791800Y-91575000D02*
X146415000Y-91575000D01*
X154060387Y-92804149D02*
X151020949Y-92804149D01*
%TO.N,/BOOT*%
X147649250Y-82910149D02*
X148695387Y-81864012D01*
X139984142Y-82910149D02*
X147649250Y-82910149D01*
X139121439Y-82047446D02*
X139984142Y-82910149D01*
X153894387Y-81063012D02*
X154695387Y-81864012D01*
X153894387Y-73401628D02*
X153894387Y-81063012D01*
X154705293Y-72590722D02*
X153894387Y-73401628D01*
%TO.N,/I2C_SDA*%
X136265387Y-82756818D02*
X136265387Y-84539149D01*
X136966658Y-82055547D02*
X136265387Y-82756818D01*
%TO.N,/I2C_SCL*%
X135615387Y-82899563D02*
X135615387Y-84539149D01*
X134811875Y-82096051D02*
X135615387Y-82899563D01*
%TO.N,Net-(U8-TS)*%
X145554812Y-98589812D02*
X145554812Y-100475000D01*
X144510000Y-97545000D02*
X145554812Y-98589812D01*
%TO.N,/BOOT*%
X138862142Y-84539149D02*
X138949242Y-84626249D01*
X136915387Y-84539149D02*
X138862142Y-84539149D01*
X139121439Y-84454052D02*
X138949242Y-84626249D01*
X139121439Y-82047446D02*
X139121439Y-84454052D01*
X138949242Y-86646983D02*
X139007222Y-86704963D01*
X138949242Y-84626249D02*
X138949242Y-86646983D01*
X148695387Y-81864012D02*
X154695387Y-81864012D01*
X148705293Y-72590722D02*
X154705293Y-72590722D01*
%TO.N,/USB_DM*%
X140261387Y-112976613D02*
X140261387Y-112900000D01*
X139801600Y-113436400D02*
X140261387Y-112976613D01*
X140261387Y-113480000D02*
X140261387Y-112560000D01*
X140261387Y-114993149D02*
X140261387Y-113480000D01*
D50*
%TO.N,/5vUSB*%
X153798936Y-95605600D02*
X154060387Y-95344149D01*
X151993600Y-95605600D02*
X153798936Y-95605600D01*
X151953865Y-95645335D02*
X151993600Y-95605600D01*
D48*
%TO.N,/SPI1_SCK*%
X153390387Y-88394149D02*
X154060387Y-87724149D01*
X133694999Y-88394149D02*
X153390387Y-88394149D01*
%TO.N,/SPI1_MISO*%
X140489663Y-87773564D02*
X140498499Y-87782400D01*
X133115000Y-88127037D02*
X133115000Y-88125621D01*
X133115000Y-88125621D02*
X133467057Y-87773564D01*
X152732136Y-87782400D02*
X154060387Y-86454149D01*
X131715387Y-89526650D02*
X133115000Y-88127037D01*
X133467057Y-87773564D02*
X140489663Y-87773564D01*
X140498499Y-87782400D02*
X152732136Y-87782400D01*
X131715387Y-90264149D02*
X131715387Y-89526650D01*
%TO.N,/SPI1_MOSI*%
X132897888Y-88994149D02*
X154060387Y-88994149D01*
X132365387Y-89526650D02*
X132897888Y-88994149D01*
X132365387Y-90264149D02*
X132365387Y-89526650D01*
D51*
%TO.N,/5vUSB*%
X139500701Y-95652500D02*
X139700000Y-95652500D01*
X138716600Y-96436600D02*
X139500701Y-95652500D01*
X141450000Y-95645335D02*
X140577166Y-95645335D01*
X140577166Y-95645335D02*
X140570001Y-95652500D01*
X140570001Y-95652500D02*
X139700000Y-95652500D01*
D48*
%TO.N,Net-(U3-\u002AHOLD)*%
X131427273Y-92870073D02*
X131427273Y-92893049D01*
X129323661Y-90766461D02*
X131427273Y-92870073D01*
X129323661Y-86836976D02*
X129323661Y-90766461D01*
%TO.N,/SPI1_MOSI*%
X153712238Y-88646000D02*
X154060387Y-88994149D01*
X153951336Y-89103200D02*
X154060387Y-88994149D01*
D49*
%TO.N,/3v3*%
X134366000Y-84589762D02*
X134315387Y-84539149D01*
X131870358Y-76940286D02*
X131870358Y-76866842D01*
X133807833Y-106076791D02*
X133757885Y-106026843D01*
X134366000Y-85750400D02*
X134366000Y-84589762D01*
X129314782Y-103199641D02*
X129310841Y-103199641D01*
X148705293Y-76290722D02*
X148705293Y-76287907D01*
X129310841Y-103199641D02*
X129286000Y-103174800D01*
X132454529Y-82111729D02*
X132435600Y-82092800D01*
X135884752Y-76905952D02*
X135890000Y-76911200D01*
X148705293Y-76287907D02*
X148742400Y-76250800D01*
X131870358Y-76866842D02*
X131876800Y-76860400D01*
X132454529Y-82113781D02*
X132454529Y-82111729D01*
X133870387Y-106076791D02*
X133807833Y-106076791D01*
D51*
%TO.N,/5vUSB*%
X137575387Y-114218745D02*
X137558812Y-114202170D01*
D50*
X144953812Y-104876000D02*
X144953812Y-104775000D01*
D51*
X136296400Y-108356400D02*
X135658887Y-107718887D01*
X135904058Y-106070400D02*
X135897667Y-106076791D01*
D50*
X142215044Y-105580000D02*
X142207111Y-105587933D01*
D51*
X142375387Y-115029149D02*
X142375387Y-114063013D01*
X142375387Y-114063013D02*
X142443200Y-113995200D01*
D50*
X142240000Y-105580000D02*
X142215044Y-105580000D01*
X144927812Y-105871788D02*
X144927812Y-104902000D01*
X144927812Y-104902000D02*
X144953812Y-104876000D01*
X144830800Y-105968800D02*
X144927812Y-105871788D01*
D51*
X137575387Y-115029149D02*
X137575387Y-114218745D01*
X136499600Y-106070400D02*
X135904058Y-106070400D01*
X135658887Y-107718887D02*
X135658887Y-107376791D01*
X135897667Y-106076791D02*
X135658887Y-106076791D01*
%TO.N,/VBAT*%
X145003812Y-100431600D02*
X145003812Y-100475000D01*
X142240000Y-99720000D02*
X142240000Y-99720400D01*
X144475200Y-100431600D02*
X145003812Y-100431600D01*
D48*
%TO.N,Net-(D1-A)*%
X129120832Y-108165316D02*
X129295387Y-107990761D01*
X129120832Y-111219149D02*
X129120832Y-108165316D01*
%TO.N,Net-(D2-RK)*%
X144755387Y-79154149D02*
X143900387Y-80009149D01*
X144755387Y-76804149D02*
X144755387Y-79154149D01*
%TO.N,Net-(D2-BK)*%
X145805387Y-76804149D02*
X145805387Y-79374149D01*
X145805387Y-79374149D02*
X146440387Y-80009149D01*
%TO.N,Net-(D2-GK)*%
X143705387Y-76804149D02*
X143705387Y-77664149D01*
X143705387Y-77664149D02*
X141360387Y-80009149D01*
%TO.N,Net-(J1-CC1)*%
X138725387Y-114180630D02*
X138725387Y-115029149D01*
X136939757Y-112395000D02*
X138725387Y-114180630D01*
%TO.N,/USB_DM*%
X139492563Y-114153149D02*
X139958211Y-114153149D01*
X139225387Y-114420325D02*
X139492563Y-114153149D01*
X140225387Y-115029149D02*
X140261387Y-114993149D01*
X139958211Y-114153149D02*
X140225387Y-114420325D01*
X140225387Y-114420325D02*
X140225387Y-115029149D01*
X139225387Y-115029149D02*
X139225387Y-114420325D01*
%TO.N,/USB_DP*%
X140725387Y-115637973D02*
X140725387Y-115029149D01*
X140725387Y-115029149D02*
X140725387Y-112570000D01*
X139992563Y-115905149D02*
X140458211Y-115905149D01*
X140458211Y-115905149D02*
X140725387Y-115637973D01*
X139725387Y-115637973D02*
X139992563Y-115905149D01*
X140725387Y-112570000D02*
X140735387Y-112560000D01*
X139725387Y-115029149D02*
X139725387Y-115637973D01*
%TO.N,Net-(U3-\u002AWP)*%
X131314782Y-101717740D02*
X132697273Y-100335249D01*
X131314782Y-103199641D02*
X131314782Y-101717740D01*
%TO.N,/I2C_SCL*%
X135636000Y-84518536D02*
X135615387Y-84539149D01*
%TO.N,Net-(U8-ISET)*%
X145554812Y-104775000D02*
X145554812Y-107295188D01*
X145554812Y-107295188D02*
X145145000Y-107705000D01*
%TO.N,Net-(U8-PRETERM)*%
X147040000Y-107705000D02*
X146554812Y-107219812D01*
X146554812Y-107219812D02*
X146554812Y-104775000D01*
%TO.N,/nCHG*%
X146054812Y-97895188D02*
X146054812Y-100475000D01*
X146405000Y-97545000D02*
X146054812Y-97895188D01*
D51*
%TO.N,/VBAT_SNS*%
X142240000Y-101720000D02*
X142240000Y-101701600D01*
D48*
%TO.N,/I2C_SCL*%
X143863500Y-89514000D02*
X144010000Y-89660500D01*
X142910606Y-89514000D02*
X143863500Y-89514000D01*
X142830457Y-89594149D02*
X142910606Y-89514000D01*
X144010000Y-89660500D02*
X144010000Y-90170000D01*
%TD*%
M02*
