%TF.GenerationSoftware,KiCad,Pcbnew,9.0.4*%
%TF.CreationDate,2025-09-15T16:29:57+02:00*%
%TF.ProjectId,stm32-mcu,73746d33-322d-46d6-9375-2e6b69636164,rev?*%
%TF.SameCoordinates,Original*%
%TF.FileFunction,Soldermask,Top*%
%TF.FilePolarity,Negative*%
%FSLAX46Y46*%
G04 Gerber Fmt 4.6, Leading zero omitted, Abs format (unit mm)*
G04 Created by KiCad (PCBNEW 9.0.4) date 2025-09-15 16:29:57*
%MOMM*%
%LPD*%
G01*
G04 APERTURE LIST*
G04 Aperture macros list*
%AMRoundRect*
0 Rectangle with rounded corners*
0 $1 Rounding radius*
0 $2 $3 $4 $5 $6 $7 $8 $9 X,Y pos of 4 corners*
0 Add a 4 corners polygon primitive as box body*
4,1,4,$2,$3,$4,$5,$6,$7,$8,$9,$2,$3,0*
0 Add four circle primitives for the rounded corners*
1,1,$1+$1,$2,$3*
1,1,$1+$1,$4,$5*
1,1,$1+$1,$6,$7*
1,1,$1+$1,$8,$9*
0 Add four rect primitives between the rounded corners*
20,1,$1+$1,$2,$3,$4,$5,0*
20,1,$1+$1,$4,$5,$6,$7,0*
20,1,$1+$1,$6,$7,$8,$9,0*
20,1,$1+$1,$8,$9,$2,$3,0*%
G04 Aperture macros list end*
%ADD10RoundRect,0.160000X-0.240000X0.565000X-0.240000X-0.565000X0.240000X-0.565000X0.240000X0.565000X0*%
%ADD11RoundRect,0.120000X-0.180000X0.605000X-0.180000X-0.605000X0.180000X-0.605000X0.180000X0.605000X0*%
%ADD12RoundRect,0.087500X0.087500X-0.187500X0.087500X0.187500X-0.087500X0.187500X-0.087500X-0.187500X0*%
%ADD13RoundRect,0.087500X0.187500X-0.087500X0.187500X0.087500X-0.187500X0.087500X-0.187500X-0.087500X0*%
%ADD14C,0.650000*%
%ADD15RoundRect,0.150000X-0.150000X-0.425000X0.150000X-0.425000X0.150000X0.425000X-0.150000X0.425000X0*%
%ADD16RoundRect,0.075000X-0.075000X-0.500000X0.075000X-0.500000X0.075000X0.500000X-0.075000X0.500000X0*%
%ADD17O,1.000000X2.100000*%
%ADD18O,1.000000X1.800000*%
%ADD19RoundRect,0.250000X-0.450000X0.350000X-0.450000X-0.350000X0.450000X-0.350000X0.450000X0.350000X0*%
%ADD20RoundRect,0.250000X-0.475000X0.337500X-0.475000X-0.337500X0.475000X-0.337500X0.475000X0.337500X0*%
%ADD21RoundRect,0.250000X-0.350000X-0.450000X0.350000X-0.450000X0.350000X0.450000X-0.350000X0.450000X0*%
%ADD22RoundRect,0.250000X0.475000X-0.337500X0.475000X0.337500X-0.475000X0.337500X-0.475000X-0.337500X0*%
%ADD23RoundRect,0.250000X0.450000X-0.350000X0.450000X0.350000X-0.450000X0.350000X-0.450000X-0.350000X0*%
%ADD24RoundRect,0.250000X0.337500X0.475000X-0.337500X0.475000X-0.337500X-0.475000X0.337500X-0.475000X0*%
%ADD25RoundRect,0.250000X0.325000X0.450000X-0.325000X0.450000X-0.325000X-0.450000X0.325000X-0.450000X0*%
%ADD26RoundRect,0.250000X-0.337500X-0.475000X0.337500X-0.475000X0.337500X0.475000X-0.337500X0.475000X0*%
%ADD27RoundRect,0.250000X0.350000X0.450000X-0.350000X0.450000X-0.350000X-0.450000X0.350000X-0.450000X0*%
%ADD28R,1.000000X1.000000*%
%ADD29C,1.000000*%
%ADD30RoundRect,0.102000X0.125000X-0.250000X0.125000X0.250000X-0.125000X0.250000X-0.125000X-0.250000X0*%
%ADD31RoundRect,0.102000X0.225000X-0.250000X0.225000X0.250000X-0.225000X0.250000X-0.225000X-0.250000X0*%
%ADD32RoundRect,0.125280X-0.331720X-0.106720X0.331720X-0.106720X0.331720X0.106720X-0.331720X0.106720X0*%
%ADD33RoundRect,0.125280X-0.106720X-0.331720X0.106720X-0.331720X0.106720X0.331720X-0.106720X0.331720X0*%
%ADD34RoundRect,0.102000X-1.350000X-1.350000X1.350000X-1.350000X1.350000X1.350000X-1.350000X1.350000X0*%
%ADD35RoundRect,0.102000X-0.500000X-0.350000X0.500000X-0.350000X0.500000X0.350000X-0.500000X0.350000X0*%
%ADD36R,0.508000X0.660400*%
%ADD37R,4.800600X5.994400*%
%ADD38RoundRect,0.093750X-0.093750X-0.106250X0.093750X-0.106250X0.093750X0.106250X-0.093750X0.106250X0*%
%ADD39R,1.000000X1.600000*%
%ADD40RoundRect,0.075000X0.075000X-0.650000X0.075000X0.650000X-0.075000X0.650000X-0.075000X-0.650000X0*%
%ADD41R,1.880000X1.570000*%
%ADD42RoundRect,0.100000X-0.100000X0.637500X-0.100000X-0.637500X0.100000X-0.637500X0.100000X0.637500X0*%
%ADD43RoundRect,0.102000X0.654000X-0.654000X0.654000X0.654000X-0.654000X0.654000X-0.654000X-0.654000X0*%
%ADD44C,1.512000*%
G04 APERTURE END LIST*
D10*
%TO.C,D2*%
X145805387Y-73754149D03*
D11*
X144755387Y-73754149D03*
D10*
X143705387Y-73754149D03*
X143705387Y-76804149D03*
D11*
X144755387Y-76804149D03*
D10*
X145805387Y-76804149D03*
%TD*%
D12*
%TO.C,U4*%
X133884752Y-76858842D03*
X134384752Y-76858842D03*
X134884752Y-76858842D03*
X135384752Y-76858842D03*
X135884752Y-76858842D03*
D13*
X136109752Y-76133842D03*
X136109752Y-75633842D03*
X136109752Y-75133842D03*
D12*
X135884752Y-74408842D03*
X135384752Y-74408842D03*
X134884752Y-74408842D03*
X134384752Y-74408842D03*
X133884752Y-74408842D03*
D13*
X133659752Y-75133842D03*
X133659752Y-75633842D03*
X133659752Y-76133842D03*
%TD*%
D14*
%TO.C,J1*%
X137085387Y-116104149D03*
X142865387Y-116104149D03*
D15*
X136775387Y-115029149D03*
X137575387Y-115029149D03*
D16*
X138725387Y-115029149D03*
X139725387Y-115029149D03*
X140225387Y-115029149D03*
X141225387Y-115029149D03*
D15*
X142375387Y-115029149D03*
X143175387Y-115029149D03*
X143175387Y-115029149D03*
X142375387Y-115029149D03*
D16*
X141725387Y-115029149D03*
X140725387Y-115029149D03*
X139225387Y-115029149D03*
X138225387Y-115029149D03*
D15*
X137575387Y-115029149D03*
X136775387Y-115029149D03*
D17*
X135655387Y-115604149D03*
D18*
X135655387Y-119784149D03*
D17*
X144295387Y-115604149D03*
D18*
X144295387Y-119784149D03*
%TD*%
D19*
%TO.C,R18*%
X143900387Y-80009149D03*
X143900387Y-82009149D03*
%TD*%
D20*
%TO.C,C14*%
X149310000Y-101430000D03*
X149310000Y-103505000D03*
%TD*%
D19*
%TO.C,R9*%
X136966658Y-80055547D03*
X136966658Y-82055547D03*
%TD*%
D21*
%TO.C,R1*%
X139007222Y-86704963D03*
X141007222Y-86704963D03*
%TD*%
D22*
%TO.C,C3*%
X134527221Y-112432500D03*
X134527221Y-110357500D03*
%TD*%
D23*
%TO.C,R14*%
X142240000Y-101720000D03*
X142240000Y-99720000D03*
%TD*%
D24*
%TO.C,C7*%
X131870358Y-76940286D03*
X129795358Y-76940286D03*
%TD*%
D25*
%TO.C,D1*%
X131170832Y-111219149D03*
X129120832Y-111219149D03*
%TD*%
D26*
%TO.C,C1*%
X138949242Y-84626249D03*
X141024242Y-84626249D03*
%TD*%
D27*
%TO.C,R13*%
X148405000Y-97545000D03*
X146405000Y-97545000D03*
%TD*%
D28*
%TO.C,J2*%
X154060387Y-85184149D03*
D29*
X154060387Y-86454149D03*
X154060387Y-87724149D03*
X154060387Y-88994149D03*
X154060387Y-90264149D03*
X154060387Y-91534149D03*
X154060387Y-92804149D03*
X154060387Y-94074149D03*
X154060387Y-95344149D03*
X154060387Y-96614149D03*
%TD*%
D30*
%TO.C,U5*%
X138735387Y-112560000D03*
X139235387Y-112560000D03*
D31*
X139735387Y-112560000D03*
D30*
X140235387Y-112560000D03*
X140735387Y-112560000D03*
X140735387Y-111760000D03*
X140235387Y-111760000D03*
D31*
X139735387Y-111760000D03*
D30*
X139235387Y-111760000D03*
X138735387Y-111760000D03*
%TD*%
D32*
%TO.C,U7*%
X142605000Y-91075000D03*
X142605000Y-91575000D03*
X142605000Y-92075000D03*
X142605000Y-92575000D03*
X142605000Y-93075000D03*
D33*
X143510000Y-93980000D03*
X144010000Y-93980000D03*
X144510000Y-93980000D03*
X145010000Y-93980000D03*
X145510000Y-93980000D03*
D32*
X146415000Y-93075000D03*
X146415000Y-92575000D03*
X146415000Y-92075000D03*
X146415000Y-91575000D03*
X146415000Y-91075000D03*
D33*
X145510000Y-90170000D03*
X145010000Y-90170000D03*
X144510000Y-90170000D03*
X144010000Y-90170000D03*
X143510000Y-90170000D03*
D34*
X144510000Y-92075000D03*
%TD*%
D26*
%TO.C,C4*%
X133905015Y-103388956D03*
X135980015Y-103388956D03*
%TD*%
D23*
%TO.C,R3*%
X143510000Y-112395000D03*
X143510000Y-110395000D03*
%TD*%
D35*
%TO.C,RESET1*%
X148695387Y-78164012D03*
X154695387Y-78164012D03*
X148695387Y-81864012D03*
X154695387Y-81864012D03*
%TD*%
D19*
%TO.C,R10*%
X134811875Y-80096051D03*
X134811875Y-82096051D03*
%TD*%
D20*
%TO.C,C6*%
X130016269Y-80042349D03*
X130016269Y-82117349D03*
%TD*%
%TO.C,C12*%
X139700000Y-93577500D03*
X139700000Y-95652500D03*
%TD*%
D36*
%TO.C,U3*%
X130157273Y-100335249D03*
X131427273Y-100335249D03*
X132697273Y-100335249D03*
X133967273Y-100335249D03*
X133967273Y-92893049D03*
X132697273Y-92893049D03*
X131427273Y-92893049D03*
X130157273Y-92893049D03*
D37*
X132062273Y-96614149D03*
%TD*%
D27*
%TO.C,R6*%
X139842308Y-76871223D03*
X137842308Y-76871223D03*
%TD*%
D38*
%TO.C,U2*%
X133870387Y-106076791D03*
X133870387Y-106726791D03*
X133870387Y-107376791D03*
X135645387Y-107376791D03*
X135645387Y-106726791D03*
X135645387Y-106076791D03*
D39*
X134757887Y-106726791D03*
%TD*%
D22*
%TO.C,C2*%
X132454529Y-82113781D03*
X132454529Y-80038781D03*
%TD*%
D19*
%TO.C,R5*%
X129295387Y-105990761D03*
X129295387Y-107990761D03*
%TD*%
%TO.C,R2*%
X139121439Y-80047446D03*
X139121439Y-82047446D03*
%TD*%
D24*
%TO.C,C9*%
X131886559Y-74177952D03*
X129811559Y-74177952D03*
%TD*%
D22*
%TO.C,C13*%
X142240000Y-105580000D03*
X142240000Y-103505000D03*
%TD*%
D23*
%TO.C,R4*%
X136939757Y-112395000D03*
X136939757Y-110395000D03*
%TD*%
D27*
%TO.C,R16*%
X144510000Y-97545000D03*
X142510000Y-97545000D03*
%TD*%
D19*
%TO.C,R19*%
X146440387Y-80009149D03*
X146440387Y-82009149D03*
%TD*%
D35*
%TO.C,BOOT1*%
X148705293Y-72590722D03*
X154705293Y-72590722D03*
X148705293Y-76290722D03*
X154705293Y-76290722D03*
%TD*%
D19*
%TO.C,R17*%
X141360387Y-80009149D03*
X141360387Y-82009149D03*
%TD*%
%TO.C,R8*%
X129323661Y-84836976D03*
X129323661Y-86836976D03*
%TD*%
D21*
%TO.C,R12*%
X147040000Y-107705000D03*
X149040000Y-107705000D03*
%TD*%
D40*
%TO.C,U8*%
X145054812Y-104775000D03*
X145554812Y-104775000D03*
X146054812Y-104775000D03*
X146554812Y-104775000D03*
X147054812Y-104775000D03*
X147054812Y-100475000D03*
X146554812Y-100475000D03*
X146054812Y-100475000D03*
X145554812Y-100475000D03*
X145054812Y-100475000D03*
D41*
X146054812Y-102625000D03*
%TD*%
D19*
%TO.C,R15*%
X139700000Y-98060000D03*
X139700000Y-100060000D03*
%TD*%
D21*
%TO.C,R7*%
X129314782Y-103199641D03*
X131314782Y-103199641D03*
%TD*%
D24*
%TO.C,C8*%
X139865733Y-73950812D03*
X137790733Y-73950812D03*
%TD*%
D22*
%TO.C,C5*%
X131953363Y-108017085D03*
X131953363Y-105942085D03*
%TD*%
D27*
%TO.C,R11*%
X145145000Y-107705000D03*
X143145000Y-107705000D03*
%TD*%
D42*
%TO.C,U1*%
X136915387Y-84539149D03*
X136265387Y-84539149D03*
X135615387Y-84539149D03*
X134965387Y-84539149D03*
X134315387Y-84539149D03*
X133665387Y-84539149D03*
X133015387Y-84539149D03*
X132365387Y-84539149D03*
X131715387Y-84539149D03*
X131065387Y-84539149D03*
X131065387Y-90264149D03*
X131715387Y-90264149D03*
X132365387Y-90264149D03*
X133015387Y-90264149D03*
X133665387Y-90264149D03*
X134315387Y-90264149D03*
X134965387Y-90264149D03*
X135615387Y-90264149D03*
X136265387Y-90264149D03*
X136915387Y-90264149D03*
%TD*%
D43*
%TO.C,J3*%
X153670000Y-101505000D03*
D44*
X153670000Y-103505000D03*
%TD*%
M02*
